<?xml version="1.0" encoding="UTF-8"?>
<svg width="166px" height="192px" viewBox="0 0 166 192" version="1.1" xmlns="http://www.w3.org/2000/svg" xmlns:xlink="http://www.w3.org/1999/xlink">
    <!-- Generator: Sketch 53.2 (72643) - https://sketchapp.com -->
    <title>Analitics</title>
    <desc>Created with Sketch.</desc>
    <g id="Main" stroke="none" stroke-width="1" fill="none" fill-rule="evenodd">
        <g transform="translate(-456.000000, -288.000000)" id="Analitics">
            <g transform="translate(440.000000, 288.000000)">
                <rect id="Rectangle" x="0" y="0" width="192" height="192"></rect>
                <polygon id="Path" fill="#F1F3F5" fill-rule="nonzero" points="92.6467066 191.42515 16 147.161677 92.8383234 102.97485 169.331737 147.161677"></polygon>
                <polygon id="Path" fill="#EAEDF0" fill-rule="nonzero" points="92.8383234 102.97485 16 147.161677 16 68.8479042 92.8383234 24.3736527"></polygon>
                <polyline id="Path" fill="#D9DFE5" fill-rule="nonzero" points="92.8383234 24.3736527 92.8383234 102.97485 16 147.161677"></polyline>
                <g id="Group" transform="translate(18.682635, 44.071856)" fill-rule="nonzero">
                    <path d="M9.19739202,0.102810004 C9.5639197,-0.108961542 10.0327238,0.0164930888 10.2444954,0.383020763 C10.4562669,0.749548438 10.3308123,1.21835258 9.96428463,1.43012413 L1.34153013,6.41216006 C0.97500246,6.6239316 0.506198315,6.49847697 0.29442677,6.1319493 C0.0826552249,5.76542162 0.208109855,5.29661748 0.57463753,5.08484593 L9.19739202,0.102810004 Z" id="Path" fill="#EAEDF0"></path>
                    <path d="M5.02024184,9.41532978 C5.38679993,9.20361089 5.85558605,9.32913285 6.06730495,9.69569094 C6.27902384,10.062249 6.15350188,10.5310352 5.78694379,10.742754 L1.34143481,13.3104187 C0.974876716,13.5221376 0.506090596,13.3966156 0.2943717,13.0300576 C0.0826528038,12.6634995 0.20817477,12.1947134 0.574732859,11.9829945 L5.02024184,9.41532978 Z" id="Path" fill="#EAEDF0"></path>
                    <path d="M9.19518703,13.4789392 C9.5610084,13.2659499 10.0302272,13.3898447 10.2432165,13.7556661 C10.4562058,14.1214874 10.332311,14.5907062 9.96648962,14.8036955 L1.34373512,19.8240548 C0.977913761,20.0370441 0.508694987,19.9131493 0.295705659,19.5473279 C0.082716332,19.1815066 0.206611177,18.7122878 0.57243254,18.4992985 L9.19518703,13.4789392 Z" id="Path" fill="#EAEDF0"></path>
                    <path d="M5.02024184,22.8285034 C5.38679993,22.6167845 5.85558605,22.7423065 6.06730495,23.1088646 C6.27902384,23.4754227 6.15350188,23.9442088 5.78694379,24.1559277 L1.34143481,26.7235924 C0.974876716,26.9353113 0.506090596,26.8097893 0.2943717,26.4432312 C0.0826528038,26.0766731 0.20817477,25.607887 0.574732859,25.3961681 L5.02024184,22.8285034 Z" id="Path" fill="#9EABB8"></path>
                    <path d="M9.19518703,26.8921128 C9.5610084,26.6791235 10.0302272,26.8030184 10.2432165,27.1688397 C10.4562058,27.5346611 10.332311,28.0038799 9.96648962,28.2168692 L1.34373512,33.2372285 C0.977913761,33.4502178 0.508694987,33.326323 0.295705659,32.9605016 C0.082716332,32.5946802 0.206611177,32.1254615 0.57243254,31.9124721 L9.19518703,26.8921128 Z" id="Path" fill="#9EABB8"></path>
                    <path d="M5.02024184,36.2416771 C5.38679993,36.0299582 5.85558605,36.1554802 6.06730495,36.5220382 C6.27902384,36.8885963 6.15350188,37.3573825 5.78694379,37.5691014 L1.34143481,40.136766 C0.974876716,40.3484849 0.506090596,40.222963 0.2943717,39.8564049 C0.0826528038,39.4898468 0.20817477,39.0210607 0.574732859,38.8093418 L5.02024184,36.2416771 Z" id="Path" fill="#9EABB8"></path>
                    <path d="M9.19739202,40.3040076 C9.5639197,40.0922361 10.0327238,40.2176907 10.2444954,40.5842184 C10.4562669,40.950746 10.3308123,41.4195502 9.96428463,41.6313217 L1.34153013,46.6133577 C0.97500246,46.8251292 0.506198315,46.6996746 0.29442677,46.3331469 C0.0826552249,45.9666192 0.208109855,45.4978151 0.57463753,45.2860435 L9.19739202,40.3040076 Z" id="Path" fill="#9EABB8"></path>
                    <path d="M5.01597547,49.6190099 C5.38116249,49.4049348 5.85074725,49.5274352 6.0648224,49.8926222 C6.27889754,50.2578092 6.15639717,50.727394 5.79121016,50.9414691 L1.34570117,53.5474571 C0.980514159,53.7615323 0.510929397,53.6390319 0.29685425,53.2738449 C0.0827791042,52.9086579 0.205279477,52.4390731 0.570466491,52.224998 L5.01597547,49.6190099 Z" id="Path" fill="#9EABB8"></path>
                    <path d="M9.19739202,53.7171813 C9.5639197,53.5054097 10.0327238,53.6308643 10.2444954,53.997392 C10.4562669,54.3639197 10.3308123,54.8327238 9.96428463,55.0444954 L1.34153013,60.0265313 C0.97500246,60.2383029 0.506198315,60.1128482 0.29442677,59.7463206 C0.0826552249,59.3797929 0.208109855,58.9109887 0.57463753,58.6992172 L9.19739202,53.7171813 Z" id="Path" fill="#9EABB8"></path>
                    <path d="M5.02024184,63.029701 C5.38679993,62.8179821 5.85558605,62.9435041 6.06730495,63.3100622 C6.27902384,63.6766203 6.15350188,64.1454064 5.78694379,64.3571253 L1.34143481,66.92479 C0.974876716,67.1365089 0.506090596,67.0109869 0.2943717,66.6444288 C0.0826528038,66.2778707 0.20817477,65.8090846 0.574732859,65.5973657 L5.02024184,63.029701 Z" id="Path" fill="#9EABB8"></path>
                    <path d="M9.19739202,67.1303549 C9.5639197,66.9185834 10.0327238,67.044038 10.2444954,67.4105657 C10.4562669,67.7770933 10.3308123,68.2458975 9.96428463,68.457669 L1.34153013,73.439705 C0.97500246,73.6514765 0.506198315,73.5260219 0.29442677,73.1594942 C0.0826552249,72.7929665 0.208109855,72.3241624 0.57463753,72.1123908 L9.19739202,67.1303549 Z" id="Path" fill="#9EABB8"></path>
                    <path d="M5.02024184,76.4428747 C5.38679993,76.2311558 5.85558605,76.3566778 6.06730495,76.7232359 C6.27902384,77.0897939 6.15350188,77.5585801 5.78694379,77.770299 L1.34143481,80.3379636 C0.974876716,80.5496825 0.506090596,80.4241606 0.2943717,80.0576025 C0.0826528038,79.6910444 0.20817477,79.2222583 0.574732859,79.0105394 L5.02024184,76.4428747 Z" id="Path" fill="#9EABB8"></path>
                    <path d="M9.19739202,80.5435286 C9.5639197,80.331757 10.0327238,80.4572117 10.2444954,80.8237393 C10.4562669,81.190267 10.3308123,81.6590711 9.96428463,81.8708427 L1.34153013,86.8528786 C0.97500246,87.0646502 0.506198315,86.9391955 0.29442677,86.5726679 C0.0826552249,86.2061402 0.208109855,85.737336 0.57463753,85.5255645 L9.19739202,80.5435286 Z" id="Path" fill="#9EABB8"></path>
                    <path d="M5.02024184,89.8560483 C5.38679993,89.6443295 5.85558605,89.7698514 6.06730495,90.1364095 C6.27902384,90.5029676 6.15350188,90.9717537 5.78694379,91.1834726 L1.34143481,93.7511373 C0.974876716,93.9628562 0.506090596,93.8373342 0.2943717,93.4707761 C0.0826528038,93.104218 0.20817477,92.6354319 0.574732859,92.423713 L5.02024184,89.8560483 Z" id="Path" fill="#9EABB8"></path>
                </g>
                <g id="Group" transform="translate(32.479042, 52.502994)" fill-rule="nonzero">
                    <g id="Path">
                        <polygon fill="#C0C9D2" points="44.148503 94.6586826 44.148503 129.456287 60.3592814 138.807186 76.5700599 129.456287 76.5700599 94.6586826 60.3592814 104.009581"></polygon>
                        <g transform="translate(0.000000, 44.071856)">
                            <polygon fill="#DEF4FC" points="60.3592814 0.11497006 44.148503 0.11497006 44.148503 15.5976048 60.3592814 24.948503"></polygon>
                            <polygon fill="#D9DFE5" points="44.148503 85.3844311 60.3592814 94.7353293 60.3592814 59.7461078 44.148503 50.3952096"></polygon>
                            <polygon fill="#F7C0C0" points="120.526946 60.0143713 120.526946 50.5868263 104.354491 59.9377246 88.1437126 50.5868263 88.1437126 78.7161677"></polygon>
                            <polygon fill="#FCEAEA" points="104.354491 69.3652695 104.354491 59.7461078 88.1437126 50.3952096 88.1437126 78.7161677"></polygon>
                            <polygon fill="#C0C9D2" points="0.191616766 50.5868263 0.191616766 60.0143713 32.5748503 78.7161677 32.5748503 50.5868263 16.4023952 59.9377246"></polygon>
                            <polygon fill="#D9DFE5" points="0.191616766 60.0143713 16.4023952 69.3652695 16.4023952 59.7461078 0.191616766 50.3952096"></polygon>
                        </g>
                        <polyline fill="#9EABB8" points="44.148503 9.38922156 44.148503 94.6586826 60.3592814 104.009581 76.5700599 94.6586826 76.5700599 9.38922156"></polyline>
                        <polygon fill="#C0C9D2" points="44.148503 9.38922156 44.148503 94.6586826 60.3592814 104.009581 60.3592814 9.38922156"></polygon>
                        <polygon fill="#D9DFE5" points="76.5700599 9.38922156 60.3592814 18.7401198 44.148503 9.38922156 44.148503 9.38922156 60.3592814 0.0383233533"></polygon>
                        <polygon fill="#D9DFE5" points="76.5700599 94.6586826 60.3592814 104.009581 44.148503 94.6586826 44.148503 94.6586826 60.3592814 85.3077844"></polygon>
                    </g>
                </g>
                <polyline id="Path" fill="#9EABB8" fill-rule="nonzero" points="32.6706587 77.6431138 32.6706587 147.161677 48.8431138 156.512575 65.0538922 147.161677 65.0538922 77.6431138"></polyline>
                <polygon id="Path" fill="#C0C9D2" fill-rule="nonzero" points="32.6706587 77.6431138 32.6706587 147.161677 48.8431138 156.512575 48.8431138 77.6431138"></polygon>
                <polygon id="Path" fill="#D9DFE5" fill-rule="nonzero" points="65.0538922 77.6431138 48.8431138 86.9556886 32.6706587 77.6431138 32.6706587 77.6431138 48.8431138 68.2922156"></polygon>
                <polygon id="Path" fill="#D9DFE5" fill-rule="nonzero" points="65.0538922 147.161677 48.8431138 156.512575 32.6706587 147.161677 32.6706587 147.161677 48.8431138 137.810778"></polygon>
                <g id="Group" transform="translate(30.946108, 50.970060)" fill="#7B8A9A" fill-rule="nonzero">
                    <g transform="translate(0.000000, 15.712575)" id="Shape">
                        <path d="M0.198279429,10.8162257 C0.238825837,10.3784721 0.464438723,9.95564064 0.875239333,9.68413342 C0.910071507,9.66090898 0.945908208,9.63907244 0.982670415,9.61870284 L17.1296943,0.28250895 C17.6039288,0.00830698258 18.1884416,0.00800741132 18.662957,0.281723131 L34.8482219,9.6179043 C34.885089,9.63828011 34.9210276,9.66013032 34.955958,9.68337542 C35.3675056,9.95483905 35.5935002,10.3780964 35.6340635,10.8163014 C35.6384551,10.8637677 35.6407186,10.911859 35.6407186,10.960479 L35.6407186,80.4790419 C35.6407186,81.0269194 35.3483177,81.5331453 34.8737354,81.8068996 L18.6859987,91.1445066 C18.4555094,91.2831421 18.1855689,91.3628743 17.897006,91.3628743 C17.6079102,91.3628743 17.3375057,91.2828474 17.1067369,91.143738 L0.957239191,81.8061138 C0.483423763,81.5321542 0.191616766,81.026358 0.191616766,80.4790419 L0.191616766,10.960479 C0.191616766,10.9118332 0.193882684,10.8637165 0.198314731,10.8162289 L0.198279429,10.8162257 Z M3.25748503,13.6121029 L3.25748503,79.5946522 L16.3640719,87.1728683 L16.3640719,21.1592607 L3.25748503,13.6121029 Z M19.4299401,21.1603071 L19.4299401,87.1760115 L32.5748503,79.5936047 L32.5748503,13.6089757 L19.4299401,21.1603071 Z M31.0351213,10.957751 L17.8979132,3.37978705 L4.79175963,10.9577526 L17.8979105,18.5046594 L31.0351213,10.957751 Z"></path>
                    </g>
                    <g transform="translate(44.071856, 0.000000)" id="Shape">
                        <path d="M0.0833995902,10.7769583 C0.124227878,10.3391293 0.350193642,9.91635145 0.761296881,9.64512551 C0.796262025,9.62185299 0.83223745,9.59997821 0.869143364,9.57958095 L17.0544083,0.243399778 C17.5284374,-0.0300354549 18.1122812,-0.0300354549 18.5863103,0.243399778 L34.7715752,9.57958095 C34.8084811,9.59997821 34.8444565,9.62185299 34.8794217,9.64512551 C35.2905249,9.91635145 35.5164907,10.3391293 35.557319,10.7769583 C35.5617758,10.8247554 35.5640719,10.8731874 35.5640719,10.9221557 L35.5640719,96.1916168 C35.5640719,96.7394943 35.271671,97.2457202 34.7970887,97.5194745 L18.609352,106.857081 C18.3788627,106.995717 18.1089222,107.075449 17.8203593,107.075449 C17.5317963,107.075449 17.2618558,106.995717 17.0313666,106.857081 L0.84362982,97.5194745 C0.369047562,97.2457202 0.0766467066,96.7394943 0.0766467066,96.1916168 L0.0766467066,10.9221557 C0.0766467066,10.8731874 0.0789427617,10.8247554 0.0834330861,10.7769614 L0.0833995902,10.7769583 Z M3.14251497,13.5760843 L3.14251497,95.3061796 L16.2874251,102.888586 L16.2874251,21.1584911 L3.14251497,13.5760843 Z M19.3532934,21.1584911 L19.3532934,102.888586 L32.4982036,95.3061796 L32.4982036,13.5760843 L19.3532934,21.1584911 Z M30.9632039,10.9221557 L17.8203593,3.34094037 L4.67751468,10.9221557 L17.8203593,18.503371 L30.9632039,10.9221557 Z"></path>
                    </g>
                </g>
                <path d="M161.891559,29.7607106 L160.172455,31.4798144 L159.088507,30.3958663 L162.658026,26.8263473 L166.227545,30.3958663 L165.143597,31.4798144 L163.424493,29.7607106 L163.424493,34.7701757 L161.891559,34.7701757 L161.891559,29.7607106 Z M161.891559,59.7295729 L160.172455,61.4486767 L159.088507,60.3647286 L162.658026,56.7952096 L166.227545,60.3647286 L165.143597,61.4486767 L163.424493,59.7295729 L163.424493,64.7390379 L161.891559,64.7390379 L161.891559,59.7295729 Z M161.891559,89.6601118 L160.172455,91.3792156 L159.088507,90.2952675 L162.658026,86.7257485 L166.227545,90.2952675 L165.143597,91.3792156 L163.424493,89.6601118 L163.424493,94.6695769 L161.891559,94.6695769 L161.891559,89.6601118 Z M160.172455,121.348078 L159.088507,120.26413 L162.658026,116.694611 L166.227545,120.26413 L165.143597,121.348078 L163.424493,119.628974 L163.424493,124.638439 L161.891559,124.638439 L161.891559,119.628974 L160.172455,121.348078 Z M161.891559,126.324667 L163.424493,126.324667 L163.424493,127.972571 L161.891559,127.972571 L161.891559,126.324667 Z M161.891559,128.968978 L163.424493,128.968978 L163.424493,130.616882 L161.891559,130.616882 L161.891559,128.968978 Z M161.891559,131.651613 L163.424493,131.651613 L163.424493,133.299517 L161.891559,133.299517 L161.891559,131.651613 Z M161.891559,134.679158 L163.424493,134.679158 L163.424493,139.04802 L161.891559,139.04802 L161.891559,134.679158 Z M161.891559,96.3558044 L163.424493,96.3558044 L163.424493,98.0037086 L161.891559,98.0037086 L161.891559,96.3558044 Z M161.891559,99.0384391 L163.424493,99.0384391 L163.424493,100.686343 L161.891559,100.686343 L161.891559,99.0384391 Z M161.891559,101.721074 L163.424493,101.721074 L163.424493,103.368978 L161.891559,103.368978 L161.891559,101.721074 Z M161.891559,104.710295 L163.424493,104.710295 L163.424493,109.079158 L161.891559,109.079158 L161.891559,104.710295 Z M161.891559,66.4252655 L163.424493,66.4252655 L163.424493,68.0731697 L161.891559,68.0731697 L161.891559,66.4252655 Z M161.891559,69.0695769 L163.424493,69.0695769 L163.424493,70.7174811 L161.891559,70.7174811 L161.891559,69.0695769 Z M161.891559,71.7522116 L163.424493,71.7522116 L163.424493,73.4001158 L161.891559,73.4001158 L161.891559,71.7522116 Z M161.891559,74.7797565 L163.424493,74.7797565 L163.424493,79.1486188 L161.891559,79.1486188 L161.891559,74.7797565 Z M161.891559,36.4564032 L163.424493,36.4564032 L163.424493,38.1043074 L161.891559,38.1043074 L161.891559,36.4564032 Z M161.891559,39.1390379 L163.424493,39.1390379 L163.424493,40.7869421 L161.891559,40.7869421 L161.891559,39.1390379 Z M161.891559,41.7833493 L163.424493,41.7833493 L163.424493,43.4312535 L161.891559,43.4312535 L161.891559,41.7833493 Z M161.891559,44.8108942 L163.424493,44.8108942 L163.424493,49.1797565 L161.891559,49.1797565 L161.891559,44.8108942 Z" id="Shape" fill="#D9DFE5" fill-rule="nonzero"></path>
                <g id="Group" transform="translate(119.089820, 35.257485)" fill-rule="nonzero">
                    <g transform="translate(1.532934, 1.532934)" id="Path">
                        <polyline fill="#EC6D6D" points="0 9.3508982 0 110.371257 16.2107784 119.722156 32.3832335 110.371257 32.3832335 9.3508982"></polyline>
                        <polygon fill="#F19696" points="0 9.3508982 0 110.371257 16.2107784 119.722156 16.2107784 9.3508982"></polygon>
                        <polygon fill="#F7C0C0" points="32.3832335 9.3508982 16.2107784 18.7017964 0 9.3508982 0 9.3508982 16.2107784 0"></polygon>
                        <polygon fill="#F7C0C0" points="32.3832335 110.371257 16.2107784 119.722156 0 110.371257 0 110.371257 16.2107784 101.020359"></polygon>
                    </g>
                    <g fill="#E21A1A" id="Shape">
                        <path d="M0.00675288361,10.738635 C0.0475811716,10.3008059 0.273546935,9.8780281 0.684650174,9.60680215 C0.719615318,9.58352964 0.755590743,9.56165486 0.792496658,9.5412576 L16.9777616,0.205076424 C17.4522769,-0.0686392957 18.0367897,-0.0683397244 18.5110243,0.205862243 L34.6580481,9.54205614 C34.6948491,9.56244722 34.7307226,9.58430833 34.7655894,9.6075602 C35.1736205,9.87729196 35.3989673,10.296399 35.4416296,10.7311242 C35.4465588,10.7813567 35.4491018,10.8322976 35.4491018,10.8838323 L35.4491018,111.904192 C35.4491018,112.451508 35.1572948,112.957304 34.6834794,113.231264 L18.5339817,122.568888 C18.3032129,122.707997 18.0328084,122.788024 17.7437126,122.788024 C17.4551496,122.788024 17.1852091,122.708292 16.9547198,122.569656 L0.766983114,113.232049 C0.292400855,112.958295 0,112.452069 0,111.904192 L0,10.8838323 C0,10.834864 0.00229605513,10.786432 0.00678637951,10.738638 L0.00675288361,10.738635 Z M3.06586826,13.5377609 L3.06586826,111.018754 L16.2107784,118.601161 L16.2107784,21.1201677 L3.06586826,13.5377609 Z M19.2766467,21.1191203 L19.2766467,118.598018 L32.3832335,111.019802 L32.3832335,13.5409042 L19.2766467,21.1191203 L19.2766467,21.1191203 Z M30.8536742,10.8838323 L17.7428053,3.30314035 L4.60086798,10.8838323 L17.7428053,18.4645243 L30.8536742,10.8838323 Z"></path>
                    </g>
                </g>
                <g id="Group" transform="translate(121.772455, 0.000000)" fill-rule="nonzero">
                    <circle id="Oval" fill="#EC6D6D" cx="15.0610778" cy="15.1377246" r="14.0646707"></circle>
                    <path d="M15.0610778,29.9688623 C6.87006666,29.9688623 0.22994012,23.3287357 0.22994012,15.1377246 C0.22994012,6.94671336 6.87006666,0.306586826 15.0610778,0.306586826 C23.252089,0.306586826 29.8922156,6.94671336 29.8922156,15.1377246 C29.8922156,23.3287357 23.252089,29.9688623 15.0610778,29.9688623 Z M15.0610778,28.4359281 C22.4054729,28.4359281 28.3592814,22.4821196 28.3592814,15.1377246 C28.3592814,7.79332951 22.4054729,1.83952096 15.0610778,1.83952096 C7.7166828,1.83952096 1.76287425,7.79332951 1.76287425,15.1377246 C1.76287425,22.4821196 7.7166828,28.4359281 15.0610778,28.4359281 Z" id="Oval" fill="#F19696"></path>
                    <g transform="translate(9.197605, 9.197605)" fill="#F7C0C0" id="Path">
                        <path d="M3.33413174,2.22275449 C3.33413174,1.58415016 2.80140526,1.05862268 2.14610778,1.03473054 C1.53108152,1.03473054 0.996407186,1.57672918 0.996407186,2.22275449 C0.996407186,2.84983212 1.51187094,3.37245509 2.17346417,3.37294344 C2.80305122,3.39542869 3.33413174,2.87152494 3.33413174,2.22275449 Z M4.86706587,2.22275449 C4.86706587,3.73200314 3.62361952,4.95864616 2.14610778,4.90538922 C0.660485718,4.90538922 -0.536526946,3.69175138 -0.536526946,2.22275449 C-0.536526946,0.734746502 0.679761661,-0.498203593 2.17346417,-0.497715242 C3.66469766,-0.444456902 4.86706587,0.741663082 4.86706587,2.22275449 Z"></path>
                        <path d="M10.7305389,9.61916168 C10.7305389,8.98143727 10.2043412,8.46946108 9.54251497,8.46946108 C8.91543734,8.46946108 8.39281437,8.98492483 8.39232602,9.64651806 C8.36984077,10.2761051 8.89374453,10.8071856 9.54251497,10.8071856 C10.1922608,10.8071856 10.7305389,10.2689075 10.7305389,9.61916168 Z M12.2634731,9.61916168 C12.2634731,11.1155236 11.0388769,12.3401198 9.54251497,12.3401198 C8.03326632,12.3401198 6.8066233,11.0966734 6.85988024,9.61916168 C6.85988024,8.13353961 8.07351808,6.93652695 9.54251497,6.93652695 C11.0417001,6.93652695 12.2634731,8.12527903 12.2634731,9.61916168 Z"></path>
                        <path d="M1.72999801,11.1575429 C1.430674,11.4568669 0.9453739,11.4568669 0.646049892,11.1575429 C0.346725884,10.8582189 0.346725884,10.3729188 0.646049892,10.0735948 L9.9969481,0.722696599 C10.2962721,0.423372591 10.7815722,0.423372591 11.0808962,0.722696599 C11.3802202,1.02202061 11.3802202,1.50732071 11.0808962,1.80664472 L1.72999801,11.1575429 Z"></path>
                    </g>
                </g>
                <path d="M137.6,46.1413174 C137.6,46.5646254 137.256841,46.9077844 136.833533,46.9077844 C136.410225,46.9077844 136.067066,46.5646254 136.067066,46.1413174 L136.067066,29.2023952 C136.067066,28.7790871 136.410225,28.4359281 136.833533,28.4359281 C137.256841,28.4359281 137.6,28.7790871 137.6,29.2023952 L137.6,46.1413174 Z" id="Path" fill="#F19696" fill-rule="nonzero"></path>
                <g id="Group" transform="translate(167.377246, 128.766467)" fill="#D9DFE5" fill-rule="nonzero">
                    <path d="M7.74131737,6.51497006 L9.38922156,6.51497006 C9.81252963,6.51497006 10.1556886,6.85812905 10.1556886,7.28143713 C10.1556886,7.7047452 9.81252963,8.04790419 9.38922156,8.04790419 L6.9748503,8.04790419 C6.55154223,8.04790419 6.20838323,7.7047452 6.20838323,7.28143713 L6.20838323,3.56407186 C6.20838323,3.14076378 6.55154223,2.79760479 6.9748503,2.79760479 C7.39815837,2.79760479 7.74131737,3.14076378 7.74131737,3.56407186 L7.74131737,6.51497006 L7.74131737,6.51497006 Z M7.08982036,14.1796407 C3.1742207,14.1796407 0,11.00542 0,7.08982036 C0,3.1742207 3.1742207,0 7.08982036,0 C11.00542,0 14.1796407,3.1742207 14.1796407,7.08982036 C14.1796407,11.00542 11.00542,14.1796407 7.08982036,14.1796407 Z M7.08982036,12.6467066 C10.1588039,12.6467066 12.6467066,10.1588039 12.6467066,7.08982036 C12.6467066,4.02083684 10.1588039,1.53293413 7.08982036,1.53293413 C4.02083684,1.53293413 1.53293413,4.02083684 1.53293413,7.08982036 C1.53293413,10.1588039 4.02083684,12.6467066 7.08982036,12.6467066 Z" id="Shape"></path>
                </g>
            </g>
        </g>
    </g>
</svg>