<?xml version="1.0" encoding="UTF-8"?>
<svg width="192px" height="192px" viewBox="0 0 192 192" version="1.1" xmlns="http://www.w3.org/2000/svg" xmlns:xlink="http://www.w3.org/1999/xlink">
    <!-- Generator: Sketch 53.2 (72643) - https://sketchapp.com -->
    <title>Insurance</title>
    <desc>Created with Sketch.</desc>
    <g id="Main" stroke="none" stroke-width="1" fill="none" fill-rule="evenodd">
        <g transform="translate(-152.000000, -288.000000)" fill-rule="nonzero" id="Insurance">
            <g transform="translate(152.000000, 288.000000)">
                <circle id="Oval" fill="#EAEDF0" cx="92.6571429" cy="89.1428571" r="86.8285714"></circle>
                <g id="Group" transform="translate(0.000000, 37.714286)" fill="#EAEDF0">
                    <g id="Path">
                        <g transform="translate(181.714286, 0.000000)">
                            <polygon points="3.42857143 0 3.42857143 1.71428571 0 1.71428571 0 0"></polygon>
                            <polygon points="3.42857143 6 3.42857143 7.71428571 1.71428571 7.71428571 1.71428571 6"></polygon>
                            <polygon points="3.42857143 12 3.42857143 13.7142857 0 13.7142857 0 12"></polygon>
                            <polygon points="3.42857143 18 3.42857143 19.7142857 1.71428571 19.7142857 1.71428571 18"></polygon>
                            <polygon points="3.42857143 24 3.42857143 25.7142857 0 25.7142857 0 24"></polygon>
                            <polygon points="3.42857143 30 3.42857143 31.7142857 1.71428571 31.7142857 1.71428571 30"></polygon>
                            <polygon points="3.42857143 36 3.42857143 37.7142857 0 37.7142857 0 36"></polygon>
                            <polygon points="3.42857143 42 3.42857143 43.7142857 1.71428571 43.7142857 1.71428571 42"></polygon>
                            <polygon points="3.42857143 48 3.42857143 49.7142857 0 49.7142857 0 48"></polygon>
                            <polygon points="3.42857143 54 3.42857143 55.7142857 1.71428571 55.7142857 1.71428571 54"></polygon>
                            <polygon points="3.42857143 60 3.42857143 61.7142857 0 61.7142857 0 60"></polygon>
                            <polygon points="3.42857143 66 3.42857143 67.7142857 1.71428571 67.7142857 1.71428571 66"></polygon>
                        </g>
                        <g transform="translate(0.000000, 27.428571)">
                            <polygon points="0 67.7142857 0 66 3.42857143 66 3.42857143 67.7142857"></polygon>
                            <polygon points="0 61.7142857 0 60 1.71428571 60 1.71428571 61.7142857"></polygon>
                            <polygon points="0 55.7142857 0 54 3.42857143 54 3.42857143 55.7142857"></polygon>
                            <polygon points="0 49.7142857 0 48 1.71428571 48 1.71428571 49.7142857"></polygon>
                            <polygon points="0 43.7142857 0 42 3.42857143 42 3.42857143 43.7142857"></polygon>
                            <polygon points="0 37.7142857 0 36 1.71428571 36 1.71428571 37.7142857"></polygon>
                            <polygon points="0 31.7142857 0 30 3.42857143 30 3.42857143 31.7142857"></polygon>
                            <polygon points="0 25.7142857 0 24 1.71428571 24 1.71428571 25.7142857"></polygon>
                            <polygon points="0 19.7142857 0 18 3.42857143 18 3.42857143 19.7142857"></polygon>
                            <polygon points="0 13.7142857 0 12 1.71428571 12 1.71428571 13.7142857"></polygon>
                            <polygon points="0 7.71428571 0 6 3.42857143 6 3.42857143 7.71428571"></polygon>
                            <polygon points="0 1.71428571 0 0 1.71428571 0 1.71428571 1.71428571"></polygon>
                        </g>
                    </g>
                </g>
                <g id="Group" transform="translate(3.428571, 0.000000)">
                    <path d="M175.071429,28.0714286 L175.071429,26.6571429 L175.071429,19.3285714 L175.071429,16.4142857 C175.071429,7.88571429 168.171429,1.02857143 159.685714,1.02857143 L157.8,1.02857143 C149.314286,1.02857143 142.414286,7.92857143 142.414286,16.4142857 L142.414286,28.0714286 L175.071429,28.0714286 Z" id="Path" fill="#C0C9D2"></path>
                    <path d="M162.214286,25.6714286 C162.214286,17.1428571 155.314286,10.2857143 146.828571,10.2857143 L144.942857,10.2857143 C144.514286,10.2857143 144.085714,10.3285714 143.657143,10.3714286 C142.842857,12.2571429 142.414286,14.3142857 142.414286,16.4571429 L142.414286,28.1142857 L162.3,28.1142857 L162.3,25.6714286 L162.214286,25.6714286 Z" id="Path" fill="#9EABB8"></path>
                    <path d="M157.757143,1.02857143 L51.0857143,1.02857143 C42.6,1.02857143 35.7,7.92857143 35.7,16.4142857 L35.7,129.557143 L89.2714286,129.557143 C80.7857143,129.557143 73.8857143,136.457143 73.8857143,144.942857 L73.8857143,147.857143 L73.8857143,145.028571 L73.8857143,147.942857 C73.8857143,156.471429 80.7857143,163.328571 89.2714286,163.328571 L126.985714,163.328571 C135.471429,163.328571 142.371429,156.428571 142.371429,147.942857 L142.371429,36.5142857 L142.328571,36.5142857 L142.328571,16.4142857 C142.371429,7.92857143 149.271429,1.02857143 157.757143,1.02857143 Z" id="Path" fill="#FFFFFF"></path>
                    <path d="M142.371429,36.5142857 L142.371429,25.6714286 L142.371429,16.4142857 C142.371429,14.2285714 142.842857,12.1285714 143.657143,10.2428571 L51.0857143,10.2428571 C42.6,10.2428571 35.7,17.1428571 35.7,25.6285714 L35.7,129.557143 L89.2714286,129.557143 C82.9714286,129.557143 77.5285714,133.371429 75.1714286,138.771429 L74.1857143,151.028571 C75.6428571,158.014286 81.8571429,163.285714 89.2714286,163.285714 L126.985714,163.285714 C135.471429,163.285714 142.371429,156.385714 142.371429,147.9 L142.371429,45.7285714 L142.328571,45.7285714 L142.328571,36.5142857 L142.371429,36.5142857 Z" id="Path" fill="#EAEDF0"></path>
                    <path d="M63.4945588,44.1428571 C61.0789451,41.9142857 57.2232539,41.9142857 54.8076402,44.1428571 L35.5756385,61.8857143 L34.4142857,60.8142857 L34.4142857,75.4285714 C34.7859186,75.5142857 35.2040056,75.5142857 35.5756385,75.5142857 C37.1550782,75.5142857 38.734518,74.9571429 39.8958707,73.8428571 L63.4945588,52.0714286 C65.8637185,49.9714286 65.8637185,46.3714286 63.4945588,44.1428571 Z" id="Path" fill="#D9DFE5"></path>
                    <path d="M142.157143,129.6 L89.2285714,129.6 C80.7428571,129.6 73.8428571,136.5 73.8428571,144.985714 L73.8428571,145.028571 L73.8428571,147.857143 L73.8428571,147.9 C73.8428571,156.428571 80.7428571,163.285714 89.2285714,163.285714 L126.942857,163.285714 C134.614286,163.285714 140.957143,157.671429 142.114286,150.342857 L142.114286,129.6 L142.157143,129.6 Z" id="Path" fill="#DEF4FC"></path>
                    <path d="M139.842857,156.428571 L89.2714286,129.6 C80.7857143,129.6 73.8857143,136.5 73.8857143,144.985714 L73.8857143,145.028571 L73.8857143,147.857143 L73.8857143,147.9 C73.8857143,156.428571 80.7857143,163.285714 89.2714286,163.285714 L126.985714,163.285714 C132.342857,163.328571 137.057143,160.585714 139.842857,156.428571 Z" id="Path" fill="#C0C9D2"></path>
                    <path d="M34.2857143,16.9806051 C34.2857143,7.61397609 42.0381847,0 51.575188,0 L159.428571,0 L159.428571,3.40463261 C151.810602,3.40463261 145.60086,9.4917353 145.562327,16.9806051 L145.562327,36.5603216 C145.590683,36.6824898 145.605659,36.8096592 145.605659,36.9402638 L145.586664,146.84074 C145.586664,156.207369 136.189561,164.678488 126.652558,164.678488 L34.2857143,164.571429 L34.2857143,16.9806051 Z M51.553628,3.42857143 C43.9220936,3.42857143 37.7142857,9.51639349 37.7142857,17.0004239 L37.7386156,161.249917 L126.652558,161.249917 C134.284092,161.249917 142.206186,154.304952 142.206186,146.820922 L142.225181,37.333852 C142.19679,37.2117209 142.181797,37.0845902 142.181797,36.9540252 L142.181819,16.9918291 C142.210362,11.4496932 144.941229,6.52551901 149.142857,3.42857143 L51.553628,3.42857143 Z M159.425787,0 C161.715214,0 161.715214,3.42857143 159.425787,3.42857143 L149.142857,3.42857143 C152.011179,1.27620802 155.572223,0 159.425787,0 Z" id="Path" fill="#7B8A9A"></path>
                    <path d="M73.8428571,147.942857 L73.8428571,145.028571 L73.8428571,147.857143 L73.8428571,144.942857 C73.8428571,136.414286 80.7428571,129.557143 89.2285714,129.557143 L18.3857143,129.557143 C9.9,129.557143 3,136.457143 3,144.942857 L3,147.857143 L3,145.028571 L3,147.942857 C3,156.471429 9.9,163.328571 18.3857143,163.328571 L89.2285714,163.328571 C80.7428571,163.328571 73.8428571,156.471429 73.8428571,147.942857 Z" id="Path" fill="#EAEDF0"></path>
                    <path d="M74.2714286,147.514286 C74.2714286,155.08055 80.3883563,161.142857 87.9428571,161.142857 L87.9428571,164.571429 L17.1,164.571429 C7.65342731,164.571429 0,156.889862 0,147.428571 L0,144 C0,134.567512 7.66751186,126.857143 17.1,126.857143 L87.9428571,126.857143 L87.9428571,130.285714 C80.3883563,130.285714 74.2714286,136.433736 74.2714286,144 L74.2714286,147.514286 Z M87.9428571,161.142857 C90.2285714,161.142857 90.2285714,164.571429 87.9428571,164.571429 C84.0833494,164.571429 80.5231583,163.296355 77.6619444,161.142857 L87.9428571,161.142857 Z M70.8428571,147.514286 L70.8428571,144 C70.8428571,138.40423 73.5200204,133.403141 77.6619444,130.285714 L17.1,130.285714 C9.56105957,130.285714 3.42857143,136.46106 3.42857143,144 L3.42857143,147.428571 C3.42857143,154.994836 9.54549919,161.142857 17.1,161.142857 L77.6619444,161.142857 C73.5200204,158.025431 70.8428571,153.110056 70.8428571,147.514286 Z M87.9428571,126.857143 C90.2285714,126.857143 90.2285714,130.285714 87.9428571,130.285714 L77.6619444,130.285714 C80.5231583,128.132216 84.0833494,126.857143 87.9428571,126.857143 Z M70.8428571,144.085714 C70.8428571,141.8 74.2714286,141.8 74.2714286,144.085714 L74.2714286,147.428571 C74.2714286,149.714286 70.8428571,149.714286 70.8428571,147.428571 L70.8428571,144.085714 Z" id="Path" fill="#7B8A9A"></path>
                    <path d="M34.4142857,145.400316 L34.4142857,130.285892 L18.0757723,130.285892 C10.0682831,130.285892 3.55714286,136.606469 3.55714286,144.379602 L3.55714286,144.41886 L3.55714286,147.009904 L3.55714286,147.049162 C3.55714286,154.351196 9.2594458,160.357707 16.5794233,161.064356 C17.1051676,161.103614 17.5904699,161.142872 18.1162142,161.142872 C27.0943082,161.18213 34.4142857,154.115646 34.4142857,145.400316 Z" id="Path" fill="#F1F3F5"></path>
                    <path d="M178.285714,29.1211573 C178.285714,30.0799157 177.520025,30.8571429 176.575501,30.8571429 L143.995928,30.8571429 C143.051403,30.8571429 142.285714,30.0799157 142.285714,29.1211573 L142.285714,17.3164557 C142.285714,7.76456897 149.935014,0 159.345097,0 L161.226332,0 C170.650466,0 178.285714,7.7354017 178.285714,17.3164557 L178.285714,29.1211573 Z M174.857143,17.5037594 C174.857143,9.95122715 168.758153,3.85714286 161.225806,3.85714286 L159.345622,3.85714286 C151.82879,3.85714286 145.714286,9.97850126 145.714286,17.5037594 L145.714286,27.4285714 L174.857143,27.4285714 L174.857143,17.5037594 Z" id="Path" fill="#7B8A9A"></path>
                </g>
                <g id="Group" transform="translate(58.285714, 24.000000)" fill="#7B8A9A">
                    <polygon id="Path" points="-1.62409768e-13 3.42857143 -1.62409768e-13 0 68.5714286 0 68.5714286 3.42857143"></polygon>
                    <polygon id="Path" points="0 13.7142857 0 10.2857143 68.5714286 10.2857143 68.5714286 13.7142857"></polygon>
                    <polygon id="Path" points="6.09036631e-14 24 0 20.5714286 68.5714286 20.5714286 68.5714286 24"></polygon>
                    <polygon id="Path" points="0 34.2857143 0 30.8571429 68.5714286 30.8571429 68.5714286 34.2857143"></polygon>
                    <polygon id="Path" points="0 44.5714286 0 41.1428571 68.5714286 41.1428571 68.5714286 44.5714286"></polygon>
                    <polygon id="Path" points="0 54.8571429 0 51.4285714 68.5714286 51.4285714 68.5714286 54.8571429"></polygon>
                    <polygon id="Path" points="-1.21807326e-13 65.1428571 0 61.7142857 68.5714286 61.7142857 68.5714286 65.1428571"></polygon>
                </g>
                <g id="Group" transform="translate(24.000000, 30.857143)">
                    <path d="M16.7621062,35.8714286 C15.250669,35.8714286 13.7392318,35.2868616 12.6278809,34.1177276 L2.84799309,24.2250555 C0.536383254,21.8867876 0.536383254,18.1545522 2.84799309,15.8162842 C5.15960293,13.4780163 8.84928787,13.4780163 11.1608977,15.8162842 L16.8065602,21.527054 L35.2105309,2.91084382 C37.5221407,0.57257587 41.2118256,0.57257587 43.5234355,2.91084382 C45.8350453,5.24911177 45.8350453,8.98134715 43.5234355,11.3196151 L20.9407855,34.1626943 C19.7405265,35.2868616 18.2290893,35.8714286 16.7621062,35.8714286 Z" id="Path" fill="#EAEDF0"></path>
                    <path d="M35.9860248,2.98107137 L17.0860248,21.8269855 L11.2881988,16.045751 C8.91428571,13.6786313 5.12515528,13.6786313 2.75124224,16.045751 C2.70559006,16.0912725 2.65993789,16.1367941 2.61428571,16.2278371 C2.65993789,16.2733587 2.70559006,16.3188802 2.75124224,16.4099233 L12.7947205,26.4246603 C13.981677,27.6082201 15.5338509,28.2 17.0403727,28.2 C18.5925466,28.2 20.1447205,27.6082201 21.2860248,26.4246603 L44.4773292,3.29972209 C44.5229814,3.25420056 44.5686335,3.20867903 44.6142857,3.11763596 C44.5686335,3.07211443 44.5229814,3.0265929 44.4773292,2.93554984 C42.1490683,0.613951712 38.3599379,0.613951712 35.9860248,2.98107137 Z" id="Path" fill="#FFFFFF"></path>
                    <path d="M43.3547149,10.3636355 C44.9769998,8.7639796 44.9769998,6.2279692 43.3547149,4.62831333 C41.7324299,3.02865746 39.1605446,3.02865746 37.5382596,4.62831333 L19.0763601,22.8326899 C18.3797591,23.5195741 17.2503457,23.5195741 16.5537447,22.8326899 L10.8903118,17.2482555 C9.26802685,15.6485997 6.69614151,15.6485997 5.07385656,17.2482555 C3.45157162,18.8479114 3.45157162,21.3839218 5.07385656,22.9835777 L14.9090122,32.6820218 C15.6485876,33.4404513 16.680673,33.8571429 17.7704585,33.8571429 C18.810117,33.8571429 19.8770593,33.4416653 20.7271186,32.6756018 L43.3547149,10.3636355 Z M17.5806151,19.3188975 L34.8353728,2.24496184 C37.8603557,-0.748320612 42.7062799,-0.748320612 45.7312628,2.24496184 C48.7562457,5.23824428 48.7562457,10.0333855 45.7312628,13.0266679 L23.0061929,35.5135895 L22.9566295,35.5607835 C21.44385,36.9468263 19.4972782,37.7142857 17.5358807,37.7142857 C15.4865072,37.7142857 13.5151978,36.915594 12.1103029,35.4693239 L2.26873717,25.7308933 C-0.756245722,22.7376108 -0.756245722,17.9424696 2.26873717,14.9491872 C5.29372006,11.9559047 10.1396443,11.9559047 13.1646272,14.9491872 L17.5806151,19.3188975 Z" id="Path" fill="#7B8A9A"></path>
                </g>
                <g id="Group" transform="translate(96.000000, 82.285714)">
                    <g id="Path">
                        <path d="M84.8601752,12.7839126 C69.5175202,12.7839126 55.9568733,8.41659886 47.7857143,1.71428571 C39.6145553,8.41659886 26.0539084,12.7839126 10.7112534,12.7839126 C7.62533693,12.7839126 4.62634771,12.6109497 1.71428571,12.2650238 L1.71428571,40.1985354 C1.71428571,70.8994537 20.7948113,97.1898175 47.7857143,108 C74.7766173,97.2330582 93.8571429,70.9426944 93.8571429,40.1985354 L93.8571429,12.2650238 C90.9450809,12.6109497 87.9460916,12.7839126 84.8601752,12.7839126 Z" fill="#FCEAEA"></path>
                        <path d="M84.9020216,12.7839126 C69.6307278,12.7839126 56.1331536,8.41659886 48,1.71428571 L48,108 C74.8653639,97.2330582 93.8571429,70.9426944 93.8571429,40.1985354 L93.8571429,12.2650238 C90.9586253,12.6109497 87.9735849,12.7839126 84.9020216,12.7839126 Z" fill="#F7C0C0"></path>
                        <path d="M84.8601752,12.7154472 C69.5175202,12.7154472 55.9568733,8.37514518 47.7857143,1.71428571 C39.6145553,8.37514518 26.0539084,12.7154472 10.7112534,12.7154472 C7.62533693,12.7154472 4.62634771,12.543554 1.71428571,12.1997677 L1.71428571,17.0557491 C4.62634771,17.3995354 7.62533693,17.5714286 10.7112534,17.5714286 C26.0539084,17.5714286 39.6145553,13.2311266 47.7857143,6.57026713 C55.9568733,13.2311266 69.5175202,17.5714286 84.8601752,17.5714286 C87.9460916,17.5714286 90.9450809,17.3995354 93.8571429,17.0557491 L93.8571429,12.1997677 C90.9450809,12.543554 87.9460916,12.7154472 84.8601752,12.7154472 Z" fill="#F19696"></path>
                        <path d="M84.9020216,12.7154472 C69.6307278,12.7154472 56.1331536,8.37514518 48,1.71428571 L48,6.57026713 L48,6.57026713 C56.1331536,13.2311266 69.6307278,17.5714286 84.9020216,17.5714286 C87.9735849,17.5714286 90.9586253,17.3995354 93.8571429,17.0557491 L93.8571429,12.1997677 C90.9586253,12.543554 87.9735849,12.7154472 84.9020216,12.7154472 Z" fill="#EC6D6D"></path>
                        <path d="M85.2218182,11.0665316 C88.2516955,11.0665316 91.1935405,10.8975833 94.0476029,10.5599839 C95.0862534,10.4371248 96,11.2406789 96,12.2769335 L96,40.2026342 C96,71.0180199 77.0121322,98.3239182 48.6495947,109.590076 C48.2318884,109.755997 47.7656334,109.755677 47.3481597,109.589182 C18.9863033,98.2780504 0,70.974402 0,40.2026342 L0,12.2769335 C0,11.2406789 0.913746606,10.4371248 1.95239705,10.5599839 C4.80645949,10.8975833 7.74830446,11.0665316 10.7781818,11.0665316 C25.4175789,11.0665316 38.7967828,7.00494634 46.8896488,0.394980582 C47.5344378,-0.131660194 48.4655622,-0.131660194 49.1103512,0.394980582 C57.2032172,7.00494634 70.5824211,11.0665316 85.2218182,11.0665316 Z M92.5714286,14.088676 C90.1922564,14.3058278 87.7597232,14.4143323 85.2739496,14.4143323 C70.4872624,14.4143323 56.8390917,10.4686139 48,3.84201681 C39.1609115,10.468613 25.5127393,14.4143323 10.7260504,14.4143323 C8.24027678,14.4143323 5.80774361,14.3058278 3.42857143,14.088676 L3.42857143,40.0457469 C3.42857143,69.1049685 21.2726161,94.9173394 48.0012931,105.842017 C74.7272631,94.9602695 92.5714286,69.1472432 92.5714286,40.0457469 L92.5714286,14.088676 Z" fill="#E21A1A"></path>
                    </g>
                    <g transform="translate(27.428571, 34.285714)" id="Path">
                        <polygon fill="#F7C0C0" points="37.7142857 17.1428571 27.4285714 17.1428571 27.4285714 6.85714286 13.0198915 7.37142857 13.0198915 16.8428571 3.42857143 16.8428571 3.42857143 30.8571429 13.7142857 30.8571429 13.7142857 41.1428571 27.4285714 41.1428571 27.4285714 30.8571429 37.7142857 30.8571429"></polygon>
                        <polygon fill="#FCEAEA" points="37.7142857 11.9142857 27.8191682 11.9142857 27.8191682 2.44285714 13.0198915 2.44285714 13.0198915 11.9142857 3.42857143 11.9142857 3.42857143 26.5285714 13.0198915 26.5285714 13.0198915 36 27.8191682 36 27.8191682 26.5285714 37.7142857 26.5285714"></polygon>
                        <path d="M28.7142857,12.8571429 L27.4285714,3.42857143 L13.7142857,3.42857143 L13.7142857,3.42857143 C13.7142857,9.10921457 9.10921457,13.7142857 3.42857143,13.7142857 L3.42857143,13.7142857 L3.42857143,24 L12.4285714,25.2857143 L28.7142857,12.8571429 Z" fill="#FFFFFF"></path>
                        <path d="M30.8571429,10.2857143 L39.695713,10.2857143 C40.4949486,10.2857143 41.1428571,10.8866132 41.1428571,11.6278597 L41.1428571,26.086426 C41.1428571,26.8276725 40.4949486,27.4285714 39.695713,27.4285714 L30.8571429,27.4285714 L30.8571429,36.3721403 C30.8571429,37.1133868 30.2092344,37.7142857 29.4099987,37.7142857 L11.7328584,37.7142857 C10.9336228,37.7142857 10.2857143,37.1133868 10.2857143,36.3721403 L10.2857143,27.4285714 L1.44714413,27.4285714 C0.647908496,27.4285714 -1.94891722e-13,26.8276725 -1.94891722e-13,26.086426 L-3.41060513e-13,11.6278597 C-3.41060513e-13,10.8866132 0.647908496,10.2857143 1.44714413,10.2857143 L10.2857143,10.2857143 L10.3385702,1.3421454 C10.3385702,0.600898963 10.9864787,0 11.7857143,0 L29.4099987,0 C30.2092344,0 30.8571429,0.600898963 30.8571429,1.3421454 L30.8571429,10.2857143 Z M37.7142857,13.7142857 L28.8319763,13.7142857 C28.0568972,13.7142857 27.4285714,13.1410403 27.4285714,12.4339063 L27.4285714,3.42857143 L13.7142857,3.42857143 L13.7142857,12.4339063 C13.7142857,13.1410403 13.0859599,13.7142857 12.3108808,13.7142857 L3.42857143,13.7142857 L3.42857143,24 L12.3108808,24 C13.0859599,24 13.7142857,24.5732454 13.7142857,25.2803794 L13.7142857,34.2857143 L27.4285714,34.2857143 L27.4285714,25.2803794 C27.4285714,24.5732454 28.0568972,24 28.8319763,24 L37.7142857,24 L37.7142857,13.7142857 Z" fill="#E21A1A"></path>
                    </g>
                </g>
            </g>
        </g>
    </g>
</svg>