<?xml version="1.0" encoding="UTF-8"?>
<svg width="192px" height="192px" viewBox="0 0 192 192" version="1.1" xmlns="http://www.w3.org/2000/svg" xmlns:xlink="http://www.w3.org/1999/xlink">
    <!-- Generator: Sketch 53.2 (72643) - https://sketchapp.com -->
    <title>Settings</title>
    <desc>Created with Sketch.</desc>
    <g id="Main" stroke="none" stroke-width="1" fill="none" fill-rule="evenodd">
        <g transform="translate(-1016.000000, -288.000000)" id="Settings">
            <g transform="translate(1016.000000, 288.000000)">
                <path d="M190.233129,144.944307 C190.233129,148.108831 187.617679,150.694479 184.416681,150.694479 L7.19068114,150.694479 C3.9896829,150.694479 1.37423313,148.108831 1.37423313,144.944307 L1.37423313,7.63483441 C1.37423313,4.47031031 3.9896829,1.88466258 7.19068114,1.88466258 L184.416681,1.88466258 C187.617679,1.88466258 190.233129,4.47031031 190.233129,7.63483441 L190.233129,144.944307 Z" id="Path" fill="#FFFFFF" fill-rule="nonzero"></path>
                <path d="M182.979669,1.76687117 L8.66566344,1.76687117 C5.51726069,1.76687117 2.94478528,4.4112237 2.94478528,7.64759545 L2.94478528,24.5398773 L188.662577,24.5398773 L188.662152,7.64759545 C188.700548,4.37175575 186.128072,1.76687117 182.979669,1.76687117 Z" id="Path" fill="#D9DFE5" fill-rule="nonzero"></path>
                <path d="M182.979669,6.20368098 L8.66566344,6.20368098 C5.51726069,6.20368098 2.94478528,8.92706684 2.94478528,12.2601659 L2.94478528,24.6576687 L188.662577,24.6576687 L188.662152,12.2601659 C188.700548,8.88641929 186.128072,6.20368098 182.979669,6.20368098 Z" id="Path" fill="#C0C9D2" fill-rule="nonzero"></path>
                <g id="Group" transform="translate(15.705521, 40.834356)" fill-rule="nonzero">
                    <path d="M43.9754601,38.83964 C43.9754601,41.6884152 41.6884152,43.9754601 38.83964,43.9754601 L5.13582016,43.9754601 C2.28704492,43.9754601 0,41.6884152 0,38.83964 L0,5.13582016 C0,2.28704492 2.28704492,0 5.13582016,0 L38.83964,0 C41.6884152,0 43.9754601,2.28704492 43.9754601,5.13582016 L43.9754601,38.83964 Z" id="Path" fill="#F1F3F5"></path>
                    <g transform="translate(7.067485, 7.067485)" fill="#C0C9D2" id="Shape">
                        <path d="M27.602454,18.3361963 C29.5263804,20.2208589 30.0368098,23.1656442 28.9374233,25.7177914 C28.8588957,25.9141104 28.7018405,26.0319018 28.5055215,26.0711656 C28.3092025,26.1104294 28.1128834,26.0711656 27.9558282,25.9141104 L24.6576687,22.6159509 L23.0871166,23.0478528 L22.6552147,24.6184049 L25.9533742,27.9165644 C26.0711656,28.0736196 26.1496933,28.2699387 26.1104294,28.4662577 C26.0711656,28.6625767 25.9533742,28.8196319 25.7570552,28.8981595 C24.8932515,29.2907975 23.9509202,29.4871166 23.008589,29.4871166 C21.2809816,29.4871166 19.6711656,28.8196319 18.4539877,27.602454 C16.8834356,26.0319018 16.2552147,23.7546012 16.7263804,21.595092 L14.8809816,19.7496933 L13.0355828,21.5558282 C13.5067485,23.7546012 12.8785276,25.992638 11.3079755,27.5631902 C10.0907975,28.7803681 8.4809816,29.4478528 6.75337423,29.4478528 C5.81104294,29.4478528 4.86871166,29.2515337 4.00490798,28.8588957 C3.80858896,28.7803681 3.69079755,28.6233129 3.65153374,28.4269939 C3.61226994,28.2306748 3.65153374,28.0343558 3.80858896,27.8773006 L7.10674847,24.5791411 L6.67484663,23.008589 L5.10429448,22.5766871 L1.80613497,25.8748466 C1.64907975,25.992638 1.45276074,26.0711656 1.25644172,26.0319018 C1.0601227,25.992638 0.903067485,25.8748466 0.824539877,25.6785276 C-0.274846626,23.204908 0.235582822,20.2601227 2.1202454,18.3754601 C3.69079755,16.804908 5.96809816,16.1766871 8.12760736,16.6478528 L9.97300613,14.802454 L8.16687117,12.9570552 C6.00736196,13.4282209 3.69079755,12.7607362 2.1595092,11.2294479 C0.235582822,9.30552147 -0.274846626,6.4 0.863803681,3.92638037 C0.942331288,3.73006135 1.0993865,3.61226994 1.29570552,3.57300613 C1.49202454,3.53374233 1.68834356,3.57300613 1.84539877,3.73006135 L5.14355828,7.02822086 L6.71411043,6.59631902 L7.14601227,5.02576687 L3.84785276,1.72760736 C3.73006135,1.57055215 3.65153374,1.37423313 3.69079755,1.17791411 C3.73006135,0.981595092 3.84785276,0.824539877 4.04417178,0.74601227 C4.90797546,0.353374233 5.85030675,0.157055215 6.79263804,0.157055215 C8.5202454,0.157055215 10.1300613,0.824539877 11.3472393,2.04171779 C12.8785276,3.61226994 13.5067485,5.88957055 13.0355828,8.04907975 L14.8809816,9.85521472 L16.6871166,8.04907975 C16.2159509,5.85030675 16.8441718,3.61226994 18.4147239,2.04171779 C19.6319018,0.824539877 21.2417178,0.157055215 22.9693252,0.157055215 C23.9116564,0.157055215 24.8539877,0.353374233 25.7177914,0.74601227 C25.9141104,0.824539877 26.0319018,0.981595092 26.0711656,1.17791411 C26.1104294,1.37423313 26.0711656,1.57055215 25.9141104,1.72760736 L22.6159509,5.02576687 L23.0478528,6.59631902 L24.6184049,7.02822086 L27.9165644,3.73006135 C28.0736196,3.61226994 28.2699387,3.53374233 28.4662577,3.57300613 C28.6625767,3.61226994 28.8196319,3.73006135 28.8981595,3.92638037 C29.997546,6.4 29.4871166,9.34478528 27.602454,11.2294479 C26.0319018,12.8 23.7546012,13.4282209 21.595092,12.9570552 L19.7889571,14.802454 L21.595092,16.608589 C23.7546012,16.1374233 26.0711656,16.7656442 27.602454,18.3361963 Z M10.5226994,26.6208589 C11.6220859,25.5607362 12.1325153,24.0687117 12.0147239,22.5766871 L11.8576687,22.7337423 C11.7398773,22.8515337 11.5828221,22.9300613 11.4257669,22.9300613 C11.2687117,22.9300613 11.1116564,22.8515337 10.993865,22.7337423 C10.7582822,22.4981595 10.7582822,22.1055215 10.993865,21.8699387 L21.9877301,10.8760736 C22.2233129,10.6404908 22.6159509,10.6404908 22.8515337,10.8760736 C23.0871166,11.1116564 23.0871166,11.5042945 22.8515337,11.7398773 L22.6944785,11.8969325 C24.1865031,11.9754601 25.6785276,11.4650307 26.7386503,10.404908 C28.0736196,9.06993865 28.5447853,7.14601227 28.0736196,5.3398773 L25.207362,8.20613497 C25.0503067,8.36319018 24.8147239,8.40245399 24.6184049,8.36319018 L22.3803681,7.77423313 C22.1840491,7.69570552 21.9877301,7.53865031 21.9484663,7.34233129 L21.3595092,5.10429448 C21.3202454,4.90797546 21.3595092,4.67239264 21.5165644,4.51533742 L24.3828221,1.64907975 C22.5766871,1.13865031 20.6134969,1.68834356 19.3177914,2.98404908 C18.2576687,4.04417178 17.7079755,5.53619632 17.8257669,7.02822086 L17.9828221,6.87116564 C18.2184049,6.63558282 18.6110429,6.63558282 18.8466258,6.87116564 C19.0822086,7.10674847 19.0822086,7.4993865 18.8466258,7.73496933 L7.85276074,18.7288344 C7.73496933,18.8466258 7.57791411,18.9251534 7.4208589,18.9251534 C7.26380368,18.9251534 7.10674847,18.8466258 6.98895706,18.7288344 C6.75337423,18.4932515 6.75337423,18.1006135 6.98895706,17.8650307 L7.14601227,17.7079755 C5.65398773,17.6294479 4.16196319,18.1398773 3.10184049,19.2 C1.76687117,20.5349693 1.29570552,22.4588957 1.76687117,24.2650307 L4.63312883,21.398773 C4.79018405,21.2417178 5.02576687,21.202454 5.22208589,21.2417178 L7.4601227,21.8306748 C7.65644172,21.8699387 7.85276074,22.0662577 7.89202454,22.2625767 L8.4809816,24.5006135 C8.5202454,24.6969325 8.4809816,24.9325153 8.32392638,25.0895706 L5.45766871,27.9558282 C7.22453988,28.4662577 9.22699387,27.9165644 10.5226994,26.6208589 Z M17.1582822,13.1533742 C17.001227,13.1533742 16.8441718,13.1141104 16.7263804,12.9570552 C16.4907975,12.7214724 16.4907975,12.3288344 16.7263804,12.0932515 L17.3546012,11.4650307 C17.590184,11.2294479 17.9828221,11.2294479 18.2184049,11.4650307 C18.4539877,11.7006135 18.4539877,12.0932515 18.2184049,12.3288344 L17.590184,12.9570552 C17.4723926,13.0748466 17.3153374,13.1533742 17.1582822,13.1533742 Z M14.606135,15.7055215 C14.4490798,15.7055215 14.2920245,15.6269939 14.1742331,15.5092025 C13.9386503,15.2736196 13.9386503,14.8809816 14.1742331,14.6453988 L14.802454,14.0171779 C15.0380368,13.7815951 15.4306748,13.7815951 15.6662577,14.0171779 C15.9018405,14.2527607 15.9018405,14.6453988 15.6662577,14.8809816 L15.0380368,15.5092025 C14.9202454,15.6269939 14.7631902,15.7055215 14.606135,15.7055215 Z M12.0932515,18.2184049 C11.9361963,18.2184049 11.7791411,18.1791411 11.6613497,18.0220859 C11.4257669,17.7865031 11.4257669,17.393865 11.6613497,17.1582822 L12.2895706,16.5300613 C12.5251534,16.2944785 12.9177914,16.2944785 13.1533742,16.5300613 C13.3889571,16.7656442 13.3889571,17.1582822 13.1533742,17.393865 L12.5251534,18.0220859 C12.407362,18.1791411 12.2503067,18.2184049 12.0932515,18.2184049 Z"></path>
                    </g>
                    <g transform="translate(56.539877, 0.000000)" fill="#F1F3F5" id="Rectangle">
                        <rect x="0" y="0" width="103.656442" height="6.28220859"></rect>
                        <rect x="0" y="12.5644172" width="103.656442" height="6.28220859"></rect>
                        <rect x="0" y="25.1288344" width="103.656442" height="6.28220859"></rect>
                        <rect x="0" y="37.6932515" width="103.656442" height="6.28220859"></rect>
                    </g>
                </g>
                <path d="M188.466258,143.460955 L188.466258,7.31205158 C188.466258,5.01961438 186.554137,3.14110429 184.220684,3.14110429 L7.38667843,3.14110429 C5.0532248,3.14110429 3.14110429,5.01961438 3.14110429,7.31205158 L3.14110429,143.460955 C3.14110429,145.753392 5.0532248,147.631902 7.38667843,147.631902 L184.220684,147.631902 C186.554137,147.631902 188.466258,145.753392 188.466258,143.460955 Z M191.607362,143.533144 C191.607362,147.520484 188.299287,150.773006 184.243842,150.773006 L7.36352001,150.773006 C3.30807539,150.773006 0,147.520484 0,143.533144 L0,7.23986234 C0,3.25252195 3.30807539,0 7.36352001,0 L184.243842,0 C188.299287,0 191.607362,3.25252195 191.607362,7.23986234 L191.607362,143.533144 Z" id="Path" fill="#7B8A9A" fill-rule="nonzero"></path>
                <path d="M184.147783,-5.68434189e-14 C188.235032,-5.68434189e-14 191.656597,3.72907705 191.607362,7.8473414 L191.607887,26.3067485 L0,26.3067485 L0,7.84738213 C0,3.74169602 3.31551901,0.392638037 7.38008894,0.392638037 L184.147783,-5.68434189e-14 Z M188.466518,23.1656442 L188.466258,7.8473414 C188.494536,5.4726044 186.109851,3.14110429 183.754601,3.14110429 L7.06748466,3.14110429 C4.72860109,3.14110429 3.14110429,5.45385678 3.14110429,7.82029531 L3.14110429,23.1656442 L188.466518,23.1656442 Z" id="Path" fill="#7B8A9A" fill-rule="nonzero"></path>
                <g id="Group" transform="translate(10.601227, 9.030675)" fill-rule="nonzero">
                    <path d="M4.00490798,7.4993865 C2.24843918,7.4993865 0.824539877,6.0754872 0.824539877,4.3190184 C0.824539877,2.56254961 2.24843918,1.13865031 4.00490798,1.13865031 C5.76137677,1.13865031 7.18527607,2.56254961 7.18527607,4.3190184 C7.18527607,6.0754872 5.76137677,7.4993865 4.00490798,7.4993865 Z M16.6871166,7.4993865 C14.9306478,7.4993865 13.5067485,6.0754872 13.5067485,4.3190184 C13.5067485,2.56254961 14.9306478,1.13865031 16.6871166,1.13865031 C18.4435854,1.13865031 19.8674847,2.56254961 19.8674847,4.3190184 C19.8674847,6.0754872 18.4435854,7.4993865 16.6871166,7.4993865 Z M29.3693252,7.4993865 C27.6128564,7.4993865 26.1889571,6.0754872 26.1889571,4.3190184 C26.1889571,2.56254961 27.6128564,1.13865031 29.3693252,1.13865031 C31.125794,1.13865031 32.5496933,2.56254961 32.5496933,4.3190184 C32.5496933,6.0754872 31.125794,7.4993865 29.3693252,7.4993865 Z" id="Shape" fill="#F1F3F5"></path>
                    <path d="M4.00490798,8.28466258 C1.81474318,8.28466258 0.0392638037,6.5091832 0.0392638037,4.3190184 C0.0392638037,2.12885361 1.81474318,0.353374233 4.00490798,0.353374233 C6.19507277,0.353374233 7.97055215,2.12885361 7.97055215,4.3190184 C7.97055215,6.5091832 6.19507277,8.28466258 4.00490798,8.28466258 Z M4.00490798,6.71411043 C5.32768077,6.71411043 6.4,5.6417912 6.4,4.3190184 C6.4,2.99624561 5.32768077,1.92392638 4.00490798,1.92392638 C2.68213518,1.92392638 1.60981595,2.99624561 1.60981595,4.3190184 C1.60981595,5.6417912 2.68213518,6.71411043 4.00490798,6.71411043 Z M16.6871166,8.28466258 C14.4969518,8.28466258 12.7214724,6.5091832 12.7214724,4.3190184 C12.7214724,2.12885361 14.4969518,0.353374233 16.6871166,0.353374233 C18.8772814,0.353374233 20.6527607,2.12885361 20.6527607,4.3190184 C20.6527607,6.5091832 18.8772814,8.28466258 16.6871166,8.28466258 Z M16.6871166,6.71411043 C18.0098894,6.71411043 19.0822086,5.6417912 19.0822086,4.3190184 C19.0822086,2.99624561 18.0098894,1.92392638 16.6871166,1.92392638 C15.3643438,1.92392638 14.2920245,2.99624561 14.2920245,4.3190184 C14.2920245,5.6417912 15.3643438,6.71411043 16.6871166,6.71411043 Z M29.3693252,8.28466258 C27.1791604,8.28466258 25.403681,6.5091832 25.403681,4.3190184 C25.403681,2.12885361 27.1791604,0.353374233 29.3693252,0.353374233 C31.55949,0.353374233 33.3349693,2.12885361 33.3349693,4.3190184 C33.3349693,6.5091832 31.55949,8.28466258 29.3693252,8.28466258 Z M29.3693252,6.71411043 C30.692098,6.71411043 31.7644172,5.6417912 31.7644172,4.3190184 C31.7644172,2.99624561 30.692098,1.92392638 29.3693252,1.92392638 C28.0465524,1.92392638 26.9742331,2.99624561 26.9742331,4.3190184 C26.9742331,5.6417912 28.0465524,6.71411043 29.3693252,6.71411043 Z" id="Shape" fill="#7B8A9A"></path>
                </g>
                <g id="Group" transform="translate(54.000000, 108.000000)">
                    <g fill-rule="nonzero" id="Path">
                        <path d="M79.2500818,31.557377 C81.9399826,31.557377 84.0846722,33.7082467 83.9974296,36.3968818 L83.9974296,47.6229508 C83.9974296,50.2840426 81.8369477,52.442623 79.1735116,52.442623 L71.8749513,52.442623 C71.4681422,53.5752357 71.0090618,54.675291 70.5002374,55.7333496 L75.6594483,60.8880195 C77.5646348,62.7915291 77.5646348,65.8597985 75.6594483,67.7130734 L67.7169299,75.6486009 C66.8596035,76.5905458 65.6104141,77.1147541 64.3189069,77.1147541 C63.036272,77.1147541 61.8221757,76.5873508 60.9033738,75.6693575 L55.7545927,70.5251083 C54.6902382,71.0540563 53.5854659,71.5145231 52.4505372,71.9036054 L52.4505372,79.1803279 C52.4505372,81.8414197 50.2900553,84 47.6266192,84 L36.3708105,84 C33.7073744,84 31.5468924,81.8414197 31.5468924,79.1803279 L31.5468924,71.8881915 C30.4132783,71.4817392 29.3122507,71.0230613 28.2532569,70.5146829 L23.083156,75.6801035 C21.1805508,77.5310097 18.1262817,77.5310097 16.2629895,75.6693575 L8.2996963,67.7130734 C7.39204137,66.8062173 6.89131146,65.5949909 6.89131146,64.3005464 C6.89131146,63.031807 7.40071264,61.7862119 8.2996963,60.8880195 L13.4484774,55.7437703 C12.9190633,54.6803526 12.4581909,53.5765527 12.0687658,52.442623 L4.78563296,52.442623 C2.15269636,52.442623 0,50.2762358 0,47.6229508 L0,36.3770492 C0,35.1083097 0.509401182,33.8627147 1.40838485,32.9645223 C2.30736851,32.0663299 3.55406088,31.557377 4.82391802,31.557377 L12.1025349,31.557377 C12.483121,30.4353795 12.9418688,29.3369808 13.4911193,28.2223165 L8.34888124,23.0844751 C6.43097824,21.2186869 6.43097824,18.1419688 8.33798137,16.2869266 L16.3012746,8.33064249 C17.2089295,7.42378645 18.421223,6.92349727 19.7168078,6.92349727 C21.0123925,6.92349727 22.224686,7.42378645 23.1296383,8.32795119 L28.3167746,13.4762002 C29.3819399,12.946703 30.4875982,12.4857977 31.6234626,12.0963946 L31.6234626,4.81967213 C31.6234626,2.15858034 33.7839445,0 36.4473806,0 L47.7031893,0 C50.3666254,0 52.5271073,2.15858034 52.5271073,4.81967213 L52.5271073,12.0993562 C53.5669638,12.4631564 54.6255858,12.9140322 55.8181529,13.4878902 L60.9799439,8.33064249 C61.8875988,7.42378645 63.0998923,6.92349727 64.3954771,6.92349727 C65.6594209,6.92349727 66.8697543,7.42846636 67.7727252,8.33064249 L75.7251185,16.2761806 C77.6430215,18.1419688 77.6430215,21.2186869 75.7360184,23.0737291 L70.5820917,28.2231194 C71.1173122,29.3154408 71.5790083,30.4269314 71.9670015,31.557377 L79.2500818,31.557377 Z" fill="#F7C0C0"></path>
                        <path d="M42.5457483,1.55555556 L36.9306875,1.55555556 C34.9062098,1.55555556 33.263709,3.24647545 33.263709,5.33063253 L33.263709,10.6000108 L33.263709,13.7065846 C31.6594059,14.2177929 30.0933005,14.8862961 28.6035905,15.7120942 L22.835739,9.81353643 C22.1481805,9.1057095 21.2314359,8.71247232 20.2382959,8.71247232 C19.2451559,8.71247232 18.3284112,9.1057095 17.6408528,9.81353643 L8.70259271,18.9270918 C8.39701117,19.2416815 8.12962732,19.6349187 7.93863886,20.0281559 C8.12962732,20.4213931 8.35881348,20.8146303 8.70259271,21.12922 L14.4322466,27.0277778 C14.0884674,27.7356047 13.7828858,28.4041079 13.4773043,29.1512586 L15.4253866,29.2001296 C14.6232351,30.7730784 13.9356766,31.7535246 13.4391066,33.4444444 L5.34119577,33.4444444 C4.38625345,33.4444444 3.43131114,33.8376816 2.74375267,34.5455086 C2.05619421,35.2533355 1.67421728,36.2364285 1.67421728,37.2195214 L1.71241497,46.2666235 C1.71241497,48.3507805 3.35491575,50.0417004 5.34119577,50.0417004 L13.4391066,50.0417004 C13.9356766,51.6932966 14.5850374,53.3055691 15.3871889,54.8391941 L14.4322466,55.822287 C14.7378281,56.530114 14.0884674,56.303719 14.4322466,56.9722222 L8.70259271,62.87078 C8.39701117,63.1853697 8.12962732,63.5786069 7.93863886,64.0111678 C8.12962732,64.4437287 8.35881348,64.7976422 8.70259271,65.1122319 L17.6026551,74.2257873 C19.0159697,75.6807649 21.3460289,75.6807649 22.7975413,74.2257873 L28.5271951,68.3272295 C30.0169052,69.1137039 31.5830105,69.7822071 33.1873136,70.3327392 L33.1873136,73.4393129 L33.1873136,78.6693675 C33.1873136,80.7535246 34.8298144,82.4444444 36.8542921,82.4444444 L42.4693529,82.4444444 L42.4693529,1.55555556 L42.5457483,1.55555556 Z" fill="#F19696"></path>
                    </g>
                    <path d="M61.0944444,42.292623 C61.0944444,52.5745902 52.633771,60.9388889 42.2333333,60.9388889 C31.7916241,60.9388889 23.3722222,52.5745902 23.3722222,42.292623 C23.3722222,31.9698543 31.8328957,23.6055556 42.2333333,23.6055556 C52.633771,23.646357 61.0944444,32.0106557 61.0944444,42.292623 Z" id="Path" fill="#EC6D6D" fill-rule="nonzero"></path>
                    <path d="M42.251609,23.1777778 C31.8213115,23.1777778 23.4111111,31.3588792 23.4111111,41.4555556 L61.1333333,41.4555556 C61.0921069,31.3588792 52.64068,23.1777778 42.251609,23.1777778 Z" id="Path" fill="#E74343" fill-rule="nonzero"></path>
                    <path d="M42.5444444,23.6444444 C42.5444444,23.6444444 42.5444444,23.6444444 42.5444444,23.6444444 L42.5444444,41.4555556 L60.3166667,41.4555556 C60.3166667,31.6166667 52.3444444,23.6444444 42.5444444,23.6444444 Z" id="Path" fill="#FCEAEA" fill-rule="nonzero"></path>
                    <path d="M79.2500818,31.557377 C81.9399826,31.557377 84.0846722,33.7082467 83.9974296,36.3968818 L83.9974296,47.6229508 C83.9974296,50.2840426 81.8369477,52.442623 79.1735116,52.442623 L71.8749513,52.442623 C71.4681422,53.5752357 71.0090618,54.675291 70.5002374,55.7333496 L75.6594483,60.8880195 C77.5646348,62.7915291 77.5646348,65.8597985 75.6594483,67.7130734 L67.7169299,75.6486009 C66.8596035,76.5905458 65.6104141,77.1147541 64.3189069,77.1147541 C63.036272,77.1147541 61.8221757,76.5873508 60.9033738,75.6693575 L55.7545927,70.5251083 C54.6902382,71.0540563 53.5854659,71.5145231 52.4505372,71.9036054 L52.4505372,79.1803279 C52.4505372,81.8414197 50.2900553,84 47.6266192,84 L36.3708105,84 C33.7073744,84 31.5468924,81.8414197 31.5468924,79.1803279 L31.5468924,71.8881915 C30.4132783,71.4817392 29.3122507,71.0230613 28.2532569,70.5146829 L23.083156,75.6801035 C21.1805508,77.5310097 18.1262817,77.5310097 16.2629895,75.6693575 L8.2996963,67.7130734 C7.39204137,66.8062173 6.89131146,65.5949909 6.89131146,64.3005464 C6.89131146,63.031807 7.40071264,61.7862119 8.2996963,60.8880195 L13.4484774,55.7437703 C12.9190633,54.6803526 12.4581909,53.5765527 12.0687658,52.442623 L4.78563296,52.442623 C2.15269636,52.442623 0,50.2762358 0,47.6229508 L0,36.3770492 C0,35.1083097 0.509401182,33.8627147 1.40838485,32.9645223 C2.30736851,32.0663299 3.55406088,31.557377 4.82391802,31.557377 L12.1025349,31.557377 C12.483121,30.4353795 12.9418688,29.3369808 13.4911193,28.2223165 L8.34888124,23.0844751 C6.43097824,21.2186869 6.43097824,18.1419688 8.33798137,16.2869266 L16.3012746,8.33064249 C17.2089295,7.42378645 18.421223,6.92349727 19.7168078,6.92349727 C21.0123925,6.92349727 22.224686,7.42378645 23.1296383,8.32795119 L28.3167746,13.4762002 C29.3819399,12.946703 30.4875982,12.4857977 31.6234626,12.0963946 L31.6234626,4.81967213 C31.6234626,2.15858034 33.7839445,0 36.4473806,0 L47.7031893,0 C50.3666254,0 52.5271073,2.15858034 52.5271073,4.81967213 L52.5271073,12.0993562 C53.5669638,12.4631564 54.6255858,12.9140322 55.8181529,13.4878902 L60.9799439,8.33064249 C61.8875988,7.42378645 63.0998923,6.92349727 64.3954771,6.92349727 C65.6594209,6.92349727 66.8697543,7.42846636 67.7727252,8.33064249 L75.7251185,16.2761806 C77.6430215,18.1419688 77.6430215,21.2186869 75.7360184,23.0737291 L70.5820917,28.2231194 C71.1173122,29.3154408 71.5790083,30.4269314 71.9670015,31.557377 L79.2500818,31.557377 Z M79.2161369,33.8603083 L71.1071049,33.8603083 C70.6040537,33.8603083 70.159654,33.5329651 70.01091,33.0528551 C69.5345447,31.5152626 68.9112129,30.0133337 68.1403491,28.5463895 C67.9068645,28.1020713 67.9897614,27.5576818 68.3449389,27.2028352 L74.0933515,21.4599222 C75.0842089,20.4960388 75.0842089,18.907622 74.0824616,17.933003 L66.1264302,9.98438382 C65.6530156,9.51141031 65.0268078,9.25016057 64.3750783,9.25016057 C63.6885264,9.25016057 63.0613211,9.50898225 62.5854762,9.98438382 L56.8479536,15.7165611 C56.4986988,16.0654905 55.965142,16.1519942 55.5233657,15.9313118 C53.7959864,15.0684268 52.4101074,14.478695 51.0307285,14.0521421 C50.5501708,13.9035367 50.2225224,13.459551 50.2225224,12.9569685 L50.2225224,4.85549133 C50.2225224,3.46328085 49.0915212,2.33333333 47.6980124,2.33333333 L36.452468,2.33333333 C35.0589593,2.33333333 33.9279581,3.46328085 33.9279581,4.85549133 L33.9279581,12.9569685 C33.9279581,13.459551 33.6003097,13.9035367 33.119752,14.0521421 C31.5649173,14.5329521 30.0673368,15.1571276 28.6579668,15.9153121 C28.2130316,16.1546694 27.6637399,16.0750566 27.3052271,15.7192498 L21.5267541,9.98438382 C21.0509092,9.50898225 20.4237039,9.25016057 19.737152,9.25016057 C19.0506002,9.25016057 18.4233949,9.50898225 17.94755,9.98438382 L9.98062867,17.9437386 C8.98977123,18.907622 8.98977123,20.4960388 9.9915186,21.4706579 L15.7290413,27.2028352 C16.0842188,27.5576818 16.1671157,28.1020713 15.9336311,28.5463895 C15.1339161,30.068237 14.5249537,31.5265959 14.0652798,33.0456392 C13.9188942,33.5293864 13.4727179,33.8603083 12.9668753,33.8603083 L4.8578433,33.8603083 C4.19390323,33.8603083 3.53317369,34.1300323 3.06824127,34.5945315 C2.60330885,35.0590308 2.33333333,35.7191448 2.33333333,36.3824663 L2.33333333,47.6175337 C2.33333333,49.0056361 3.46028025,50.1396917 4.81959315,50.1396917 L12.9286252,50.1396917 C13.4316763,50.1396917 13.876076,50.4670349 14.0248201,50.9471449 C14.5060784,52.5005309 15.1308359,53.9967162 15.8897274,55.4047732 C16.1299763,55.850534 16.0491156,56.4009596 15.6907911,56.7589503 L9.95326845,62.4911276 C9.48833603,62.9556268 9.21836052,63.6157408 9.21836052,64.2790623 C9.21836052,64.9649746 9.47742356,65.5915955 9.95326845,66.066997 L17.9092999,74.0156162 C18.878218,74.9836316 20.4932526,74.9836316 21.4885039,74.0156162 L27.2260266,68.2834389 C27.5783313,67.9314624 28.1177228,67.8468322 28.5610602,68.0739729 C29.9792601,68.8005773 31.4908457,69.43059 33.066826,69.9554273 C33.5354005,70.1114733 33.8514578,70.5495708 33.8514578,71.0430315 L33.8514578,79.1445087 C33.8514578,80.5367192 34.982459,81.6666667 36.3759677,81.6666667 L47.6215121,81.6666667 C49.0150209,81.6666667 50.1460221,80.5367192 50.1460221,79.1445087 L50.1460221,71.0430315 C50.1460221,70.540449 50.4736705,70.0964633 50.9542282,69.9478579 C52.5090628,69.4670479 54.0066434,68.8428724 55.4160134,68.0846879 C55.8621898,67.8446629 56.4131287,67.9254482 56.7714533,68.2834389 L62.5089759,74.0156162 C63.0062674,74.5124444 63.6407606,74.7880539 64.298578,74.7880539 C64.9630996,74.7880539 65.5957411,74.5201188 66.0061703,74.0618312 L66.0499299,74.0156162 L74.0168512,66.0562614 C75.0095236,65.0906124 75.0095236,63.4937549 74.0059613,62.4911276 L68.2684386,56.7589503 C67.9161339,56.4069738 67.8314248,55.8680848 68.0587773,55.4251604 C68.7860593,54.0082818 69.4166594,52.4981045 69.9419862,50.9235924 C70.0981777,50.4554545 70.5366837,50.1396917 71.0306046,50.1396917 L79.1396366,50.1396917 C80.5331453,50.1396917 81.6641465,49.0097442 81.6641465,47.6175337 L81.6641465,36.3824663 L81.6649328,36.3400348 C81.7161722,34.9578602 80.6255574,33.8603083 79.2161369,33.8603083 Z" id="Path" fill="#E21A1A" fill-rule="nonzero"></path>
                    <path d="M42.5444444,41.4166667 L42.5444444,41.4166667" id="Path" stroke="#2481D7" stroke-width="6" stroke-linecap="round" stroke-linejoin="round"></path>
                    <path d="M59.8888889,42.2151397 C59.8888889,32.4756794 51.9545962,24.5386952 42.1944444,24.5 C32.4324189,24.5 24.5,32.4351097 24.5,42.2151397 C24.5,51.9744967 32.4116904,59.8888889 42.1944444,59.8888889 C51.9504839,59.8888889 59.8888889,51.9597686 59.8888889,42.2151397 Z M62.2222222,42.0207358 C62.2222222,53.1613596 53.152059,62.2222222 42,62.2222222 C30.8203277,62.2222222 21.7777778,53.1752785 21.7777778,42.0207358 C21.7777778,30.8454735 30.8411001,21.777768 42.0049433,21.7777778 C53.1608287,21.8220018 62.2222222,30.8877777 62.2222222,42.0207358 Z" id="Path" fill="#E21A1A" fill-rule="nonzero"></path>
                </g>
                <g id="Group" transform="translate(141.349693, 100.515337)">
                    <g transform="translate(0.785276, 0.392638)" fill-rule="nonzero" id="Path">
                        <path d="M22.2625767,35.0233129 L22.2625767,31.4110429 C22.9693252,31.1754601 23.6760736,30.9006135 24.3435583,30.5472393 L26.8957055,33.0993865 C27.5239264,33.7276074 28.5447853,33.7276074 29.2122699,33.0993865 L32.7460123,29.5656442 C33.0601227,29.2515337 33.2171779,28.8588957 33.2171779,28.4269939 C33.2171779,27.995092 33.0601227,27.5631902 32.7460123,27.2883436 L30.193865,24.7361963 C30.5472393,24.0687117 30.8220859,23.3619632 31.0576687,22.6552147 L34.6699387,22.6552147 C35.5730061,22.6552147 36.2797546,21.9092025 36.2797546,21.006135 L36.2797546,16.0196319 C36.2797546,15.1165644 35.5337423,14.3705521 34.6699387,14.3705521 L31.0576687,14.3705521 C30.8220859,13.6638037 30.5472393,12.9570552 30.193865,12.2895706 L32.7460123,9.73742331 C33.0601227,9.42331288 33.2171779,9.03067485 33.2171779,8.59877301 C33.2171779,8.16687117 33.0601227,7.73496933 32.7460123,7.4601227 L29.2122699,3.92638037 C28.5840491,3.29815951 27.5631902,3.29815951 26.8957055,3.92638037 L24.3435583,6.47852761 C23.6760736,6.12515337 22.9693252,5.85030675 22.2625767,5.61472393 L22.2625767,2.04171779 C22.2625767,1.60981595 22.1055215,1.21717791 21.791411,0.903067485 C21.4773006,0.588957055 21.0846626,0.43190184 20.6527607,0.43190184 L15.6269939,0.43190184 C14.7239264,0.43190184 13.9779141,1.17791411 13.9779141,2.04171779 L13.9779141,5.65398773 C13.2711656,5.88957055 12.5644172,6.16441718 11.8969325,6.51779141 L9.34478528,3.96564417 C9.03067485,3.65153374 8.63803681,3.49447853 8.20613497,3.49447853 C7.77423313,3.49447853 7.34233129,3.69079755 7.06748466,3.96564417 L3.53374233,7.4993865 C2.90552147,8.12760736 2.90552147,9.14846626 3.53374233,9.81595092 L6.08588957,12.3680982 C5.73251534,13.0355828 5.45766871,13.7030675 5.22208589,14.4490798 L1.60981595,14.4490798 C0.706748466,14.4490798 -1.56319402e-13,15.195092 -1.56319402e-13,16.0981595 L-1.56319402e-13,21.0846626 C-1.56319402e-13,21.9877301 0.74601227,22.7337423 1.60981595,22.7337423 L5.22208589,22.7337423 C5.45766871,23.4404908 5.73251534,24.1472393 6.08588957,24.8147239 L3.53374233,27.3668712 C3.2196319,27.6809816 3.06257669,28.0736196 3.06257669,28.5055215 C3.06257669,28.9374233 3.25889571,29.3693252 3.53374233,29.6441718 L7.06748466,33.1779141 C7.69570552,33.806135 8.71656442,33.806135 9.38404908,33.1779141 L11.9361963,30.6257669 C12.603681,30.9791411 13.3104294,31.2539877 14.0171779,31.4895706 L14.0171779,35.1018405 C14.0171779,36.004908 14.7631902,36.7116564 15.6662577,36.7116564 L20.6134969,36.7116564 C21.5165644,36.6723926 22.2625767,35.9263804 22.2625767,35.0233129 Z" fill="#EAEDF0"></path>
                        <path d="M35.4944785,18.4539877 L35.4944785,15.9411043 C35.4944785,15.0380368 34.7484663,14.2920245 33.8846626,14.2920245 L31.607362,14.2920245 L30.2723926,14.2920245 C30.0368098,13.5852761 29.7619632,12.8785276 29.408589,12.2110429 L31.9607362,9.65889571 C32.2748466,9.34478528 32.4319018,8.95214724 32.4319018,8.5202454 C32.4319018,8.08834356 32.2748466,7.65644172 31.9607362,7.38159509 L28.4269939,3.84785276 C28.2699387,3.69079755 28.1128834,3.61226994 27.9558282,3.53374233 C27.798773,3.61226994 27.602454,3.73006135 27.4846626,3.84785276 L24.9325153,6.4 C24.6184049,6.24294479 24.3435583,6.08588957 24.0294479,5.96809816 L23.597546,6.4 C22.9300613,6.04662577 22.2233129,5.77177914 21.5165644,5.53619632 L21.5165644,1.96319018 C21.5165644,1.53128834 21.3595092,1.13865031 21.0453988,0.824539877 C20.7312883,0.510429448 20.3386503,0.353374233 19.9067485,0.353374233 L16.2552147,0.353374233 C15.3521472,0.353374233 14.606135,1.0993865 14.606135,1.96319018 L14.606135,5.57546012 C13.8993865,5.81104294 13.192638,6.08588957 12.5251534,6.4392638 L12.0932515,6.00736196 C11.7791411,6.12515337 11.4650307,6.28220859 11.190184,6.4392638 L8.63803681,3.88711656 C8.4809816,3.73006135 8.32392638,3.65153374 8.16687117,3.53374233 C7.97055215,3.61226994 7.81349693,3.73006135 7.69570552,3.88711656 L4.16196319,7.4208589 C3.53374233,8.04907975 3.53374233,9.06993865 4.16196319,9.73742331 L6.71411043,12.2895706 C6.3607362,12.9570552 6.08588957,13.6245399 5.85030675,14.3705521 L4.51533742,14.3705521 L2.23803681,14.3705521 C1.33496933,14.3705521 0.628220859,15.1165644 0.628220859,16.0196319 L0.628220859,18.5325153 L35.4944785,18.5325153 L35.4944785,18.4539877 Z" fill="#D9DFE5"></path>
                    </g>
                    <path d="M18.7680982,26.6208589 C14.4883436,26.6208589 10.993865,23.1263804 10.993865,18.8466258 C10.993865,14.5668712 14.4883436,11.0723926 18.7680982,11.0723926 C23.0478528,11.0723926 26.5423313,14.5668712 26.5423313,18.8466258 C26.5423313,23.1263804 23.0478528,26.6208589 18.7680982,26.6208589 Z" id="Path" fill="#9EABB8" fill-rule="nonzero"></path>
                    <path d="M26.6208589,18.8466258 C26.6208589,14.5668712 23.1263804,11.0723926 18.8466258,11.0723926 L18.8466258,26.6208589 C23.1263804,26.6208589 26.6208589,23.1263804 26.6208589,18.8466258 Z" id="Path" fill="#C0C9D2" fill-rule="nonzero"></path>
                    <path d="M26.6208589,18.8466258 L18.8466258,18.8466258 L18.8466258,26.6208589 C23.1263804,26.6208589 26.6208589,23.1263804 26.6208589,18.8466258 Z" id="Path" fill="#F1F3F5" fill-rule="nonzero"></path>
                    <g id="Path">
                        <path d="M23.7342362,32.1882467 L23.7342362,35.2298959 C23.7342362,36.5465712 22.6632109,37.6351543 21.3099814,37.6932515 L16.3832701,37.6932515 C15.050158,37.6932515 13.9590154,36.637884 13.9590154,35.3080977 L13.9590154,32.2664484 C13.5543307,32.1188463 13.1793595,31.9656202 12.8245231,31.8006213 L10.6630961,33.9616196 C9.69434412,34.8733862 8.19546849,34.8733862 7.26720667,33.9451244 L3.74812717,30.4260449 C3.31849678,29.9964145 3.0498689,29.3643489 3.0498689,28.7391493 C3.0498689,28.0976915 3.29138515,27.5089957 3.74812717,27.0522536 L5.89260522,24.9077756 C5.72761581,24.552955 5.57439782,24.1780013 5.4268031,23.7733371 L2.38515388,23.7733371 C1.08402875,23.7733371 0,22.6712412 0,21.3490823 L0,16.3832701 C0,15.050158 1.05536749,13.9590154 2.38515388,13.9590154 L5.42094315,13.9590154 C5.56248015,13.5654493 5.71751746,13.1905546 5.89107466,12.8229672 L3.73163191,10.6630961 C2.81986535,9.69434412 2.81986535,8.19546849 3.74812717,7.26720667 L7.26720667,3.74812717 C7.69683706,3.31849678 8.32890266,3.0498689 8.95410228,3.0498689 C9.59556001,3.0498689 10.1842559,3.29138515 10.6409979,3.74812717 L12.7854759,5.89260522 C13.1402965,5.72761581 13.5152502,5.57439782 13.9199145,5.4268031 L13.9199145,2.38515388 C13.9199145,1.08402875 15.0220104,0 16.3441692,0 L21.3490823,0 C21.99054,0 22.5792359,0.241516253 23.0359779,0.698258272 C23.4927199,1.15500029 23.7342362,1.74369616 23.7342362,2.38515388 L23.7342362,5.38770221 C24.1389209,5.53530439 24.513892,5.68853041 24.8687285,5.85352934 L27.0301554,3.69253102 C27.9989074,2.78076447 29.497783,2.78076447 30.4260449,3.70902629 L33.9290354,7.2120168 C34.3960059,7.63306575 34.6433826,8.26150299 34.6433826,8.9150014 C34.6433826,9.55645913 34.4018664,10.145155 33.9451244,10.601897 L31.8006463,12.7463751 C31.9656357,13.1011956 32.1188537,13.4761494 32.2664484,13.8808136 L35.3080977,13.8808136 C36.6092228,13.8808136 37.6932515,14.9829095 37.6932515,16.3050684 L37.6932515,21.2708805 C37.6932515,22.6039926 36.637884,23.6951353 35.3080977,23.6951353 L32.2664484,23.6951353 C32.1188537,24.0997995 31.9656357,24.4747533 31.8006463,24.8295738 L33.9290354,26.9579629 C34.3960059,27.3790118 34.6433826,28.0074491 34.6433826,28.6609475 C34.6433826,29.3024052 34.4018664,29.8911011 33.9451244,30.3478431 L30.4090422,33.8834179 C29.4402902,34.7951844 27.9414146,34.7951844 27.0131528,33.8669226 L24.8686747,31.7224445 C24.5138542,31.887434 24.1389004,32.0406519 23.7342362,32.1882467 Z M22.1689476,35.2229996 L22.1689476,31.6271515 C22.1689476,31.2906815 22.3842576,30.9919612 22.703468,30.88556 C23.4608581,30.633102 24.0914196,30.3755542 24.6564773,30.0764124 C24.9597757,29.9158461 25.3323323,29.9718653 25.5749973,30.2145251 L28.1155963,32.75507 C28.438441,33.0779077 28.9726098,33.0779077 29.3161556,32.75507 L32.8339081,29.2373925 C32.995919,29.0753851 33.0739805,28.8851142 33.0739805,28.6566684 C33.0739805,28.4210909 32.9922635,28.2168027 32.8719016,28.1114883 L32.8339081,28.0759442 L30.2933091,25.5353994 C30.0506441,25.2927396 29.9946237,24.920191 30.1551934,24.616899 C30.4543416,24.0518534 30.7118949,23.4213054 30.9643583,22.6639314 C31.0707617,22.3447278 31.3694884,22.1294225 31.7059656,22.1294225 L35.3018905,22.1294225 C35.7558305,22.1294225 36.1226994,21.7501255 36.1226994,21.2695458 L36.1226994,16.3057121 C36.1226994,15.8417971 35.7332204,15.4458353 35.3018905,15.4458353 L31.7059656,15.4458353 C31.3694884,15.4458353 31.0707617,15.23053 30.9643583,14.9113264 C30.7118949,14.1539524 30.4543416,13.5234044 30.1551934,12.9583588 C29.9946237,12.6550668 30.0506441,12.2825182 30.2933091,12.0398584 L32.8339081,9.49931361 C32.995919,9.33730622 33.0739805,9.14703532 33.0739805,8.91858945 C33.0739805,8.68301202 32.9922635,8.47872383 32.8719016,8.3734094 L32.8339081,8.33786529 L29.3161556,4.82018786 C28.9933109,4.49735009 28.4591421,4.49735009 28.1155963,4.82018786 L25.5749973,7.36073267 C25.3323323,7.60339246 24.9597757,7.65941172 24.6564773,7.49884539 C24.0914196,7.19970357 23.4608581,6.94215579 22.703468,6.6896978 C22.3842576,6.58329662 22.1689476,6.28457636 22.1689476,5.94810628 L22.1689476,2.39134355 C22.1689476,2.16289767 22.0908861,1.97262678 21.9288752,1.81061939 C21.7668644,1.648612 21.5765894,1.57055215 21.3481387,1.57055215 L16.3451128,1.57055215 C15.881188,1.57055215 15.4852178,1.96002277 15.4852178,2.39134355 L15.4852178,5.98719159 C15.4852178,6.32366166 15.2699078,6.62238193 14.9506974,6.72878311 C14.1933073,6.9812411 13.5627458,7.23878887 12.9976881,7.5379307 C12.6943897,7.69849702 12.3218331,7.64247777 12.0791681,7.39981797 L9.53856905,4.85927316 C9.37655821,4.69726577 9.18628325,4.61920592 8.9578325,4.61920592 C8.7527907,4.61920592 8.51692566,4.71944642 8.37709594,4.85927316 L4.85934339,8.37695059 C4.53649872,8.69978837 4.53649872,9.23394576 4.85934339,9.57748421 L7.39994245,12.118029 C7.64260743,12.3606888 7.69862788,12.7332374 7.53805812,13.0365294 C7.21268067,13.6511181 6.95598547,14.270714 6.7327232,14.9776961 C6.63002238,15.3029084 6.3283358,15.524006 5.9872859,15.524006 L2.39136107,15.524006 C1.93742103,15.524006 1.57055215,15.903303 1.57055215,16.3838827 L1.57055215,21.3477164 C1.57055215,21.8116313 1.96003109,22.2075931 2.39136107,22.2075931 L5.9872859,22.2075931 C6.32376316,22.2075931 6.6224898,22.4228985 6.72889325,22.742102 C6.98135664,23.499476 7.23890991,24.130024 7.53805812,24.6950696 C7.69862788,24.9983616 7.64260743,25.3709102 7.39994245,25.61357 L4.85934339,28.1541148 C4.69733254,28.3161222 4.61927102,28.5063931 4.61927102,28.734839 C4.61927102,28.9398764 4.71951366,29.1757364 4.85934339,29.3155631 L8.37709594,32.8332406 C8.6999406,33.1560783 9.23410941,33.1560783 9.57765519,32.8332406 L12.1182543,30.2926958 C12.3609192,30.050036 12.7334758,29.9940167 13.0367742,30.154583 C13.601832,30.4537249 14.2323934,30.7112726 14.9897836,30.9637306 C15.3089939,31.0701318 15.5243039,31.3688521 15.5243039,31.7053221 L15.5243039,35.3011702 C15.5243039,35.7551005 15.903609,36.1219616 16.384199,36.1219616 L21.2750967,36.1226994 C21.766809,36.101321 22.1689476,35.6925988 22.1689476,35.2229996 Z" fill="#7B8A9A" fill-rule="nonzero"></path>
                        <path d="M19.5141104,18.8466258 L19.5141104,18.8466258" stroke="#2481D7" stroke-width="4" stroke-linecap="round" stroke-linejoin="round"></path>
                    </g>
                    <path d="M18.8466258,25.9141104 C22.7358985,25.9141104 25.9141104,22.7358985 25.9141104,18.8466258 C25.9141104,14.957353 22.7358985,11.7791411 18.8466258,11.7791411 C14.957353,11.7791411 11.7791411,14.957353 11.7791411,18.8466258 C11.7791411,22.7358985 14.957353,25.9141104 18.8466258,25.9141104 Z M18.8466258,27.4846626 C14.0899325,27.4846626 10.208589,23.603319 10.208589,18.8466258 C10.208589,14.0899325 14.0899325,10.208589 18.8466258,10.208589 C23.603319,10.208589 27.4846626,14.0899325 27.4846626,18.8466258 C27.4846626,23.603319 23.603319,27.4846626 18.8466258,27.4846626 Z" id="Path" fill="#7B8A9A" fill-rule="nonzero"></path>
                </g>
                <g id="Group" transform="translate(12.564417, 100.515337)">
                    <g transform="translate(0.785276, 0.392638)" fill-rule="nonzero" id="Path">
                        <path d="M22.2625767,35.0233129 L22.2625767,31.4110429 C22.9693252,31.1754601 23.6760736,30.9006135 24.3435583,30.5472393 L26.8957055,33.0993865 C27.5239264,33.7276074 28.5447853,33.7276074 29.2122699,33.0993865 L32.7460123,29.5656442 C33.0601227,29.2515337 33.2171779,28.8588957 33.2171779,28.4269939 C33.2171779,27.995092 33.0601227,27.5631902 32.7460123,27.2883436 L30.193865,24.7361963 C30.5472393,24.0687117 30.8220859,23.3619632 31.0576687,22.6552147 L34.6699387,22.6552147 C35.5730061,22.6552147 36.2797546,21.9092025 36.2797546,21.006135 L36.2797546,16.0196319 C36.2797546,15.1165644 35.5337423,14.3705521 34.6699387,14.3705521 L31.0576687,14.3705521 C30.8220859,13.6638037 30.5472393,12.9570552 30.193865,12.2895706 L32.7460123,9.73742331 C33.0601227,9.42331288 33.2171779,9.03067485 33.2171779,8.59877301 C33.2171779,8.16687117 33.0601227,7.73496933 32.7460123,7.4601227 L29.2122699,3.92638037 C28.5840491,3.29815951 27.5631902,3.29815951 26.8957055,3.92638037 L24.3435583,6.47852761 C23.6760736,6.12515337 22.9693252,5.85030675 22.2625767,5.61472393 L22.2625767,2.04171779 C22.2625767,1.60981595 22.1055215,1.21717791 21.791411,0.903067485 C21.4773006,0.588957055 21.0846626,0.43190184 20.6527607,0.43190184 L15.6269939,0.43190184 C14.7239264,0.43190184 13.9779141,1.17791411 13.9779141,2.04171779 L13.9779141,5.65398773 C13.2711656,5.88957055 12.5644172,6.16441718 11.8969325,6.51779141 L9.34478528,3.96564417 C9.03067485,3.65153374 8.63803681,3.49447853 8.20613497,3.49447853 C7.77423313,3.49447853 7.34233129,3.69079755 7.06748466,3.96564417 L3.53374233,7.4993865 C2.90552147,8.12760736 2.90552147,9.14846626 3.53374233,9.81595092 L6.08588957,12.3680982 C5.73251534,13.0355828 5.45766871,13.7030675 5.22208589,14.4490798 L1.60981595,14.4490798 C0.706748466,14.4490798 -1.56319402e-13,15.195092 -1.56319402e-13,16.0981595 L-1.56319402e-13,21.0846626 C-1.56319402e-13,21.9877301 0.74601227,22.7337423 1.60981595,22.7337423 L5.22208589,22.7337423 C5.45766871,23.4404908 5.73251534,24.1472393 6.08588957,24.8147239 L3.53374233,27.3668712 C3.2196319,27.6809816 3.06257669,28.0736196 3.06257669,28.5055215 C3.06257669,28.9374233 3.25889571,29.3693252 3.53374233,29.6441718 L7.06748466,33.1779141 C7.69570552,33.806135 8.71656442,33.806135 9.38404908,33.1779141 L11.9361963,30.6257669 C12.603681,30.9791411 13.3104294,31.2539877 14.0171779,31.4895706 L14.0171779,35.1018405 C14.0171779,36.004908 14.7631902,36.7116564 15.6662577,36.7116564 L20.6134969,36.7116564 C21.5165644,36.6723926 22.2625767,35.9263804 22.2625767,35.0233129 Z" fill="#EAEDF0"></path>
                        <path d="M35.4944785,18.4539877 L35.4944785,15.9411043 C35.4944785,15.0380368 34.7484663,14.2920245 33.8846626,14.2920245 L31.607362,14.2920245 L30.2723926,14.2920245 C30.0368098,13.5852761 29.7619632,12.8785276 29.408589,12.2110429 L31.9607362,9.65889571 C32.2748466,9.34478528 32.4319018,8.95214724 32.4319018,8.5202454 C32.4319018,8.08834356 32.2748466,7.65644172 31.9607362,7.38159509 L28.4269939,3.84785276 C28.2699387,3.69079755 28.1128834,3.61226994 27.9558282,3.53374233 C27.798773,3.61226994 27.602454,3.73006135 27.4846626,3.84785276 L24.9325153,6.4 C24.6184049,6.24294479 24.3435583,6.08588957 24.0294479,5.96809816 L23.597546,6.4 C22.9300613,6.04662577 22.2233129,5.77177914 21.5165644,5.53619632 L21.5165644,1.96319018 C21.5165644,1.53128834 21.3595092,1.13865031 21.0453988,0.824539877 C20.7312883,0.510429448 20.3386503,0.353374233 19.9067485,0.353374233 L16.2552147,0.353374233 C15.3521472,0.353374233 14.606135,1.0993865 14.606135,1.96319018 L14.606135,5.57546012 C13.8993865,5.81104294 13.192638,6.08588957 12.5251534,6.4392638 L12.0932515,6.00736196 C11.7791411,6.12515337 11.4650307,6.28220859 11.190184,6.4392638 L8.63803681,3.88711656 C8.4809816,3.73006135 8.32392638,3.65153374 8.16687117,3.53374233 C7.97055215,3.61226994 7.81349693,3.73006135 7.69570552,3.88711656 L4.16196319,7.4208589 C3.53374233,8.04907975 3.53374233,9.06993865 4.16196319,9.73742331 L6.71411043,12.2895706 C6.3607362,12.9570552 6.08588957,13.6245399 5.85030675,14.3705521 L4.51533742,14.3705521 L2.23803681,14.3705521 C1.33496933,14.3705521 0.628220859,15.1165644 0.628220859,16.0196319 L0.628220859,18.5325153 L35.4944785,18.5325153 L35.4944785,18.4539877 Z" fill="#D9DFE5"></path>
                    </g>
                    <path d="M18.7680982,26.6208589 C14.4883436,26.6208589 10.993865,23.1263804 10.993865,18.8466258 C10.993865,14.5668712 14.4883436,11.0723926 18.7680982,11.0723926 C23.0478528,11.0723926 26.5423313,14.5668712 26.5423313,18.8466258 C26.5423313,23.1263804 23.0478528,26.6208589 18.7680982,26.6208589 Z" id="Path" fill="#9EABB8" fill-rule="nonzero"></path>
                    <path d="M26.6208589,18.8466258 C26.6208589,14.5668712 23.1263804,11.0723926 18.8466258,11.0723926 L18.8466258,26.6208589 C23.1263804,26.6208589 26.6208589,23.1263804 26.6208589,18.8466258 Z" id="Path" fill="#C0C9D2" fill-rule="nonzero"></path>
                    <path d="M26.6208589,18.8466258 L18.8466258,18.8466258 L18.8466258,26.6208589 C23.1263804,26.6208589 26.6208589,23.1263804 26.6208589,18.8466258 Z" id="Path" fill="#F1F3F5" fill-rule="nonzero"></path>
                    <g id="Path">
                        <path d="M23.7342362,32.1882467 L23.7342362,35.2298959 C23.7342362,36.5465712 22.6632109,37.6351543 21.3099814,37.6932515 L16.3832701,37.6932515 C15.050158,37.6932515 13.9590154,36.637884 13.9590154,35.3080977 L13.9590154,32.2664484 C13.5543307,32.1188463 13.1793595,31.9656202 12.8245231,31.8006213 L10.6630961,33.9616196 C9.69434412,34.8733862 8.19546849,34.8733862 7.26720667,33.9451244 L3.74812717,30.4260449 C3.31849678,29.9964145 3.0498689,29.3643489 3.0498689,28.7391493 C3.0498689,28.0976915 3.29138515,27.5089957 3.74812717,27.0522536 L5.89260522,24.9077756 C5.72761581,24.552955 5.57439782,24.1780013 5.4268031,23.7733371 L2.38515388,23.7733371 C1.08402875,23.7733371 0,22.6712412 0,21.3490823 L0,16.3832701 C0,15.050158 1.05536749,13.9590154 2.38515388,13.9590154 L5.42094315,13.9590154 C5.56248015,13.5654493 5.71751746,13.1905546 5.89107466,12.8229672 L3.73163191,10.6630961 C2.81986535,9.69434412 2.81986535,8.19546849 3.74812717,7.26720667 L7.26720667,3.74812717 C7.69683706,3.31849678 8.32890266,3.0498689 8.95410228,3.0498689 C9.59556001,3.0498689 10.1842559,3.29138515 10.6409979,3.74812717 L12.7854759,5.89260522 C13.1402965,5.72761581 13.5152502,5.57439782 13.9199145,5.4268031 L13.9199145,2.38515388 C13.9199145,1.08402875 15.0220104,0 16.3441692,0 L21.3490823,0 C21.99054,0 22.5792359,0.241516253 23.0359779,0.698258272 C23.4927199,1.15500029 23.7342362,1.74369616 23.7342362,2.38515388 L23.7342362,5.38770221 C24.1389209,5.53530439 24.513892,5.68853041 24.8687285,5.85352934 L27.0301554,3.69253102 C27.9989074,2.78076447 29.497783,2.78076447 30.4260449,3.70902629 L33.9290354,7.2120168 C34.3960059,7.63306575 34.6433826,8.26150299 34.6433826,8.9150014 C34.6433826,9.55645913 34.4018664,10.145155 33.9451244,10.601897 L31.8006463,12.7463751 C31.9656357,13.1011956 32.1188537,13.4761494 32.2664484,13.8808136 L35.3080977,13.8808136 C36.6092228,13.8808136 37.6932515,14.9829095 37.6932515,16.3050684 L37.6932515,21.2708805 C37.6932515,22.6039926 36.637884,23.6951353 35.3080977,23.6951353 L32.2664484,23.6951353 C32.1188537,24.0997995 31.9656357,24.4747533 31.8006463,24.8295738 L33.9290354,26.9579629 C34.3960059,27.3790118 34.6433826,28.0074491 34.6433826,28.6609475 C34.6433826,29.3024052 34.4018664,29.8911011 33.9451244,30.3478431 L30.4090422,33.8834179 C29.4402902,34.7951844 27.9414146,34.7951844 27.0131528,33.8669226 L24.8686747,31.7224445 C24.5138542,31.887434 24.1389004,32.0406519 23.7342362,32.1882467 Z M22.1689476,35.2229996 L22.1689476,31.6271515 C22.1689476,31.2906815 22.3842576,30.9919612 22.703468,30.88556 C23.4608581,30.633102 24.0914196,30.3755542 24.6564773,30.0764124 C24.9597757,29.9158461 25.3323323,29.9718653 25.5749973,30.2145251 L28.1155963,32.75507 C28.438441,33.0779077 28.9726098,33.0779077 29.3161556,32.75507 L32.8339081,29.2373925 C32.995919,29.0753851 33.0739805,28.8851142 33.0739805,28.6566684 C33.0739805,28.4210909 32.9922635,28.2168027 32.8719016,28.1114883 L32.8339081,28.0759442 L30.2933091,25.5353994 C30.0506441,25.2927396 29.9946237,24.920191 30.1551934,24.616899 C30.4543416,24.0518534 30.7118949,23.4213054 30.9643583,22.6639314 C31.0707617,22.3447278 31.3694884,22.1294225 31.7059656,22.1294225 L35.3018905,22.1294225 C35.7558305,22.1294225 36.1226994,21.7501255 36.1226994,21.2695458 L36.1226994,16.3057121 C36.1226994,15.8417971 35.7332204,15.4458353 35.3018905,15.4458353 L31.7059656,15.4458353 C31.3694884,15.4458353 31.0707617,15.23053 30.9643583,14.9113264 C30.7118949,14.1539524 30.4543416,13.5234044 30.1551934,12.9583588 C29.9946237,12.6550668 30.0506441,12.2825182 30.2933091,12.0398584 L32.8339081,9.49931361 C32.995919,9.33730622 33.0739805,9.14703532 33.0739805,8.91858945 C33.0739805,8.68301202 32.9922635,8.47872383 32.8719016,8.3734094 L32.8339081,8.33786529 L29.3161556,4.82018786 C28.9933109,4.49735009 28.4591421,4.49735009 28.1155963,4.82018786 L25.5749973,7.36073267 C25.3323323,7.60339246 24.9597757,7.65941172 24.6564773,7.49884539 C24.0914196,7.19970357 23.4608581,6.94215579 22.703468,6.6896978 C22.3842576,6.58329662 22.1689476,6.28457636 22.1689476,5.94810628 L22.1689476,2.39134355 C22.1689476,2.16289767 22.0908861,1.97262678 21.9288752,1.81061939 C21.7668644,1.648612 21.5765894,1.57055215 21.3481387,1.57055215 L16.3451128,1.57055215 C15.881188,1.57055215 15.4852178,1.96002277 15.4852178,2.39134355 L15.4852178,5.98719159 C15.4852178,6.32366166 15.2699078,6.62238193 14.9506974,6.72878311 C14.1933073,6.9812411 13.5627458,7.23878887 12.9976881,7.5379307 C12.6943897,7.69849702 12.3218331,7.64247777 12.0791681,7.39981797 L9.53856905,4.85927316 C9.37655821,4.69726577 9.18628325,4.61920592 8.9578325,4.61920592 C8.7527907,4.61920592 8.51692566,4.71944642 8.37709594,4.85927316 L4.85934339,8.37695059 C4.53649872,8.69978837 4.53649872,9.23394576 4.85934339,9.57748421 L7.39994245,12.118029 C7.64260743,12.3606888 7.69862788,12.7332374 7.53805812,13.0365294 C7.21268067,13.6511181 6.95598547,14.270714 6.7327232,14.9776961 C6.63002238,15.3029084 6.3283358,15.524006 5.9872859,15.524006 L2.39136107,15.524006 C1.93742103,15.524006 1.57055215,15.903303 1.57055215,16.3838827 L1.57055215,21.3477164 C1.57055215,21.8116313 1.96003109,22.2075931 2.39136107,22.2075931 L5.9872859,22.2075931 C6.32376316,22.2075931 6.6224898,22.4228985 6.72889325,22.742102 C6.98135664,23.499476 7.23890991,24.130024 7.53805812,24.6950696 C7.69862788,24.9983616 7.64260743,25.3709102 7.39994245,25.61357 L4.85934339,28.1541148 C4.69733254,28.3161222 4.61927102,28.5063931 4.61927102,28.734839 C4.61927102,28.9398764 4.71951366,29.1757364 4.85934339,29.3155631 L8.37709594,32.8332406 C8.6999406,33.1560783 9.23410941,33.1560783 9.57765519,32.8332406 L12.1182543,30.2926958 C12.3609192,30.050036 12.7334758,29.9940167 13.0367742,30.154583 C13.601832,30.4537249 14.2323934,30.7112726 14.9897836,30.9637306 C15.3089939,31.0701318 15.5243039,31.3688521 15.5243039,31.7053221 L15.5243039,35.3011702 C15.5243039,35.7551005 15.903609,36.1219616 16.384199,36.1219616 L21.2750967,36.1226994 C21.766809,36.101321 22.1689476,35.6925988 22.1689476,35.2229996 Z" fill="#7B8A9A" fill-rule="nonzero"></path>
                        <path d="M19.5141104,18.8466258 L19.5141104,18.8466258" stroke="#2481D7" stroke-width="4" stroke-linecap="round" stroke-linejoin="round"></path>
                    </g>
                    <path d="M18.8466258,25.9141104 C22.7358985,25.9141104 25.9141104,22.7358985 25.9141104,18.8466258 C25.9141104,14.957353 22.7358985,11.7791411 18.8466258,11.7791411 C14.957353,11.7791411 11.7791411,14.957353 11.7791411,18.8466258 C11.7791411,22.7358985 14.957353,25.9141104 18.8466258,25.9141104 Z M18.8466258,27.4846626 C14.0899325,27.4846626 10.208589,23.603319 10.208589,18.8466258 C10.208589,14.0899325 14.0899325,10.208589 18.8466258,10.208589 C23.603319,10.208589 27.4846626,14.0899325 27.4846626,18.8466258 C27.4846626,23.603319 23.603319,27.4846626 18.8466258,27.4846626 Z" id="Path" fill="#7B8A9A" fill-rule="nonzero"></path>
                </g>
            </g>
        </g>
    </g>
</svg>