<svg id="svg" xmlns="http://www.w3.org/2000/svg" xmlns:xlink="http://www.w3.org/1999/xlink" width="400" height="400" viewBox="0, 0, 400,400"><g id="svgg"><path id="path0" d="M38.000 53.000 L 38.000 75.600 54.800 75.600 C 69.467 75.600,71.600 75.676,71.600 76.200 C 71.600 76.530,71.870 76.800,72.200 76.800 C 72.732 76.800,72.800 87.089,72.800 167.000 L 72.800 257.200 102.000 257.200 L 131.200 257.200 131.200 167.000 C 131.200 107.133,131.335 76.800,131.600 76.800 C 131.820 76.800,132.000 76.530,132.000 76.200 C 132.000 75.676,134.133 75.600,148.800 75.600 L 165.600 75.600 165.600 53.000 L 165.600 30.400 101.800 30.400 L 38.000 30.400 38.000 53.000 M180.000 143.200 C 180.000 218.133,179.866 256.000,179.600 256.000 C 179.380 256.000,179.200 256.270,179.200 256.600 C 179.200 257.127,182.356 257.200,205.200 257.200 L 231.200 257.200 231.200 184.600 C 231.200 136.467,231.335 112.000,231.600 112.000 C 231.822 112.000,232.000 113.067,232.000 114.400 C 232.000 115.733,232.178 116.800,232.400 116.800 C 232.635 116.800,232.800 118.200,232.800 120.200 C 232.800 122.956,232.914 123.600,233.400 123.600 C 233.880 123.600,234.000 124.200,234.000 126.600 C 234.000 128.333,234.169 129.600,234.400 129.600 C 234.639 129.600,234.800 131.133,234.800 133.400 C 234.800 136.511,234.909 137.200,235.400 137.200 C 235.876 137.200,236.000 137.778,236.000 140.000 C 236.000 141.600,236.171 142.800,236.400 142.800 C 236.635 142.800,236.800 144.200,236.800 146.200 C 236.800 148.200,236.965 149.600,237.200 149.600 C 237.435 149.600,237.600 151.000,237.600 153.000 C 237.600 155.756,237.714 156.400,238.200 156.400 C 238.686 156.400,238.800 157.044,238.800 159.800 C 238.800 161.800,238.965 163.200,239.200 163.200 C 239.433 163.200,239.600 164.533,239.600 166.400 C 239.600 168.978,239.717 169.600,240.200 169.600 C 240.686 169.600,240.800 170.244,240.800 173.000 C 240.800 175.000,240.965 176.400,241.200 176.400 C 241.439 176.400,241.600 177.933,241.600 180.200 C 241.600 182.467,241.761 184.000,242.000 184.000 C 242.235 184.000,242.400 185.400,242.400 187.400 C 242.400 190.156,242.514 190.800,243.000 190.800 C 243.486 190.800,243.600 191.444,243.600 194.200 C 243.600 196.200,243.765 197.600,244.000 197.600 C 244.229 197.600,244.400 198.800,244.400 200.400 C 244.400 202.622,244.524 203.200,245.000 203.200 C 245.486 203.200,245.600 203.844,245.600 206.600 C 245.600 208.600,245.765 210.000,246.000 210.000 C 246.235 210.000,246.400 211.400,246.400 213.400 C 246.400 215.400,246.565 216.800,246.800 216.800 C 247.029 216.800,247.200 218.000,247.200 219.600 C 247.200 221.822,247.324 222.400,247.800 222.400 C 248.293 222.400,248.400 223.111,248.400 226.400 C 248.400 228.800,248.560 230.400,248.800 230.400 C 249.033 230.400,249.200 231.733,249.200 233.600 C 249.200 236.178,249.317 236.800,249.800 236.800 C 250.280 236.800,250.400 237.400,250.400 239.800 C 250.400 241.533,250.569 242.800,250.800 242.800 C 251.039 242.800,251.200 244.333,251.200 246.600 C 251.200 248.867,251.361 250.400,251.600 250.400 C 251.835 250.400,252.000 251.800,252.000 253.800 L 252.000 257.200 270.400 257.200 L 288.800 257.200 288.800 256.200 C 288.800 255.650,288.980 255.200,289.200 255.200 C 289.439 255.200,289.600 253.667,289.600 251.400 C 289.600 249.133,289.761 247.600,290.000 247.600 C 290.239 247.600,290.400 246.067,290.400 243.800 C 290.400 240.689,290.509 240.000,291.000 240.000 C 291.493 240.000,291.600 239.289,291.600 236.000 C 291.600 233.600,291.760 232.000,292.000 232.000 C 292.233 232.000,292.400 230.667,292.400 228.800 C 292.400 226.222,292.517 225.600,293.000 225.600 C 293.486 225.600,293.600 224.956,293.600 222.200 C 293.600 220.200,293.765 218.800,294.000 218.800 C 294.239 218.800,294.400 217.267,294.400 215.000 C 294.400 212.733,294.561 211.200,294.800 211.200 C 295.035 211.200,295.200 209.800,295.200 207.800 C 295.200 205.044,295.314 204.400,295.800 204.400 C 296.286 204.400,296.400 203.756,296.400 201.000 C 296.400 199.000,296.565 197.600,296.800 197.600 C 297.039 197.600,297.200 196.067,297.200 193.800 C 297.200 190.689,297.309 190.000,297.800 190.000 C 298.286 190.000,298.400 189.356,298.400 186.600 C 298.400 184.600,298.565 183.200,298.800 183.200 C 299.039 183.200,299.200 181.667,299.200 179.400 C 299.200 177.133,299.361 175.600,299.600 175.600 C 299.835 175.600,300.000 174.200,300.000 172.200 C 300.000 169.444,300.114 168.800,300.600 168.800 C 301.091 168.800,301.200 168.111,301.200 165.000 C 301.200 162.733,301.361 161.200,301.600 161.200 C 301.839 161.200,302.000 159.667,302.000 157.400 C 302.000 154.289,302.109 153.600,302.600 153.600 C 303.093 153.600,303.200 152.889,303.200 149.600 C 303.200 147.200,303.360 145.600,303.600 145.600 C 303.833 145.600,304.000 144.267,304.000 142.400 C 304.000 140.533,304.167 139.200,304.400 139.200 C 304.640 139.200,304.800 137.600,304.800 135.200 C 304.800 131.911,304.907 131.200,305.400 131.200 C 305.883 131.200,306.000 130.578,306.000 128.000 C 306.000 126.133,306.167 124.800,306.400 124.800 C 306.640 124.800,306.800 123.200,306.800 120.800 C 306.800 117.511,306.907 116.800,307.400 116.800 C 307.876 116.800,308.000 116.222,308.000 114.000 C 308.000 112.400,308.171 111.200,308.400 111.200 C 308.620 111.200,308.800 110.750,308.800 110.200 C 308.800 109.650,308.980 109.200,309.200 109.200 C 309.465 109.200,309.600 134.133,309.600 183.200 L 309.600 257.200 335.200 257.200 L 360.800 257.200 360.800 143.800 L 360.800 30.400 322.800 30.400 L 284.800 30.400 284.800 31.400 C 284.800 31.950,284.620 32.400,284.400 32.400 C 284.161 32.400,284.000 33.933,284.000 36.200 C 284.000 39.311,283.891 40.000,283.400 40.000 C 282.907 40.000,282.800 40.711,282.800 44.000 C 282.800 46.400,282.640 48.000,282.400 48.000 C 282.167 48.000,282.000 49.333,282.000 51.200 C 282.000 53.778,281.883 54.400,281.400 54.400 C 280.907 54.400,280.800 55.111,280.800 58.400 C 280.800 60.800,280.640 62.400,280.400 62.400 C 280.161 62.400,280.000 63.933,280.000 66.200 C 280.000 68.467,279.839 70.000,279.600 70.000 C 279.359 70.000,279.200 71.667,279.200 74.200 C 279.200 77.667,279.095 78.400,278.600 78.400 C 278.114 78.400,278.000 79.044,278.000 81.800 C 278.000 83.800,277.835 85.200,277.600 85.200 C 277.361 85.200,277.200 86.733,277.200 89.000 C 277.200 92.111,277.091 92.800,276.600 92.800 C 276.107 92.800,276.000 93.511,276.000 96.800 C 276.000 99.200,275.840 100.800,275.600 100.800 C 275.361 100.800,275.200 102.333,275.200 104.600 C 275.200 106.867,275.039 108.400,274.800 108.400 C 274.565 108.400,274.400 109.800,274.400 111.800 C 274.400 114.556,274.286 115.200,273.800 115.200 C 273.309 115.200,273.200 115.889,273.200 119.000 C 273.200 121.267,273.039 122.800,272.800 122.800 C 272.561 122.800,272.400 124.333,272.400 126.600 C 272.400 129.711,272.291 130.400,271.800 130.400 C 271.347 130.400,271.200 130.889,271.200 132.400 C 271.200 133.500,271.020 134.400,270.800 134.400 C 270.580 134.400,270.400 133.950,270.400 133.400 C 270.400 132.850,270.220 132.400,270.000 132.400 C 269.761 132.400,269.600 130.867,269.600 128.600 C 269.600 125.489,269.491 124.800,269.000 124.800 C 268.520 124.800,268.400 124.200,268.400 121.800 C 268.400 120.067,268.231 118.800,268.000 118.800 C 267.765 118.800,267.600 117.400,267.600 115.400 C 267.600 112.644,267.486 112.000,267.000 112.000 C 266.517 112.000,266.400 111.378,266.400 108.800 C 266.400 106.933,266.233 105.600,266.000 105.600 C 265.765 105.600,265.600 104.200,265.600 102.200 C 265.600 100.200,265.435 98.800,265.200 98.800 C 264.965 98.800,264.800 97.400,264.800 95.400 C 264.800 92.644,264.686 92.000,264.200 92.000 C 263.714 92.000,263.600 91.356,263.600 88.600 C 263.600 86.600,263.435 85.200,263.200 85.200 C 262.961 85.200,262.800 83.667,262.800 81.400 C 262.800 78.289,262.691 77.600,262.200 77.600 C 261.709 77.600,261.600 76.911,261.600 73.800 C 261.600 71.533,261.439 70.000,261.200 70.000 C 260.965 70.000,260.800 68.600,260.800 66.600 C 260.800 64.600,260.635 63.200,260.400 63.200 C 260.165 63.200,260.000 61.800,260.000 59.800 C 260.000 57.044,259.886 56.400,259.400 56.400 C 258.914 56.400,258.800 55.756,258.800 53.000 C 258.800 51.000,258.635 49.600,258.400 49.600 C 258.171 49.600,258.000 48.400,258.000 46.800 C 258.000 44.578,257.876 44.000,257.400 44.000 C 256.924 44.000,256.800 43.422,256.800 41.200 C 256.800 39.600,256.629 38.400,256.400 38.400 C 256.165 38.400,256.000 37.000,256.000 35.000 C 256.000 33.000,255.835 31.600,255.600 31.600 C 255.380 31.600,255.200 31.330,255.200 31.000 C 255.200 30.471,250.756 30.400,217.600 30.400 L 180.000 30.400 180.000 143.200 " stroke="none" fill="#17317e" fill-rule="evenodd"></path><path id="path1" d="M165.600 53.000 L 165.600 75.600 148.800 75.600 C 134.133 75.600,132.000 75.676,132.000 76.200 C 132.000 76.530,131.820 76.800,131.600 76.800 C 131.335 76.800,131.200 107.133,131.200 167.000 L 131.200 257.200 101.900 257.297 L 72.600 257.395 101.400 257.508 C 117.240 257.570,130.605 257.522,131.100 257.403 L 132.000 257.185 132.000 166.992 L 132.000 76.800 149.400 76.800 L 166.800 76.800 166.800 53.600 C 166.800 33.244,166.726 30.400,166.200 30.400 C 165.674 30.400,165.600 33.178,165.600 53.000 M179.200 143.200 C 179.200 218.133,179.334 256.000,179.600 256.000 C 179.866 256.000,180.000 218.133,180.000 143.200 C 180.000 68.267,179.866 30.400,179.600 30.400 C 179.334 30.400,179.200 68.267,179.200 143.200 M255.200 31.000 C 255.200 31.330,255.380 31.600,255.600 31.600 C 255.820 31.600,256.000 31.330,256.000 31.000 C 256.000 30.670,255.820 30.400,255.600 30.400 C 255.380 30.400,255.200 30.670,255.200 31.000 M284.000 31.400 C 284.000 31.950,284.180 32.400,284.400 32.400 C 284.620 32.400,284.800 31.950,284.800 31.400 C 284.800 30.850,284.620 30.400,284.400 30.400 C 284.180 30.400,284.000 30.850,284.000 31.400 M256.000 36.000 C 256.000 37.333,256.178 38.400,256.400 38.400 C 256.622 38.400,256.800 37.333,256.800 36.000 C 256.800 34.667,256.622 33.600,256.400 33.600 C 256.178 33.600,256.000 34.667,256.000 36.000 M282.800 37.200 C 282.800 39.422,282.924 40.000,283.400 40.000 C 283.876 40.000,284.000 39.422,284.000 37.200 C 284.000 34.978,283.876 34.400,283.400 34.400 C 282.924 34.400,282.800 34.978,282.800 37.200 M256.800 41.600 C 256.800 43.467,256.933 44.000,257.400 44.000 C 257.867 44.000,258.000 43.467,258.000 41.600 C 258.000 39.733,257.867 39.200,257.400 39.200 C 256.933 39.200,256.800 39.733,256.800 41.600 M282.000 45.000 C 282.000 46.733,282.169 48.000,282.400 48.000 C 282.631 48.000,282.800 46.733,282.800 45.000 C 282.800 43.267,282.631 42.000,282.400 42.000 C 282.169 42.000,282.000 43.267,282.000 45.000 M360.800 42.600 C 360.800 42.930,360.980 43.200,361.200 43.200 C 361.420 43.200,361.600 42.930,361.600 42.600 C 361.600 42.270,361.420 42.000,361.200 42.000 C 360.980 42.000,360.800 42.270,360.800 42.600 M258.000 47.800 C 258.000 48.790,258.180 49.600,258.400 49.600 C 258.620 49.600,258.800 48.790,258.800 47.800 C 258.800 46.810,258.620 46.000,258.400 46.000 C 258.180 46.000,258.000 46.810,258.000 47.800 M280.800 52.000 C 280.800 53.867,280.933 54.400,281.400 54.400 C 281.867 54.400,282.000 53.867,282.000 52.000 C 282.000 50.133,281.867 49.600,281.400 49.600 C 280.933 49.600,280.800 50.133,280.800 52.000 M360.800 51.800 C 360.800 52.350,360.980 52.800,361.200 52.800 C 361.420 52.800,361.600 52.350,361.600 51.800 C 361.600 51.250,361.420 50.800,361.200 50.800 C 360.980 50.800,360.800 51.250,360.800 51.800 M258.800 54.600 C 258.800 55.933,258.956 56.400,259.400 56.400 C 259.844 56.400,260.000 55.933,260.000 54.600 C 260.000 53.267,259.844 52.800,259.400 52.800 C 258.956 52.800,258.800 53.267,258.800 54.600 M280.000 60.000 C 280.000 61.333,280.178 62.400,280.400 62.400 C 280.622 62.400,280.800 61.333,280.800 60.000 C 280.800 58.667,280.622 57.600,280.400 57.600 C 280.178 57.600,280.000 58.667,280.000 60.000 M260.000 61.200 C 260.000 62.300,260.180 63.200,260.400 63.200 C 260.620 63.200,260.800 62.300,260.800 61.200 C 260.800 60.100,260.620 59.200,260.400 59.200 C 260.180 59.200,260.000 60.100,260.000 61.200 M360.800 62.200 C 360.800 62.750,360.980 63.200,361.200 63.200 C 361.420 63.200,361.600 62.750,361.600 62.200 C 361.600 61.650,361.420 61.200,361.200 61.200 C 360.980 61.200,360.800 61.650,360.800 62.200 M279.200 67.600 C 279.200 68.933,279.378 70.000,279.600 70.000 C 279.822 70.000,280.000 68.933,280.000 67.600 C 280.000 66.267,279.822 65.200,279.600 65.200 C 279.378 65.200,279.200 66.267,279.200 67.600 M260.800 68.000 C 260.800 69.100,260.980 70.000,261.200 70.000 C 261.420 70.000,261.600 69.100,261.600 68.000 C 261.600 66.900,261.420 66.000,261.200 66.000 C 260.980 66.000,260.800 66.900,260.800 68.000 M278.000 75.600 C 278.000 77.822,278.124 78.400,278.600 78.400 C 279.076 78.400,279.200 77.822,279.200 75.600 C 279.200 73.378,279.076 72.800,278.600 72.800 C 278.124 72.800,278.000 73.378,278.000 75.600 M261.600 75.600 C 261.600 77.111,261.747 77.600,262.200 77.600 C 262.653 77.600,262.800 77.111,262.800 75.600 C 262.800 74.089,262.653 73.600,262.200 73.600 C 261.747 73.600,261.600 74.089,261.600 75.600 M38.000 76.200 C 38.000 76.724,40.133 76.800,54.800 76.800 C 69.467 76.800,71.600 76.724,71.600 76.200 C 71.600 75.676,69.467 75.600,54.800 75.600 C 40.133 75.600,38.000 75.676,38.000 76.200 M277.200 82.400 C 277.200 84.000,277.371 85.200,277.600 85.200 C 277.829 85.200,278.000 84.000,278.000 82.400 C 278.000 80.800,277.829 79.600,277.600 79.600 C 277.371 79.600,277.200 80.800,277.200 82.400 M262.800 82.800 C 262.800 84.133,262.978 85.200,263.200 85.200 C 263.422 85.200,263.600 84.133,263.600 82.800 C 263.600 81.467,263.422 80.400,263.200 80.400 C 262.978 80.400,262.800 81.467,262.800 82.800 M360.800 83.400 C 360.800 83.950,360.980 84.400,361.200 84.400 C 361.420 84.400,361.600 83.950,361.600 83.400 C 361.600 82.850,361.420 82.400,361.200 82.400 C 360.980 82.400,360.800 82.850,360.800 83.400 M263.600 89.600 C 263.600 91.467,263.733 92.000,264.200 92.000 C 264.667 92.000,264.800 91.467,264.800 89.600 C 264.800 87.733,264.667 87.200,264.200 87.200 C 263.733 87.200,263.600 87.733,263.600 89.600 M276.000 90.000 C 276.000 92.222,276.124 92.800,276.600 92.800 C 277.076 92.800,277.200 92.222,277.200 90.000 C 277.200 87.778,277.076 87.200,276.600 87.200 C 276.124 87.200,276.000 87.778,276.000 90.000 M360.800 88.600 C 360.800 88.930,360.980 89.200,361.200 89.200 C 361.420 89.200,361.600 88.930,361.600 88.600 C 361.600 88.270,361.420 88.000,361.200 88.000 C 360.980 88.000,360.800 88.270,360.800 88.600 M360.800 91.000 C 360.800 91.550,360.980 92.000,361.200 92.000 C 361.420 92.000,361.600 91.550,361.600 91.000 C 361.600 90.450,361.420 90.000,361.200 90.000 C 360.980 90.000,360.800 90.450,360.800 91.000 M360.800 93.400 C 360.800 93.730,360.980 94.000,361.200 94.000 C 361.420 94.000,361.600 93.730,361.600 93.400 C 361.600 93.070,361.420 92.800,361.200 92.800 C 360.980 92.800,360.800 93.070,360.800 93.400 M264.800 96.400 C 264.800 97.733,264.978 98.800,265.200 98.800 C 265.422 98.800,265.600 97.733,265.600 96.400 C 265.600 95.067,265.422 94.000,265.200 94.000 C 264.978 94.000,264.800 95.067,264.800 96.400 M275.200 97.800 C 275.200 99.533,275.369 100.800,275.600 100.800 C 275.831 100.800,276.000 99.533,276.000 97.800 C 276.000 96.067,275.831 94.800,275.600 94.800 C 275.369 94.800,275.200 96.067,275.200 97.800 M360.800 95.400 C 360.800 95.730,360.980 96.000,361.200 96.000 C 361.420 96.000,361.600 95.730,361.600 95.400 C 361.600 95.070,361.420 94.800,361.200 94.800 C 360.980 94.800,360.800 95.070,360.800 95.400 M265.600 103.200 C 265.600 104.533,265.778 105.600,266.000 105.600 C 266.222 105.600,266.400 104.533,266.400 103.200 C 266.400 101.867,266.222 100.800,266.000 100.800 C 265.778 100.800,265.600 101.867,265.600 103.200 M274.400 105.400 C 274.400 107.133,274.569 108.400,274.800 108.400 C 275.031 108.400,275.200 107.133,275.200 105.400 C 275.200 103.667,275.031 102.400,274.800 102.400 C 274.569 102.400,274.400 103.667,274.400 105.400 M266.400 109.200 C 266.400 111.422,266.524 112.000,267.000 112.000 C 267.476 112.000,267.600 111.422,267.600 109.200 C 267.600 106.978,267.476 106.400,267.000 106.400 C 266.524 106.400,266.400 106.978,266.400 109.200 M308.800 110.200 C 308.800 110.750,308.620 111.200,308.400 111.200 C 308.180 111.200,308.000 112.100,308.000 113.200 C 308.000 114.300,308.180 115.200,308.400 115.200 C 308.665 115.200,308.800 139.119,308.800 186.157 C 308.800 250.492,308.859 257.137,309.433 257.357 C 310.259 257.674,360.141 257.674,360.967 257.357 C 361.658 257.092,361.846 256.000,361.200 256.000 C 360.980 256.000,360.800 256.270,360.800 256.600 C 360.800 257.127,357.689 257.200,335.200 257.200 L 309.600 257.200 309.600 183.200 C 309.600 134.133,309.465 109.200,309.200 109.200 C 308.980 109.200,308.800 109.650,308.800 110.200 M360.800 109.800 C 360.800 110.130,360.980 110.400,361.200 110.400 C 361.420 110.400,361.600 110.130,361.600 109.800 C 361.600 109.470,361.420 109.200,361.200 109.200 C 360.980 109.200,360.800 109.470,360.800 109.800 M273.200 112.800 C 273.200 114.667,273.333 115.200,273.800 115.200 C 274.267 115.200,274.400 114.667,274.400 112.800 C 274.400 110.933,274.267 110.400,273.800 110.400 C 273.333 110.400,273.200 110.933,273.200 112.800 M360.800 113.600 C 360.800 114.933,360.978 116.000,361.200 116.000 C 361.422 116.000,361.600 114.933,361.600 113.600 C 361.600 112.267,361.422 111.200,361.200 111.200 C 360.978 111.200,360.800 112.267,360.800 113.600 M231.200 114.000 C 231.200 115.100,231.380 116.000,231.600 116.000 C 231.820 116.000,232.000 115.100,232.000 114.000 C 232.000 112.900,231.820 112.000,231.600 112.000 C 231.380 112.000,231.200 112.900,231.200 114.000 M267.600 116.400 C 267.600 117.733,267.778 118.800,268.000 118.800 C 268.222 118.800,268.400 117.733,268.400 116.400 C 268.400 115.067,268.222 114.000,268.000 114.000 C 267.778 114.000,267.600 115.067,267.600 116.400 M232.000 118.800 C 232.000 119.900,232.180 120.800,232.400 120.800 C 232.620 120.800,232.800 119.900,232.800 118.800 C 232.800 117.700,232.620 116.800,232.400 116.800 C 232.180 116.800,232.000 117.700,232.000 118.800 M306.800 119.200 C 306.800 121.067,306.933 121.600,307.400 121.600 C 307.867 121.600,308.000 121.067,308.000 119.200 C 308.000 117.333,307.867 116.800,307.400 116.800 C 306.933 116.800,306.800 117.333,306.800 119.200 M360.800 117.400 C 360.800 117.730,360.980 118.000,361.200 118.000 C 361.420 118.000,361.600 117.730,361.600 117.400 C 361.600 117.070,361.420 116.800,361.200 116.800 C 360.980 116.800,360.800 117.070,360.800 117.400 M272.400 120.400 C 272.400 121.733,272.578 122.800,272.800 122.800 C 273.022 122.800,273.200 121.733,273.200 120.400 C 273.200 119.067,273.022 118.000,272.800 118.000 C 272.578 118.000,272.400 119.067,272.400 120.400 M268.400 122.800 C 268.400 124.311,268.547 124.800,269.000 124.800 C 269.453 124.800,269.600 124.311,269.600 122.800 C 269.600 121.289,269.453 120.800,269.000 120.800 C 268.547 120.800,268.400 121.289,268.400 122.800 M232.800 125.600 C 232.800 127.111,232.947 127.600,233.400 127.600 C 233.853 127.600,234.000 127.111,234.000 125.600 C 234.000 124.089,233.853 123.600,233.400 123.600 C 232.947 123.600,232.800 124.089,232.800 125.600 M306.000 127.200 C 306.000 128.533,306.178 129.600,306.400 129.600 C 306.622 129.600,306.800 128.533,306.800 127.200 C 306.800 125.867,306.622 124.800,306.400 124.800 C 306.178 124.800,306.000 125.867,306.000 127.200 M271.200 128.400 C 271.200 129.911,271.347 130.400,271.800 130.400 C 272.253 130.400,272.400 129.911,272.400 128.400 C 272.400 126.889,272.253 126.400,271.800 126.400 C 271.347 126.400,271.200 126.889,271.200 128.400 M360.800 127.000 C 360.800 127.330,360.980 127.600,361.200 127.600 C 361.420 127.600,361.600 127.330,361.600 127.000 C 361.600 126.670,361.420 126.400,361.200 126.400 C 360.980 126.400,360.800 126.670,360.800 127.000 M269.600 130.000 C 269.600 131.333,269.778 132.400,270.000 132.400 C 270.222 132.400,270.400 131.333,270.400 130.000 C 270.400 128.667,270.222 127.600,270.000 127.600 C 269.778 127.600,269.600 128.667,269.600 130.000 M234.000 131.400 C 234.000 132.390,234.180 133.200,234.400 133.200 C 234.620 133.200,234.800 132.390,234.800 131.400 C 234.800 130.410,234.620 129.600,234.400 129.600 C 234.180 129.600,234.000 130.410,234.000 131.400 M304.800 134.200 C 304.800 136.600,304.920 137.200,305.400 137.200 C 305.880 137.200,306.000 136.600,306.000 134.200 C 306.000 131.800,305.880 131.200,305.400 131.200 C 304.920 131.200,304.800 131.800,304.800 134.200 M270.400 133.800 C 270.400 134.130,270.580 134.400,270.800 134.400 C 271.020 134.400,271.200 134.130,271.200 133.800 C 271.200 133.470,271.020 133.200,270.800 133.200 C 270.580 133.200,270.400 133.470,270.400 133.800 M234.800 139.000 C 234.800 140.333,234.956 140.800,235.400 140.800 C 235.844 140.800,236.000 140.333,236.000 139.000 C 236.000 137.667,235.844 137.200,235.400 137.200 C 234.956 137.200,234.800 137.667,234.800 139.000 M360.800 138.600 C 360.800 138.930,360.980 139.200,361.200 139.200 C 361.420 139.200,361.600 138.930,361.600 138.600 C 361.600 138.270,361.420 138.000,361.200 138.000 C 360.980 138.000,360.800 138.270,360.800 138.600 M304.000 142.000 C 304.000 143.600,304.171 144.800,304.400 144.800 C 304.629 144.800,304.800 143.600,304.800 142.000 C 304.800 140.400,304.629 139.200,304.400 139.200 C 304.171 139.200,304.000 140.400,304.000 142.000 M360.800 141.400 C 360.800 141.730,360.980 142.000,361.200 142.000 C 361.420 142.000,361.600 141.730,361.600 141.400 C 361.600 141.070,361.420 140.800,361.200 140.800 C 360.980 140.800,360.800 141.070,360.800 141.400 M236.000 145.200 C 236.000 146.533,236.178 147.600,236.400 147.600 C 236.622 147.600,236.800 146.533,236.800 145.200 C 236.800 143.867,236.622 142.800,236.400 142.800 C 236.178 142.800,236.000 143.867,236.000 145.200 M303.200 148.600 C 303.200 150.333,303.369 151.600,303.600 151.600 C 303.831 151.600,304.000 150.333,304.000 148.600 C 304.000 146.867,303.831 145.600,303.600 145.600 C 303.369 145.600,303.200 146.867,303.200 148.600 M236.800 152.000 C 236.800 153.333,236.978 154.400,237.200 154.400 C 237.422 154.400,237.600 153.333,237.600 152.000 C 237.600 150.667,237.422 149.600,237.200 149.600 C 236.978 149.600,236.800 150.667,236.800 152.000 M360.800 152.000 C 360.800 152.880,360.980 153.600,361.200 153.600 C 361.420 153.600,361.600 152.880,361.600 152.000 C 361.600 151.120,361.420 150.400,361.200 150.400 C 360.980 150.400,360.800 151.120,360.800 152.000 M302.000 156.000 C 302.000 157.867,302.133 158.400,302.600 158.400 C 303.067 158.400,303.200 157.867,303.200 156.000 C 303.200 154.133,303.067 153.600,302.600 153.600 C 302.133 153.600,302.000 154.133,302.000 156.000 M237.600 159.200 C 237.600 161.422,237.724 162.000,238.200 162.000 C 238.676 162.000,238.800 161.422,238.800 159.200 C 238.800 156.978,238.676 156.400,238.200 156.400 C 237.724 156.400,237.600 156.978,237.600 159.200 M301.200 163.600 C 301.200 164.933,301.378 166.000,301.600 166.000 C 301.822 166.000,302.000 164.933,302.000 163.600 C 302.000 162.267,301.822 161.200,301.600 161.200 C 301.378 161.200,301.200 162.267,301.200 163.600 M238.800 165.600 C 238.800 166.933,238.978 168.000,239.200 168.000 C 239.422 168.000,239.600 166.933,239.600 165.600 C 239.600 164.267,239.422 163.200,239.200 163.200 C 238.978 163.200,238.800 164.267,238.800 165.600 M360.800 165.400 C 360.800 165.730,360.980 166.000,361.200 166.000 C 361.420 166.000,361.600 165.730,361.600 165.400 C 361.600 165.070,361.420 164.800,361.200 164.800 C 360.980 164.800,360.800 165.070,360.800 165.400 M300.000 170.800 C 300.000 172.311,300.147 172.800,300.600 172.800 C 301.053 172.800,301.200 172.311,301.200 170.800 C 301.200 169.289,301.053 168.800,300.600 168.800 C 300.147 168.800,300.000 169.289,300.000 170.800 M239.600 172.000 C 239.600 173.867,239.733 174.400,240.200 174.400 C 240.667 174.400,240.800 173.867,240.800 172.000 C 240.800 170.133,240.667 169.600,240.200 169.600 C 239.733 169.600,239.600 170.133,239.600 172.000 M360.800 172.200 C 360.800 172.530,360.980 172.800,361.200 172.800 C 361.420 172.800,361.600 172.530,361.600 172.200 C 361.600 171.870,361.420 171.600,361.200 171.600 C 360.980 171.600,360.800 171.870,360.800 172.200 M299.200 178.000 C 299.200 179.333,299.378 180.400,299.600 180.400 C 299.822 180.400,300.000 179.333,300.000 178.000 C 300.000 176.667,299.822 175.600,299.600 175.600 C 299.378 175.600,299.200 176.667,299.200 178.000 M240.800 178.800 C 240.800 180.133,240.978 181.200,241.200 181.200 C 241.422 181.200,241.600 180.133,241.600 178.800 C 241.600 177.467,241.422 176.400,241.200 176.400 C 240.978 176.400,240.800 177.467,240.800 178.800 M360.800 179.800 C 360.800 180.130,360.980 180.400,361.200 180.400 C 361.420 180.400,361.600 180.130,361.600 179.800 C 361.600 179.470,361.420 179.200,361.200 179.200 C 360.980 179.200,360.800 179.470,360.800 179.800 M298.400 185.200 C 298.400 186.300,298.580 187.200,298.800 187.200 C 299.020 187.200,299.200 186.300,299.200 185.200 C 299.200 184.100,299.020 183.200,298.800 183.200 C 298.580 183.200,298.400 184.100,298.400 185.200 M241.600 186.000 C 241.600 187.100,241.780 188.000,242.000 188.000 C 242.220 188.000,242.400 187.100,242.400 186.000 C 242.400 184.900,242.220 184.000,242.000 184.000 C 241.780 184.000,241.600 184.900,241.600 186.000 M297.200 192.400 C 297.200 194.267,297.333 194.800,297.800 194.800 C 298.267 194.800,298.400 194.267,298.400 192.400 C 298.400 190.533,298.267 190.000,297.800 190.000 C 297.333 190.000,297.200 190.533,297.200 192.400 M242.400 192.800 C 242.400 194.311,242.547 194.800,243.000 194.800 C 243.453 194.800,243.600 194.311,243.600 192.800 C 243.600 191.289,243.453 190.800,243.000 190.800 C 242.547 190.800,242.400 191.289,242.400 192.800 M243.600 199.000 C 243.600 199.770,243.780 200.400,244.000 200.400 C 244.220 200.400,244.400 199.770,244.400 199.000 C 244.400 198.230,244.220 197.600,244.000 197.600 C 243.780 197.600,243.600 198.230,243.600 199.000 M296.400 199.600 C 296.400 200.700,296.580 201.600,296.800 201.600 C 297.020 201.600,297.200 200.700,297.200 199.600 C 297.200 198.500,297.020 197.600,296.800 197.600 C 296.580 197.600,296.400 198.500,296.400 199.600 M360.800 200.600 C 360.800 201.150,360.980 201.600,361.200 201.600 C 361.420 201.600,361.600 201.150,361.600 200.600 C 361.600 200.050,361.420 199.600,361.200 199.600 C 360.980 199.600,360.800 200.050,360.800 200.600 M244.400 205.600 C 244.400 207.467,244.533 208.000,245.000 208.000 C 245.467 208.000,245.600 207.467,245.600 205.600 C 245.600 203.733,245.467 203.200,245.000 203.200 C 244.533 203.200,244.400 203.733,244.400 205.600 M295.200 206.800 C 295.200 208.667,295.333 209.200,295.800 209.200 C 296.267 209.200,296.400 208.667,296.400 206.800 C 296.400 204.933,296.267 204.400,295.800 204.400 C 295.333 204.400,295.200 204.933,295.200 206.800 M360.800 208.600 C 360.800 208.930,360.980 209.200,361.200 209.200 C 361.420 209.200,361.600 208.930,361.600 208.600 C 361.600 208.270,361.420 208.000,361.200 208.000 C 360.980 208.000,360.800 208.270,360.800 208.600 M245.600 212.400 C 245.600 213.733,245.778 214.800,246.000 214.800 C 246.222 214.800,246.400 213.733,246.400 212.400 C 246.400 211.067,246.222 210.000,246.000 210.000 C 245.778 210.000,245.600 211.067,245.600 212.400 M360.800 210.600 C 360.800 210.930,360.980 211.200,361.200 211.200 C 361.420 211.200,361.600 210.930,361.600 210.600 C 361.600 210.270,361.420 210.000,361.200 210.000 C 360.980 210.000,360.800 210.270,360.800 210.600 M294.400 214.000 C 294.400 215.600,294.571 216.800,294.800 216.800 C 295.029 216.800,295.200 215.600,295.200 214.000 C 295.200 212.400,295.029 211.200,294.800 211.200 C 294.571 211.200,294.400 212.400,294.400 214.000 M360.800 215.400 C 360.800 215.730,360.980 216.000,361.200 216.000 C 361.420 216.000,361.600 215.730,361.600 215.400 C 361.600 215.070,361.420 214.800,361.200 214.800 C 360.980 214.800,360.800 215.070,360.800 215.400 M246.400 219.200 C 246.400 220.533,246.578 221.600,246.800 221.600 C 247.022 221.600,247.200 220.533,247.200 219.200 C 247.200 217.867,247.022 216.800,246.800 216.800 C 246.578 216.800,246.400 217.867,246.400 219.200 M293.600 221.200 C 293.600 222.533,293.778 223.600,294.000 223.600 C 294.222 223.600,294.400 222.533,294.400 221.200 C 294.400 219.867,294.222 218.800,294.000 218.800 C 293.778 218.800,293.600 219.867,293.600 221.200 M247.200 225.400 C 247.200 227.800,247.320 228.400,247.800 228.400 C 248.280 228.400,248.400 227.800,248.400 225.400 C 248.400 223.000,248.280 222.400,247.800 222.400 C 247.320 222.400,247.200 223.000,247.200 225.400 M360.800 224.600 C 360.800 225.150,360.980 225.600,361.200 225.600 C 361.420 225.600,361.600 225.150,361.600 224.600 C 361.600 224.050,361.420 223.600,361.200 223.600 C 360.980 223.600,360.800 224.050,360.800 224.600 M292.400 228.400 C 292.400 230.622,292.524 231.200,293.000 231.200 C 293.476 231.200,293.600 230.622,293.600 228.400 C 293.600 226.178,293.476 225.600,293.000 225.600 C 292.524 225.600,292.400 226.178,292.400 228.400 M248.400 232.800 C 248.400 234.133,248.578 235.200,248.800 235.200 C 249.022 235.200,249.200 234.133,249.200 232.800 C 249.200 231.467,249.022 230.400,248.800 230.400 C 248.578 230.400,248.400 231.467,248.400 232.800 M291.600 235.000 C 291.600 236.733,291.769 238.000,292.000 238.000 C 292.231 238.000,292.400 236.733,292.400 235.000 C 292.400 233.267,292.231 232.000,292.000 232.000 C 291.769 232.000,291.600 233.267,291.600 235.000 M360.800 232.600 C 360.800 232.930,360.980 233.200,361.200 233.200 C 361.420 233.200,361.600 232.930,361.600 232.600 C 361.600 232.270,361.420 232.000,361.200 232.000 C 360.980 232.000,360.800 232.270,360.800 232.600 M249.200 238.800 C 249.200 240.311,249.347 240.800,249.800 240.800 C 250.253 240.800,250.400 240.311,250.400 238.800 C 250.400 237.289,250.253 236.800,249.800 236.800 C 249.347 236.800,249.200 237.289,249.200 238.800 M290.400 242.400 C 290.400 244.267,290.533 244.800,291.000 244.800 C 291.467 244.800,291.600 244.267,291.600 242.400 C 291.600 240.533,291.467 240.000,291.000 240.000 C 290.533 240.000,290.400 240.533,290.400 242.400 M250.400 245.200 C 250.400 246.533,250.578 247.600,250.800 247.600 C 251.022 247.600,251.200 246.533,251.200 245.200 C 251.200 243.867,251.022 242.800,250.800 242.800 C 250.578 242.800,250.400 243.867,250.400 245.200 M289.600 250.000 C 289.600 251.333,289.778 252.400,290.000 252.400 C 290.222 252.400,290.400 251.333,290.400 250.000 C 290.400 248.667,290.222 247.600,290.000 247.600 C 289.778 247.600,289.600 248.667,289.600 250.000 M251.200 252.400 C 251.200 253.500,251.380 254.400,251.600 254.400 C 251.820 254.400,252.000 253.500,252.000 252.400 C 252.000 251.300,251.820 250.400,251.600 250.400 C 251.380 250.400,251.200 251.300,251.200 252.400 M360.800 253.800 C 360.800 254.130,360.980 254.400,361.200 254.400 C 361.420 254.400,361.600 254.130,361.600 253.800 C 361.600 253.470,361.420 253.200,361.200 253.200 C 360.980 253.200,360.800 253.470,360.800 253.800 M288.800 256.200 L 288.800 257.200 270.300 257.296 L 251.800 257.392 269.800 257.507 C 279.700 257.570,288.205 257.524,288.700 257.403 C 289.613 257.181,290.063 255.200,289.200 255.200 C 288.980 255.200,288.800 255.650,288.800 256.200 M192.100 257.500 C 199.305 257.561,211.095 257.561,218.300 257.500 C 225.505 257.439,219.610 257.389,205.200 257.389 C 190.790 257.389,184.895 257.439,192.100 257.500 M39.655 277.158 C 39.194 277.449,39.194 277.537,39.655 277.720 C 40.042 277.874,40.055 277.946,39.700 277.968 C 38.848 278.022,38.980 371.430,39.833 371.757 C 40.181 371.891,48.461 372.000,58.233 372.000 L 76.000 372.000 76.046 341.700 C 76.072 325.035,76.175 311.715,76.276 312.100 C 76.376 312.485,76.625 312.800,76.829 312.800 C 77.033 312.800,77.200 313.520,77.200 314.400 C 77.200 315.280,77.362 316.000,77.559 316.000 C 77.757 316.000,78.045 317.260,78.200 318.800 C 78.355 320.340,78.643 321.600,78.841 321.600 C 79.038 321.600,79.200 322.230,79.200 323.000 C 79.200 323.770,79.362 324.400,79.559 324.400 C 79.757 324.400,80.045 325.660,80.200 327.200 C 80.355 328.740,80.643 330.000,80.841 330.000 C 81.038 330.000,81.200 330.630,81.200 331.400 C 81.200 332.170,81.362 332.800,81.559 332.800 C 81.757 332.800,82.045 334.060,82.200 335.600 C 82.355 337.140,82.643 338.400,82.841 338.400 C 83.038 338.400,83.200 339.030,83.200 339.800 C 83.200 340.570,83.380 341.200,83.600 341.200 C 83.820 341.200,84.000 341.830,84.000 342.600 C 84.000 343.370,84.162 344.000,84.359 344.000 C 84.557 344.000,84.845 345.260,85.000 346.800 C 85.155 348.340,85.443 349.600,85.641 349.600 C 85.838 349.600,86.000 350.230,86.000 351.000 C 86.000 351.770,86.162 352.400,86.359 352.400 C 86.557 352.400,86.845 353.660,87.000 355.200 C 87.155 356.740,87.443 358.000,87.641 358.000 C 87.838 358.000,88.000 358.630,88.000 359.400 C 88.000 360.170,88.166 360.800,88.368 360.800 C 88.571 360.800,88.862 361.970,89.015 363.400 C 89.168 364.830,89.452 366.000,89.647 366.000 C 89.841 366.000,90.000 366.630,90.000 367.400 C 90.000 368.170,90.169 368.800,90.376 368.800 C 90.583 368.800,90.808 369.475,90.876 370.300 L 91.000 371.800 104.100 371.905 L 117.200 372.011 117.200 370.605 C 117.200 369.832,117.365 369.200,117.566 369.200 C 117.767 369.200,118.058 367.850,118.213 366.200 C 118.367 364.550,118.653 363.200,118.847 363.200 C 119.041 363.200,119.200 362.570,119.200 361.800 C 119.200 361.030,119.359 360.400,119.553 360.400 C 119.747 360.400,120.033 359.050,120.187 357.400 C 120.342 355.750,120.633 354.400,120.834 354.400 C 121.035 354.400,121.200 353.770,121.200 353.000 C 121.200 352.230,121.359 351.600,121.553 351.600 C 121.747 351.600,122.033 350.250,122.187 348.600 C 122.342 346.950,122.633 345.600,122.834 345.600 C 123.035 345.600,123.200 344.880,123.200 344.000 C 123.200 343.120,123.359 342.400,123.553 342.400 C 123.747 342.400,124.033 341.050,124.187 339.400 C 124.342 337.750,124.633 336.400,124.834 336.400 C 125.035 336.400,125.200 335.680,125.200 334.800 C 125.200 333.920,125.380 333.200,125.600 333.200 C 125.820 333.200,126.000 332.570,126.000 331.800 C 126.000 331.030,126.168 330.400,126.373 330.400 C 126.577 330.400,126.871 328.960,127.024 327.200 C 127.178 325.440,127.460 324.000,127.652 324.000 C 127.843 324.000,128.000 323.370,128.000 322.600 C 128.000 321.830,128.165 321.200,128.366 321.200 C 128.567 321.200,128.858 319.850,129.013 318.200 C 129.167 316.550,129.453 315.200,129.647 315.200 C 129.841 315.200,130.000 314.480,130.000 313.600 C 130.000 312.720,130.167 312.000,130.372 312.000 C 130.577 312.000,130.822 311.595,130.918 311.100 C 131.013 310.605,131.116 324.105,131.146 341.100 L 131.200 372.000 149.200 372.000 L 167.200 372.000 167.200 324.397 L 167.200 276.794 140.300 276.897 L 113.400 277.000 113.278 278.900 C 113.211 279.945,112.986 280.800,112.778 280.800 C 112.570 280.800,112.400 281.430,112.400 282.200 C 112.400 282.970,112.241 283.600,112.047 283.600 C 111.853 283.600,111.567 285.130,111.411 287.000 C 111.256 288.870,110.964 290.400,110.764 290.400 C 110.564 290.400,110.400 291.120,110.400 292.000 C 110.400 292.880,110.239 293.600,110.042 293.600 C 109.845 293.600,109.556 295.040,109.400 296.800 C 109.244 298.560,108.955 300.000,108.758 300.000 C 108.561 300.000,108.400 300.630,108.400 301.400 C 108.400 302.170,108.220 302.800,108.000 302.800 C 107.780 302.800,107.600 303.520,107.600 304.400 C 107.600 305.280,107.432 306.000,107.227 306.000 C 107.023 306.000,106.729 307.440,106.576 309.200 C 106.422 310.960,106.140 312.400,105.948 312.400 C 105.757 312.400,105.600 313.030,105.600 313.800 C 105.600 314.570,105.420 315.200,105.200 315.200 C 104.980 315.200,104.800 315.905,104.800 316.767 C 104.800 318.539,104.484 319.600,103.957 319.600 C 103.761 319.600,103.600 319.150,103.600 318.600 C 103.600 318.050,103.441 317.600,103.247 317.600 C 103.053 317.600,102.767 316.250,102.613 314.600 C 102.458 312.950,102.167 311.600,101.966 311.600 C 101.765 311.600,101.600 311.060,101.600 310.400 C 101.600 309.740,101.438 309.200,101.241 309.200 C 101.043 309.200,100.755 307.940,100.600 306.400 C 100.445 304.860,100.157 303.600,99.959 303.600 C 99.762 303.600,99.600 302.970,99.600 302.200 C 99.600 301.430,99.420 300.800,99.200 300.800 C 98.980 300.800,98.800 300.260,98.800 299.600 C 98.800 298.940,98.639 298.400,98.442 298.400 C 98.245 298.400,97.956 296.960,97.800 295.200 C 97.644 293.440,97.355 292.000,97.158 292.000 C 96.961 292.000,96.800 291.370,96.800 290.600 C 96.800 289.830,96.638 289.200,96.441 289.200 C 96.243 289.200,95.955 287.940,95.800 286.400 C 95.645 284.860,95.357 283.600,95.159 283.600 C 94.962 283.600,94.800 282.970,94.800 282.200 C 94.800 281.430,94.644 280.800,94.453 280.800 C 94.262 280.800,94.005 280.054,93.883 279.142 C 93.761 278.231,93.422 277.333,93.130 277.148 C 92.428 276.703,40.358 276.712,39.655 277.158 M184.669 277.064 C 184.521 277.212,184.400 298.633,184.400 324.667 L 184.400 372.000 220.200 372.000 L 256.000 372.000 256.000 362.600 L 256.000 353.200 241.433 353.200 C 233.421 353.200,226.581 353.091,226.233 352.957 C 225.679 352.745,225.600 351.450,225.600 342.557 L 225.600 332.400 238.400 332.400 L 251.200 332.400 251.200 323.200 L 251.200 314.000 238.400 314.000 L 225.600 314.000 225.600 305.000 L 225.600 296.000 239.407 296.000 L 253.214 296.000 253.107 286.500 L 253.000 277.000 218.969 276.898 C 200.252 276.842,184.817 276.917,184.669 277.064 M268.000 277.200 C 267.600 277.458,267.567 277.590,267.900 277.594 C 268.635 277.603,268.635 371.194,267.900 371.212 C 267.625 371.219,267.725 371.413,268.122 371.644 C 269.384 372.378,337.178 371.867,342.452 371.084 C 349.729 370.003,355.570 367.906,358.192 365.433 C 359.028 364.645,359.867 364.000,360.056 364.000 C 360.245 364.000,360.400 363.730,360.400 363.400 C 360.400 363.070,360.566 362.800,360.768 362.800 C 360.971 362.800,361.255 362.260,361.400 361.600 C 361.545 360.940,361.829 360.400,362.032 360.400 C 362.234 360.400,362.400 359.875,362.400 359.233 C 362.400 358.592,362.625 357.992,362.900 357.900 C 363.294 357.768,363.400 350.951,363.400 325.600 C 363.400 300.249,363.294 293.431,362.900 293.300 C 362.625 293.208,362.400 292.698,362.400 292.167 C 362.400 291.635,362.220 291.200,362.000 291.200 C 361.780 291.200,361.600 290.843,361.600 290.407 C 361.600 289.245,354.955 282.826,353.732 282.807 C 353.475 282.803,352.755 282.547,352.132 282.237 C 348.021 280.193,341.868 278.772,333.800 278.003 C 323.799 277.051,269.262 276.385,268.000 277.200 M315.982 293.589 C 319.673 294.123,321.162 295.021,321.462 296.897 C 321.594 297.724,321.859 298.400,322.051 298.400 C 322.246 298.400,322.400 309.442,322.400 323.400 C 322.400 337.150,322.245 348.400,322.056 348.400 C 321.867 348.400,321.610 349.390,321.485 350.600 C 321.129 354.047,319.277 355.155,313.300 355.497 L 309.600 355.709 309.600 324.455 L 309.600 293.200 311.500 293.208 C 312.545 293.212,314.562 293.384,315.982 293.589 " stroke="none" fill="#6f9ed3" fill-rule="evenodd"></path><path id="path2" d="M0.000 200.000 L 0.000 400.000 200.000 400.000 L 400.000 400.000 400.000 200.000 L 400.000 0.000 200.000 0.000 L 0.000 0.000 0.000 200.000 M166.800 53.600 L 166.800 76.800 149.400 76.800 L 132.000 76.800 132.000 166.957 C 132.000 248.800,131.942 257.137,131.367 257.357 C 131.019 257.491,117.699 257.600,101.767 257.600 L 72.800 257.600 72.800 167.200 L 72.800 76.800 55.400 76.800 L 38.000 76.800 38.000 53.600 L 38.000 30.400 102.400 30.400 L 166.800 30.400 166.800 53.600 M256.000 32.000 C 256.000 32.880,256.180 33.600,256.400 33.600 C 256.629 33.600,256.800 34.800,256.800 36.400 C 256.800 38.622,256.924 39.200,257.400 39.200 C 257.886 39.200,258.000 39.844,258.000 42.600 C 258.000 44.600,258.165 46.000,258.400 46.000 C 258.635 46.000,258.800 47.400,258.800 49.400 C 258.800 52.156,258.914 52.800,259.400 52.800 C 259.883 52.800,260.000 53.422,260.000 56.000 C 260.000 57.867,260.167 59.200,260.400 59.200 C 260.635 59.200,260.800 60.600,260.800 62.600 C 260.800 64.600,260.965 66.000,261.200 66.000 C 261.439 66.000,261.600 67.533,261.600 69.800 C 261.600 72.911,261.709 73.600,262.200 73.600 C 262.686 73.600,262.800 74.244,262.800 77.000 C 262.800 79.000,262.965 80.400,263.200 80.400 C 263.435 80.400,263.600 81.800,263.600 83.800 C 263.600 86.556,263.714 87.200,264.200 87.200 C 264.686 87.200,264.800 87.844,264.800 90.600 C 264.800 92.600,264.965 94.000,265.200 94.000 C 265.435 94.000,265.600 95.400,265.600 97.400 C 265.600 99.400,265.765 100.800,266.000 100.800 C 266.229 100.800,266.400 102.000,266.400 103.600 C 266.400 105.822,266.524 106.400,267.000 106.400 C 267.491 106.400,267.600 107.089,267.600 110.200 C 267.600 112.467,267.761 114.000,268.000 114.000 C 268.235 114.000,268.400 115.400,268.400 117.400 C 268.400 120.156,268.514 120.800,269.000 120.800 C 269.486 120.800,269.600 121.444,269.600 124.200 C 269.600 126.200,269.765 127.600,270.000 127.600 C 270.229 127.600,270.400 128.800,270.400 130.400 C 270.400 132.000,270.571 133.200,270.800 133.200 C 271.035 133.200,271.200 131.800,271.200 129.800 C 271.200 127.044,271.314 126.400,271.800 126.400 C 272.295 126.400,272.400 125.667,272.400 122.200 C 272.400 119.667,272.559 118.000,272.800 118.000 C 273.039 118.000,273.200 116.467,273.200 114.200 C 273.200 111.089,273.309 110.400,273.800 110.400 C 274.293 110.400,274.400 109.689,274.400 106.400 C 274.400 104.000,274.560 102.400,274.800 102.400 C 275.039 102.400,275.200 100.867,275.200 98.600 C 275.200 96.333,275.361 94.800,275.600 94.800 C 275.839 94.800,276.000 93.267,276.000 91.000 C 276.000 87.889,276.109 87.200,276.600 87.200 C 277.091 87.200,277.200 86.511,277.200 83.400 C 277.200 81.133,277.361 79.600,277.600 79.600 C 277.835 79.600,278.000 78.200,278.000 76.200 C 278.000 73.444,278.114 72.800,278.600 72.800 C 279.091 72.800,279.200 72.111,279.200 69.000 C 279.200 66.733,279.361 65.200,279.600 65.200 C 279.839 65.200,280.000 63.667,280.000 61.400 C 280.000 59.133,280.161 57.600,280.400 57.600 C 280.640 57.600,280.800 56.000,280.800 53.600 C 280.800 50.311,280.907 49.600,281.400 49.600 C 281.891 49.600,282.000 48.911,282.000 45.800 C 282.000 43.533,282.161 42.000,282.400 42.000 C 282.639 42.000,282.800 40.467,282.800 38.200 C 282.800 35.089,282.909 34.400,283.400 34.400 C 283.853 34.400,284.000 33.911,284.000 32.400 L 284.000 30.400 322.400 30.400 C 355.263 30.400,360.800 30.482,360.800 30.967 C 360.800 31.278,361.025 31.638,361.300 31.767 C 361.700 31.953,361.700 32.047,361.300 32.233 C 361.025 32.362,360.800 32.707,360.800 33.000 C 360.800 33.293,361.025 33.638,361.300 33.767 C 361.700 33.953,361.700 34.047,361.300 34.233 C 360.633 34.545,360.633 38.255,361.300 38.567 C 361.700 38.753,361.700 38.847,361.300 39.033 C 360.709 39.309,360.618 42.000,361.200 42.000 C 361.420 42.000,361.600 42.270,361.600 42.600 C 361.600 42.930,361.420 43.200,361.200 43.200 C 360.618 43.200,360.709 45.891,361.300 46.167 C 361.700 46.353,361.700 46.447,361.300 46.633 C 360.701 46.913,360.607 50.800,361.200 50.800 C 361.420 50.800,361.600 51.250,361.600 51.800 C 361.600 52.350,361.420 52.800,361.200 52.800 C 360.600 52.800,360.695 57.484,361.300 57.767 C 361.700 57.953,361.700 58.047,361.300 58.233 C 360.709 58.509,360.618 61.200,361.200 61.200 C 361.420 61.200,361.600 61.650,361.600 62.200 C 361.600 62.750,361.420 63.200,361.200 63.200 C 360.577 63.200,360.674 72.674,361.300 72.967 C 361.700 73.153,361.700 73.247,361.300 73.433 C 360.675 73.725,360.579 82.400,361.200 82.400 C 361.420 82.400,361.600 82.850,361.600 83.400 C 361.600 83.950,361.420 84.400,361.200 84.400 C 360.980 84.400,360.800 85.210,360.800 86.200 C 360.800 87.190,360.980 88.000,361.200 88.000 C 361.774 88.000,361.694 89.089,361.100 89.367 C 360.700 89.553,360.700 89.647,361.100 89.833 C 361.748 90.136,361.748 91.864,361.100 92.167 C 360.700 92.353,360.700 92.447,361.100 92.633 C 361.745 92.934,361.745 93.866,361.100 94.167 C 360.700 94.353,360.700 94.447,361.100 94.633 C 361.694 94.911,361.774 96.000,361.200 96.000 C 360.600 96.000,360.695 100.684,361.300 100.967 C 361.700 101.153,361.700 101.247,361.300 101.433 C 360.679 101.723,360.583 109.200,361.200 109.200 C 361.774 109.200,361.694 110.289,361.100 110.567 C 360.700 110.753,360.700 110.847,361.100 111.033 C 361.780 111.351,361.780 115.849,361.100 116.167 C 360.700 116.353,360.700 116.447,361.100 116.633 C 361.694 116.911,361.774 118.000,361.200 118.000 C 360.621 118.000,360.708 119.890,361.300 120.167 C 361.700 120.353,361.700 120.447,361.300 120.633 C 360.688 120.919,360.593 126.400,361.200 126.400 C 361.420 126.400,361.600 126.670,361.600 127.000 C 361.600 127.330,361.420 127.600,361.200 127.600 C 360.954 127.600,360.800 129.600,360.800 132.800 C 360.800 136.000,360.954 138.000,361.200 138.000 C 361.420 138.000,361.600 138.270,361.600 138.600 C 361.600 138.930,361.420 139.200,361.200 139.200 C 360.980 139.200,360.800 139.560,360.800 140.000 C 360.800 140.440,360.980 140.800,361.200 140.800 C 361.420 140.800,361.600 141.070,361.600 141.400 C 361.600 141.730,361.420 142.000,361.200 142.000 C 360.959 142.000,360.800 143.667,360.800 146.200 C 360.800 148.733,360.959 150.400,361.200 150.400 C 361.785 150.400,361.693 153.496,361.100 153.736 C 360.722 153.889,360.747 154.052,361.200 154.400 C 361.653 154.748,361.678 154.911,361.300 155.064 C 360.997 155.187,360.800 156.028,360.800 157.200 C 360.800 158.356,361.001 159.227,361.300 159.367 C 361.700 159.553,361.700 159.647,361.300 159.833 C 360.695 160.116,360.600 164.800,361.200 164.800 C 361.420 164.800,361.600 165.070,361.600 165.400 C 361.600 165.730,361.420 166.000,361.200 166.000 C 360.971 166.000,360.800 167.200,360.800 168.800 C 360.800 170.400,360.971 171.600,361.200 171.600 C 361.420 171.600,361.600 171.870,361.600 172.200 C 361.600 172.530,361.420 172.800,361.200 172.800 C 360.967 172.800,360.800 174.133,360.800 176.000 C 360.800 177.867,360.967 179.200,361.200 179.200 C 361.420 179.200,361.600 179.470,361.600 179.800 C 361.600 180.130,361.420 180.400,361.200 180.400 C 360.567 180.400,360.665 196.670,361.300 196.967 C 361.700 197.153,361.700 197.247,361.300 197.433 C 360.708 197.710,360.621 199.600,361.200 199.600 C 361.420 199.600,361.600 200.050,361.600 200.600 C 361.600 201.150,361.420 201.600,361.200 201.600 C 360.967 201.600,360.800 202.933,360.800 204.800 C 360.800 206.667,360.967 208.000,361.200 208.000 C 361.774 208.000,361.694 209.089,361.100 209.367 C 360.700 209.553,360.700 209.647,361.100 209.833 C 361.694 210.111,361.774 211.200,361.200 211.200 C 360.980 211.200,360.800 212.010,360.800 213.000 C 360.800 213.990,360.980 214.800,361.200 214.800 C 361.420 214.800,361.600 215.070,361.600 215.400 C 361.600 215.730,361.420 216.000,361.200 216.000 C 360.618 216.000,360.709 218.691,361.300 218.967 C 361.700 219.153,361.700 219.247,361.300 219.433 C 360.701 219.713,360.607 223.600,361.200 223.600 C 361.420 223.600,361.600 224.050,361.600 224.600 C 361.600 225.150,361.420 225.600,361.200 225.600 C 360.599 225.600,360.694 230.290,361.300 230.536 C 361.678 230.689,361.653 230.852,361.200 231.200 C 360.747 231.548,360.722 231.711,361.100 231.864 C 361.694 232.105,361.776 233.200,361.200 233.200 C 360.571 233.200,360.669 245.472,361.300 245.767 C 361.700 245.953,361.700 246.047,361.300 246.233 C 360.682 246.522,360.586 253.200,361.200 253.200 C 361.420 253.200,361.600 253.470,361.600 253.800 C 361.600 254.130,361.420 254.400,361.200 254.400 C 360.980 254.400,360.800 254.760,360.800 255.200 C 360.800 255.640,360.980 256.000,361.200 256.000 C 361.846 256.000,361.658 257.092,360.967 257.357 C 360.141 257.674,310.259 257.674,309.433 257.357 C 308.859 257.137,308.800 250.492,308.800 186.157 C 308.800 139.119,308.665 115.200,308.400 115.200 C 308.167 115.200,308.000 116.533,308.000 118.400 C 308.000 120.978,307.883 121.600,307.400 121.600 C 306.907 121.600,306.800 122.311,306.800 125.600 C 306.800 128.000,306.640 129.600,306.400 129.600 C 306.161 129.600,306.000 131.133,306.000 133.400 C 306.000 136.511,305.891 137.200,305.400 137.200 C 304.909 137.200,304.800 137.889,304.800 141.000 C 304.800 143.267,304.639 144.800,304.400 144.800 C 304.165 144.800,304.000 146.200,304.000 148.200 C 304.000 150.200,303.835 151.600,303.600 151.600 C 303.365 151.600,303.200 153.000,303.200 155.000 C 303.200 157.756,303.086 158.400,302.600 158.400 C 302.109 158.400,302.000 159.089,302.000 162.200 C 302.000 164.467,301.839 166.000,301.600 166.000 C 301.365 166.000,301.200 167.400,301.200 169.400 C 301.200 172.156,301.086 172.800,300.600 172.800 C 300.109 172.800,300.000 173.489,300.000 176.600 C 300.000 178.867,299.839 180.400,299.600 180.400 C 299.365 180.400,299.200 181.800,299.200 183.800 C 299.200 185.800,299.035 187.200,298.800 187.200 C 298.561 187.200,298.400 188.733,298.400 191.000 C 298.400 194.111,298.291 194.800,297.800 194.800 C 297.314 194.800,297.200 195.444,297.200 198.200 C 297.200 200.200,297.035 201.600,296.800 201.600 C 296.561 201.600,296.400 203.133,296.400 205.400 C 296.400 208.511,296.291 209.200,295.800 209.200 C 295.309 209.200,295.200 209.889,295.200 213.000 C 295.200 215.267,295.039 216.800,294.800 216.800 C 294.565 216.800,294.400 218.200,294.400 220.200 C 294.400 222.200,294.235 223.600,294.000 223.600 C 293.761 223.600,293.600 225.133,293.600 227.400 C 293.600 230.511,293.491 231.200,293.000 231.200 C 292.514 231.200,292.400 231.844,292.400 234.600 C 292.400 236.600,292.235 238.000,292.000 238.000 C 291.765 238.000,291.600 239.400,291.600 241.400 C 291.600 244.156,291.486 244.800,291.000 244.800 C 290.509 244.800,290.400 245.489,290.400 248.600 C 290.400 250.867,290.239 252.400,290.000 252.400 C 289.779 252.400,289.600 253.452,289.600 254.757 C 289.600 257.834,291.199 257.600,270.167 257.600 L 252.000 257.600 252.000 256.000 C 252.000 255.120,251.820 254.400,251.600 254.400 C 251.365 254.400,251.200 253.000,251.200 251.000 C 251.200 249.000,251.035 247.600,250.800 247.600 C 250.565 247.600,250.400 246.200,250.400 244.200 C 250.400 241.444,250.286 240.800,249.800 240.800 C 249.324 240.800,249.200 240.222,249.200 238.000 C 249.200 236.400,249.029 235.200,248.800 235.200 C 248.565 235.200,248.400 233.800,248.400 231.800 C 248.400 229.044,248.286 228.400,247.800 228.400 C 247.314 228.400,247.200 227.756,247.200 225.000 C 247.200 223.000,247.035 221.600,246.800 221.600 C 246.565 221.600,246.400 220.200,246.400 218.200 C 246.400 216.200,246.235 214.800,246.000 214.800 C 245.765 214.800,245.600 213.400,245.600 211.400 C 245.600 208.644,245.486 208.000,245.000 208.000 C 244.509 208.000,244.400 207.311,244.400 204.200 C 244.400 201.933,244.239 200.400,244.000 200.400 C 243.771 200.400,243.600 199.200,243.600 197.600 C 243.600 195.378,243.476 194.800,243.000 194.800 C 242.514 194.800,242.400 194.156,242.400 191.400 C 242.400 189.400,242.235 188.000,242.000 188.000 C 241.765 188.000,241.600 186.600,241.600 184.600 C 241.600 182.600,241.435 181.200,241.200 181.200 C 240.965 181.200,240.800 179.800,240.800 177.800 C 240.800 175.044,240.686 174.400,240.200 174.400 C 239.717 174.400,239.600 173.778,239.600 171.200 C 239.600 169.333,239.433 168.000,239.200 168.000 C 238.969 168.000,238.800 166.733,238.800 165.000 C 238.800 162.600,238.680 162.000,238.200 162.000 C 237.709 162.000,237.600 161.311,237.600 158.200 C 237.600 155.933,237.439 154.400,237.200 154.400 C 236.965 154.400,236.800 153.000,236.800 151.000 C 236.800 149.000,236.635 147.600,236.400 147.600 C 236.165 147.600,236.000 146.200,236.000 144.200 C 236.000 141.444,235.886 140.800,235.400 140.800 C 234.909 140.800,234.800 140.111,234.800 137.000 C 234.800 134.733,234.639 133.200,234.400 133.200 C 234.171 133.200,234.000 132.000,234.000 130.400 C 234.000 128.178,233.876 127.600,233.400 127.600 C 232.914 127.600,232.800 126.956,232.800 124.200 C 232.800 122.200,232.635 120.800,232.400 120.800 C 232.178 120.800,232.000 119.733,232.000 118.400 C 232.000 117.067,231.822 116.000,231.600 116.000 C 231.335 116.000,231.200 139.867,231.200 186.800 L 231.200 257.600 205.200 257.600 L 179.200 257.600 179.200 144.000 L 179.200 30.400 217.600 30.400 L 256.000 30.400 256.000 32.000 M93.130 277.148 C 93.422 277.333,93.761 278.231,93.883 279.142 C 94.005 280.054,94.262 280.800,94.453 280.800 C 94.644 280.800,94.800 281.430,94.800 282.200 C 94.800 282.970,94.962 283.600,95.159 283.600 C 95.357 283.600,95.645 284.860,95.800 286.400 C 95.955 287.940,96.243 289.200,96.441 289.200 C 96.638 289.200,96.800 289.830,96.800 290.600 C 96.800 291.370,96.961 292.000,97.158 292.000 C 97.355 292.000,97.644 293.440,97.800 295.200 C 97.956 296.960,98.245 298.400,98.442 298.400 C 98.639 298.400,98.800 298.940,98.800 299.600 C 98.800 300.260,98.980 300.800,99.200 300.800 C 99.420 300.800,99.600 301.430,99.600 302.200 C 99.600 302.970,99.762 303.600,99.959 303.600 C 100.157 303.600,100.445 304.860,100.600 306.400 C 100.755 307.940,101.043 309.200,101.241 309.200 C 101.438 309.200,101.600 309.740,101.600 310.400 C 101.600 311.060,101.765 311.600,101.966 311.600 C 102.167 311.600,102.458 312.950,102.613 314.600 C 102.767 316.250,103.053 317.600,103.247 317.600 C 103.441 317.600,103.600 318.050,103.600 318.600 C 103.600 319.150,103.761 319.600,103.957 319.600 C 104.484 319.600,104.800 318.539,104.800 316.767 C 104.800 315.905,104.980 315.200,105.200 315.200 C 105.420 315.200,105.600 314.570,105.600 313.800 C 105.600 313.030,105.757 312.400,105.948 312.400 C 106.140 312.400,106.422 310.960,106.576 309.200 C 106.729 307.440,107.023 306.000,107.227 306.000 C 107.432 306.000,107.600 305.280,107.600 304.400 C 107.600 303.520,107.780 302.800,108.000 302.800 C 108.220 302.800,108.400 302.170,108.400 301.400 C 108.400 300.630,108.561 300.000,108.758 300.000 C 108.955 300.000,109.244 298.560,109.400 296.800 C 109.556 295.040,109.845 293.600,110.042 293.600 C 110.239 293.600,110.400 292.880,110.400 292.000 C 110.400 291.120,110.564 290.400,110.764 290.400 C 110.964 290.400,111.256 288.870,111.411 287.000 C 111.567 285.130,111.853 283.600,112.047 283.600 C 112.241 283.600,112.400 282.970,112.400 282.200 C 112.400 281.430,112.570 280.800,112.778 280.800 C 112.986 280.800,113.211 279.945,113.278 278.900 L 113.400 277.000 140.300 276.897 L 167.200 276.794 167.200 324.397 L 167.200 372.000 149.200 372.000 L 131.200 372.000 131.146 341.100 C 131.116 324.105,131.013 310.605,130.918 311.100 C 130.822 311.595,130.577 312.000,130.372 312.000 C 130.167 312.000,130.000 312.720,130.000 313.600 C 130.000 314.480,129.841 315.200,129.647 315.200 C 129.453 315.200,129.167 316.550,129.013 318.200 C 128.858 319.850,128.567 321.200,128.366 321.200 C 128.165 321.200,128.000 321.830,128.000 322.600 C 128.000 323.370,127.843 324.000,127.652 324.000 C 127.460 324.000,127.178 325.440,127.024 327.200 C 126.871 328.960,126.577 330.400,126.373 330.400 C 126.168 330.400,126.000 331.030,126.000 331.800 C 126.000 332.570,125.820 333.200,125.600 333.200 C 125.380 333.200,125.200 333.920,125.200 334.800 C 125.200 335.680,125.035 336.400,124.834 336.400 C 124.633 336.400,124.342 337.750,124.187 339.400 C 124.033 341.050,123.747 342.400,123.553 342.400 C 123.359 342.400,123.200 343.120,123.200 344.000 C 123.200 344.880,123.035 345.600,122.834 345.600 C 122.633 345.600,122.342 346.950,122.187 348.600 C 122.033 350.250,121.747 351.600,121.553 351.600 C 121.359 351.600,121.200 352.230,121.200 353.000 C 121.200 353.770,121.035 354.400,120.834 354.400 C 120.633 354.400,120.342 355.750,120.187 357.400 C 120.033 359.050,119.747 360.400,119.553 360.400 C 119.359 360.400,119.200 361.030,119.200 361.800 C 119.200 362.570,119.041 363.200,118.847 363.200 C 118.653 363.200,118.367 364.550,118.213 366.200 C 118.058 367.850,117.767 369.200,117.566 369.200 C 117.365 369.200,117.200 369.832,117.200 370.605 L 117.200 372.011 104.100 371.905 L 91.000 371.800 90.876 370.300 C 90.808 369.475,90.583 368.800,90.376 368.800 C 90.169 368.800,90.000 368.170,90.000 367.400 C 90.000 366.630,89.841 366.000,89.647 366.000 C 89.452 366.000,89.168 364.830,89.015 363.400 C 88.862 361.970,88.571 360.800,88.368 360.800 C 88.166 360.800,88.000 360.170,88.000 359.400 C 88.000 358.630,87.838 358.000,87.641 358.000 C 87.443 358.000,87.155 356.740,87.000 355.200 C 86.845 353.660,86.557 352.400,86.359 352.400 C 86.162 352.400,86.000 351.770,86.000 351.000 C 86.000 350.230,85.838 349.600,85.641 349.600 C 85.443 349.600,85.155 348.340,85.000 346.800 C 84.845 345.260,84.557 344.000,84.359 344.000 C 84.162 344.000,84.000 343.370,84.000 342.600 C 84.000 341.830,83.820 341.200,83.600 341.200 C 83.380 341.200,83.200 340.570,83.200 339.800 C 83.200 339.030,83.038 338.400,82.841 338.400 C 82.643 338.400,82.355 337.140,82.200 335.600 C 82.045 334.060,81.757 332.800,81.559 332.800 C 81.362 332.800,81.200 332.170,81.200 331.400 C 81.200 330.630,81.038 330.000,80.841 330.000 C 80.643 330.000,80.355 328.740,80.200 327.200 C 80.045 325.660,79.757 324.400,79.559 324.400 C 79.362 324.400,79.200 323.770,79.200 323.000 C 79.200 322.230,79.038 321.600,78.841 321.600 C 78.643 321.600,78.355 320.340,78.200 318.800 C 78.045 317.260,77.757 316.000,77.559 316.000 C 77.362 316.000,77.200 315.280,77.200 314.400 C 77.200 313.520,77.033 312.800,76.829 312.800 C 76.625 312.800,76.376 312.485,76.276 312.100 C 76.175 311.715,76.072 325.035,76.046 341.700 L 76.000 372.000 58.233 372.000 C 48.461 372.000,40.181 371.891,39.833 371.757 C 38.980 371.430,38.848 278.022,39.700 277.968 C 40.055 277.946,40.042 277.874,39.655 277.720 C 39.194 277.537,39.194 277.449,39.655 277.158 C 40.358 276.712,92.428 276.703,93.130 277.148 M253.107 286.500 L 253.214 296.000 239.407 296.000 L 225.600 296.000 225.600 305.000 L 225.600 314.000 238.400 314.000 L 251.200 314.000 251.200 323.200 L 251.200 332.400 238.400 332.400 L 225.600 332.400 225.600 342.557 C 225.600 351.450,225.679 352.745,226.233 352.957 C 226.581 353.091,233.421 353.200,241.433 353.200 L 256.000 353.200 256.000 362.600 L 256.000 372.000 220.200 372.000 L 184.400 372.000 184.400 324.667 C 184.400 298.633,184.521 277.212,184.669 277.064 C 184.817 276.917,200.252 276.842,218.969 276.898 L 253.000 277.000 253.107 286.500 M313.200 277.203 C 337.356 277.771,345.187 278.784,352.132 282.237 C 352.755 282.547,353.475 282.803,353.732 282.807 C 354.955 282.826,361.600 289.245,361.600 290.407 C 361.600 290.843,361.780 291.200,362.000 291.200 C 362.220 291.200,362.400 291.635,362.400 292.167 C 362.400 292.698,362.625 293.208,362.900 293.300 C 363.294 293.431,363.400 300.249,363.400 325.600 C 363.400 350.951,363.294 357.768,362.900 357.900 C 362.625 357.992,362.400 358.592,362.400 359.233 C 362.400 359.875,362.234 360.400,362.032 360.400 C 361.829 360.400,361.545 360.940,361.400 361.600 C 361.255 362.260,360.971 362.800,360.768 362.800 C 360.566 362.800,360.400 363.070,360.400 363.400 C 360.400 363.730,360.245 364.000,360.056 364.000 C 359.867 364.000,359.028 364.645,358.192 365.433 C 355.570 367.906,349.729 370.003,342.452 371.084 C 337.178 371.867,269.384 372.378,268.122 371.644 C 267.725 371.413,267.625 371.219,267.900 371.212 C 268.635 371.194,268.635 277.603,267.900 277.594 C 267.567 277.590,267.600 277.458,268.000 277.200 C 268.772 276.701,291.946 276.703,313.200 277.203 M309.600 324.455 L 309.600 355.709 313.300 355.497 C 319.277 355.155,321.129 354.047,321.485 350.600 C 321.610 349.390,321.867 348.400,322.056 348.400 C 322.245 348.400,322.400 337.150,322.400 323.400 C 322.400 309.442,322.246 298.400,322.051 298.400 C 321.859 298.400,321.594 297.724,321.462 296.897 C 321.085 294.538,317.562 293.234,311.500 293.208 L 309.600 293.200 309.600 324.455 " stroke="none" fill="#ffffff" fill-rule="evenodd"></path></g></svg>