<?xml version="1.0" encoding="UTF-8"?>
<svg width="192px" height="192px" viewBox="0 0 192 192" version="1.1" xmlns="http://www.w3.org/2000/svg" xmlns:xlink="http://www.w3.org/1999/xlink">
    <!-- Generator: Sketch 53.2 (72643) - https://sketchapp.com -->
    <title>Loss</title>
    <desc>Created with Sketch.</desc>
    <g id="Main" stroke="none" stroke-width="1" fill="none" fill-rule="evenodd">
        <g transform="translate(-728.000000, -288.000000)" fill-rule="nonzero" id="Loss">
            <g transform="translate(728.000000, 288.000000)">
                <polygon id="Path" fill="#F1F3F5" points="192 96 192 -1.42108547e-14 96.2625 -5.68434189e-14 0 96 0 192 96.375 192"></polygon>
                <g id="Group" transform="translate(12.000000, 48.000000)" fill="#D9DFE5">
                    <path d="M150,63 L150,60 L162,60 L162,63 L150,63 Z M150,69 L150,66 L162,66 L162,69 L150,69 Z M147,81 L149.162933,81 C149.602851,81 149.96945,80.6194503 149.96945,80.1627907 L149.96945,72 L162.03055,72 L162.03055,80.1627907 C162.03055,80.6194503 162.397149,81 162.837067,81 L165,81 L155.98167,90 L147,81 Z" id="Shape"></path>
                    <path d="M3.03131365,3 L3.03131365,0 L15,0 L15,3 L3.03131365,3 Z M3,9 L3,6 L15,6 L15,9 L3,9 Z M0,21 L2.16293279,21 C2.60285132,21 2.9694501,20.6194503 2.9694501,20.1627907 L2.9694501,12 L15.0305499,12 L15.0305499,20.1627907 C15.0305499,20.6194503 15.3971487,21 15.8370672,21 L18,21 L8.98167006,30 L0,21 Z" id="Shape"></path>
                </g>
                <g id="Group" transform="translate(152.062500, 46.875000) scale(1, -1) translate(-152.062500, -46.875000) translate(144.000000, 10.500000)">
                    <g transform="translate(0.000000, 52.500000)" id="Path">
                        <path d="M10.125,13.875 L10.125,8.7375 L11.85,10.4625 C12.675,11.2875 13.9875,11.2875 14.8125,10.4625 C15.6375,9.6375 15.6375,8.325 14.8125,7.5375 L8.025,0.7875 L6.5625,2.25 C6.5625,2.25 6.5625,2.25 6.525,2.2875 L1.2375,7.575 C0.825,7.9875 0.6375,8.5125 0.6375,9.0375 C0.6375,9.5625 0.825,10.0875 1.2375,10.5 C2.0625,11.325 3.375,11.325 4.1625,10.5 L5.8875,8.775 L5.8875,13.875" fill="#C0C9D2"></path>
                        <path d="M10.8737011,10.5376799 L10.8737011,13.873072 C10.8737011,14.2883504 10.5413924,14.625 10.1314689,14.625 C9.72154543,14.625 9.38923677,14.2883504 9.38923677,13.873072 L9.38923677,8.72236504 C9.38923677,8.05246872 10.1887261,7.71698341 10.6563063,8.19067164 L12.3634403,9.92010609 C12.890036,10.4535807 13.7189868,10.4535807 14.2455825,9.92010609 C14.7701209,9.38871564 14.7701209,8.55849092 14.2470384,8.0524444 L8.05467072,1.81384403 L1.86085527,8.08857001 C1.61166187,8.34101865 1.48446431,8.66623462 1.48446431,9.02313625 C1.48446431,9.38003788 1.61166187,9.70525384 1.86085527,9.95770249 C2.38539361,10.4890929 3.20491285,10.4890929 3.7058859,9.95770249 L5.41301986,8.22826804 C5.88060004,7.75457981 6.6800894,8.09006512 6.6800894,8.75996144 L6.6800894,13.873072 C6.6800894,14.2883504 6.34778075,14.625 5.93785725,14.625 C5.52793375,14.625 5.19562509,14.2883504 5.19562509,13.873072 L5.19562509,10.5750614 L4.76762103,11.0085839 C3.6978462,12.1439405 1.9195529,12.1439405 0.81118049,11.0210893 C0.277550913,10.4804888 0,9.77085269 0,9.02313625 C0,8.27541981 0.277550913,7.56578365 0.81118049,7.02518321 L7.5283815,0.220234623 C7.81767359,-0.0728365234 8.28650809,-0.07349436 8.57660043,0.218763833 L15.2829132,6.97536891 C16.4036297,8.05911833 16.4036297,9.86064169 15.2952573,10.9834929 C14.1889422,12.1042599 12.4200806,12.1042599 11.3137655,10.9834929 L10.8737011,10.5376799 Z" fill="#7B8A9A"></path>
                        <path d="M10.125,16.125 C10.5392136,16.125 10.875,16.4607864 10.875,16.875 C10.875,17.2892136 10.5392136,17.625 10.125,17.625 L6,17.625 C5.58578644,17.625 5.25,17.2892136 5.25,16.875 C5.25,16.4607864 5.58578644,16.125 6,16.125 L10.125,16.125 Z" fill="#7B8A9A"></path>
                        <path d="M10.125,19.2 C10.5392136,19.2 10.875,19.5357864 10.875,19.95 C10.875,20.3642136 10.5392136,20.7 10.125,20.7 L6,20.7 C5.58578644,20.7 5.25,20.3642136 5.25,19.95 C5.25,19.5357864 5.58578644,19.2 6,19.2 L10.125,19.2 Z" fill="#7B8A9A"></path>
                    </g>
                    <g transform="translate(0.000000, 26.250000)" id="Path">
                        <path d="M10.125,13.875 L10.125,8.7375 L11.85,10.4625 C12.675,11.2875 13.9875,11.2875 14.8125,10.4625 C15.6375,9.6375 15.6375,8.325 14.8125,7.5375 L8.025,0.7875 L6.5625,2.25 C6.5625,2.25 6.5625,2.25 6.525,2.2875 L1.2375,7.575 C0.825,7.9875 0.6375,8.5125 0.6375,9.0375 C0.6375,9.5625 0.825,10.0875 1.2375,10.5 C2.0625,11.325 3.375,11.325 4.1625,10.5 L5.8875,8.775 L5.8875,13.875" fill="#C0C9D2"></path>
                        <path d="M10.8737011,10.5376799 L10.8737011,13.873072 C10.8737011,14.2883504 10.5413924,14.625 10.1314689,14.625 C9.72154543,14.625 9.38923677,14.2883504 9.38923677,13.873072 L9.38923677,8.72236504 C9.38923677,8.05246872 10.1887261,7.71698341 10.6563063,8.19067164 L12.3634403,9.92010609 C12.890036,10.4535807 13.7189868,10.4535807 14.2455825,9.92010609 C14.7701209,9.38871564 14.7701209,8.55849092 14.2470384,8.0524444 L8.05467072,1.81384403 L1.86085527,8.08857001 C1.61166187,8.34101865 1.48446431,8.66623462 1.48446431,9.02313625 C1.48446431,9.38003788 1.61166187,9.70525384 1.86085527,9.95770249 C2.38539361,10.4890929 3.20491285,10.4890929 3.7058859,9.95770249 L5.41301986,8.22826804 C5.88060004,7.75457981 6.6800894,8.09006512 6.6800894,8.75996144 L6.6800894,13.873072 C6.6800894,14.2883504 6.34778075,14.625 5.93785725,14.625 C5.52793375,14.625 5.19562509,14.2883504 5.19562509,13.873072 L5.19562509,10.5750614 L4.76762103,11.0085839 C3.6978462,12.1439405 1.9195529,12.1439405 0.81118049,11.0210893 C0.277550913,10.4804888 0,9.77085269 0,9.02313625 C0,8.27541981 0.277550913,7.56578365 0.81118049,7.02518321 L7.5283815,0.220234623 C7.81767359,-0.0728365234 8.28650809,-0.07349436 8.57660043,0.218763833 L15.2829132,6.97536891 C16.4036297,8.05911833 16.4036297,9.86064169 15.2952573,10.9834929 C14.1889422,12.1042599 12.4200806,12.1042599 11.3137655,10.9834929 L10.8737011,10.5376799 Z" fill="#7B8A9A"></path>
                        <path d="M10.125,16.125 C10.5392136,16.125 10.875,16.4607864 10.875,16.875 C10.875,17.2892136 10.5392136,17.625 10.125,17.625 L6,17.625 C5.58578644,17.625 5.25,17.2892136 5.25,16.875 C5.25,16.4607864 5.58578644,16.125 6,16.125 L10.125,16.125 Z" fill="#7B8A9A"></path>
                        <path d="M10.125,19.2 C10.5392136,19.2 10.875,19.5357864 10.875,19.95 C10.875,20.3642136 10.5392136,20.7 10.125,20.7 L6,20.7 C5.58578644,20.7 5.25,20.3642136 5.25,19.95 C5.25,19.5357864 5.58578644,19.2 6,19.2 L10.125,19.2 Z" fill="#7B8A9A"></path>
                    </g>
                    <g id="Path">
                        <path d="M10.125,13.875 L10.125,8.7375 L11.85,10.4625 C12.675,11.2875 13.9875,11.2875 14.8125,10.4625 C15.6375,9.6375 15.6375,8.325 14.8125,7.5375 L8.025,0.7875 L6.5625,2.25 C6.5625,2.25 6.5625,2.25 6.525,2.2875 L1.2375,7.575 C0.825,7.9875 0.6375,8.5125 0.6375,9.0375 C0.6375,9.5625 0.825,10.0875 1.2375,10.5 C2.0625,11.325 3.375,11.325 4.1625,10.5 L5.8875,8.775 L5.8875,13.875" fill="#C0C9D2"></path>
                        <path d="M10.8737011,10.5376799 L10.8737011,13.873072 C10.8737011,14.2883504 10.5413924,14.625 10.1314689,14.625 C9.72154543,14.625 9.38923677,14.2883504 9.38923677,13.873072 L9.38923677,8.72236504 C9.38923677,8.05246872 10.1887261,7.71698341 10.6563063,8.19067164 L12.3634403,9.92010609 C12.890036,10.4535807 13.7189868,10.4535807 14.2455825,9.92010609 C14.7701209,9.38871564 14.7701209,8.55849092 14.2470384,8.0524444 L8.05467072,1.81384403 L1.86085527,8.08857001 C1.61166187,8.34101865 1.48446431,8.66623462 1.48446431,9.02313625 C1.48446431,9.38003788 1.61166187,9.70525384 1.86085527,9.95770249 C2.38539361,10.4890929 3.20491285,10.4890929 3.7058859,9.95770249 L5.41301986,8.22826804 C5.88060004,7.75457981 6.6800894,8.09006512 6.6800894,8.75996144 L6.6800894,13.873072 C6.6800894,14.2883504 6.34778075,14.625 5.93785725,14.625 C5.52793375,14.625 5.19562509,14.2883504 5.19562509,13.873072 L5.19562509,10.5750614 L4.76762103,11.0085839 C3.6978462,12.1439405 1.9195529,12.1439405 0.81118049,11.0210893 C0.277550913,10.4804888 0,9.77085269 0,9.02313625 C0,8.27541981 0.277550913,7.56578365 0.81118049,7.02518321 L7.5283815,0.220234623 C7.81767359,-0.0728365234 8.28650809,-0.07349436 8.57660043,0.218763833 L15.2829132,6.97536891 C16.4036297,8.05911833 16.4036297,9.86064169 15.2952573,10.9834929 C14.1889422,12.1042599 12.4200806,12.1042599 11.3137655,10.9834929 L10.8737011,10.5376799 Z" fill="#7B8A9A"></path>
                        <path d="M10.125,16.125 C10.5392136,16.125 10.875,16.4607864 10.875,16.875 C10.875,17.2892136 10.5392136,17.625 10.125,17.625 L6,17.625 C5.58578644,17.625 5.25,17.2892136 5.25,16.875 C5.25,16.4607864 5.58578644,16.125 6,16.125 L10.125,16.125 Z" fill="#7B8A9A"></path>
                        <path d="M10.125,19.2 C10.5392136,19.2 10.875,19.5357864 10.875,19.95 C10.875,20.3642136 10.5392136,20.7 10.125,20.7 L6,20.7 C5.58578644,20.7 5.25,20.3642136 5.25,19.95 C5.25,19.5357864 5.58578644,19.2 6,19.2 L10.125,19.2 Z" fill="#7B8A9A"></path>
                    </g>
                </g>
                <path d="M127.6875,177.8625 C127.6875,182.475 123.9375,186.1875 119.3625,186.1875 L70.4625,186.1875 C65.85,186.1875 62.1375,182.4375 62.1375,177.8625 L62.1375,112.875 C62.1375,108.2625 65.8875,104.55 70.4625,104.55 L119.325,104.55 C123.9375,104.55 127.65,108.3 127.65,112.875 L127.65,177.8625 L127.6875,177.8625 Z" id="Path" fill="#FCEAEA"></path>
                <path d="M119.0625,108 L70.2,108 C65.5875,108 61.875,111.75 61.875,116.325 L61.875,176.4375 C61.875,181.05 65.625,184.7625 70.2,184.7625 L119.0625,184.7625 C123.675,184.7625 127.3875,181.0125 127.3875,176.4375 L127.3875,116.3625 C127.425,111.75 123.675,108 119.0625,108 Z" id="Path" fill="#F19696"></path>
                <path d="M117,170.400728 C117,173.989078 114.116505,176.925 110.592233,176.925 L102.782767,176.925 C99.2584951,176.925 96.375,173.989078 96.375,170.400728 L96.375,162.449272 C96.375,158.860922 99.2584951,156 102.782767,156 L110.592233,156 C114.116505,156 117,158.860922 117,162.449272 L117,170.400728 Z" id="Path" fill="#FCEAEA"></path>
                <path d="M119.871015,180.497635 L69.8058314,180.497635 C67.1930667,180.497635 64.887686,179.484122 63.3123426,177.8625 L61.2375,177.8625 C61.2375,182.017905 65.0798011,185.3625 69.7674084,185.3625 L119.832592,185.3625 C124.558622,185.3625 128.3625,181.984122 128.3625,177.8625 L126.287657,177.8625 C124.78916,179.484122 122.483779,180.497635 119.871015,180.497635 Z" id="Path" fill="#EC6D6D"></path>
                <path d="M125.968942,176.230329 L125.968942,111.769671 C125.968942,108.039575 122.891736,105 119.094109,105 L69.8748335,105 C66.0867924,105 63,108.030135 63,111.769671 L63,176.230329 C63,179.960425 66.0772061,183 69.8748335,183 L119.131883,183 C122.817553,183 125.839364,180.13143 126,176.53191 C125.979639,176.43452 125.968942,176.333654 125.968942,176.230329 Z M129,176.249003 C129,181.637157 124.561404,186 119.110503,186 L69.8894967,186 C64.4248111,186 60,181.623566 60,176.249003 L60,111.750997 C60,106.362843 64.4385956,102 69.8894967,102 L119.072757,102 C124.537443,102 128.962254,106.376434 128.962254,111.750997 L128.962254,175.916738 C128.986955,176.023576 129,176.134787 129,176.249003 Z" id="Path" fill="#E21A1A"></path>
                <path d="M117,127.2 C117,128.4375 115.9875,129.45 114.75,129.45 L75.0375,129.45 C73.8,129.45 72.7875,128.4375 72.7875,127.2 L72.7875,118.125 C72.7875,116.8875 73.8,115.875 75.0375,115.875 L114.75,115.875 C115.9875,115.875 117,116.8875 117,118.125 L117,127.2 Z" id="Path" fill="#E74343"></path>
                <path d="M115.875,127.2 L115.875,118.125 C115.875,117.50882 115.36618,117 114.75,117 L75.0375,117 C74.4213203,117 73.9125,117.50882 73.9125,118.125 L73.9125,127.2 C73.9125,127.81618 74.4213203,128.325 75.0375,128.325 L114.75,128.325 C115.36618,128.325 115.875,127.81618 115.875,127.2 Z M118.125,127.2 C118.125,129.05882 116.60882,130.575 114.75,130.575 L75.0375,130.575 C73.1786797,130.575 71.6625,129.05882 71.6625,127.2 L71.6625,118.125 C71.6625,116.26618 73.1786797,114.75 75.0375,114.75 L114.75,114.75 C116.60882,114.75 118.125,116.26618 118.125,118.125 L118.125,127.2 Z" id="Path" fill="#E21A1A"></path>
                <path d="M84.075,146.6625 L87.1125,146.6625 C87.7338203,146.6625 88.2375,147.16618 88.2375,147.7875 C88.2375,148.40882 87.7338203,148.9125 87.1125,148.9125 L84.075,148.9125 L84.075,151.95 C84.075,152.57132 83.5713203,153.075 82.95,153.075 C82.3286797,153.075 81.825,152.57132 81.825,151.95 L81.825,148.9125 L78.75,148.9125 C78.1286797,148.9125 77.625,148.40882 77.625,147.7875 C77.625,147.16618 78.1286797,146.6625 78.75,146.6625 L81.825,146.6625 L81.825,143.625 C81.825,143.00368 82.3286797,142.5 82.95,142.5 C83.5713203,142.5 84.075,143.00368 84.075,143.625 L84.075,146.6625 Z M108.442213,147.7875 L110.598016,149.957034 C111.035959,150.397767 111.033698,151.110074 110.592966,151.548016 C110.152233,151.985959 109.439926,151.983698 109.001984,151.542966 L106.85625,149.383565 L104.710516,151.542966 C104.272574,151.983698 103.560267,151.985959 103.119534,151.548016 C102.678802,151.110074 102.676541,150.397767 103.114484,149.957034 L105.270287,147.7875 L103.114484,145.617966 C102.676541,145.177233 102.678802,144.464926 103.119534,144.026984 C103.560267,143.589041 104.272574,143.591302 104.710516,144.032034 L106.85625,146.191435 L109.001984,144.032034 C109.439926,143.591302 110.152233,143.589041 110.592966,144.026984 C111.033698,144.464926 111.035959,145.177233 110.598016,145.617966 L108.442213,147.7875 L108.442213,147.7875 Z M87.1125,167.2875 C87.7338203,167.2875 88.2375,167.79118 88.2375,168.4125 C88.2375,169.03382 87.7338203,169.5375 87.1125,169.5375 L78.75,169.5375 C78.1286797,169.5375 77.625,169.03382 77.625,168.4125 C77.625,167.79118 78.1286797,167.2875 78.75,167.2875 L87.1125,167.2875 Z M111.1125,168.6375 C111.73382,168.6375 112.2375,169.14118 112.2375,169.7625 C112.2375,170.38382 111.73382,170.8875 111.1125,170.8875 L102.75,170.8875 C102.12868,170.8875 101.625,170.38382 101.625,169.7625 C101.625,169.14118 102.12868,168.6375 102.75,168.6375 L111.1125,168.6375 Z M111.1125,162.375 C111.73382,162.375 112.2375,162.87868 112.2375,163.5 C112.2375,164.12132 111.73382,164.625 111.1125,164.625 L102.75,164.625 C102.12868,164.625 101.625,164.12132 101.625,163.5 C101.625,162.87868 102.12868,162.375 102.75,162.375 L111.1125,162.375 Z" id="Shape" fill="#E21A1A"></path>
                <g id="Group" transform="translate(82.875000, 118.875000)" fill="#FCEAEA">
                    <polygon id="Path" points="3 1.5375 0 1.5375 0 0.0375 4.5 0.0375 4.5 4.5375 0 4.5375 0 3.0375 3 3.0375"></polygon>
                    <polygon id="Path" points="1.5 6 4.5 6 4.5 7.5 0 7.5 0 3.0375 4.5 3.0375 4.5 4.5375 1.5 4.5375"></polygon>
                    <polygon id="Path" points="22.5375 1.5375 19.5375 1.5375 19.5375 0.0375 24.0375 0.0375 24.0375 4.5375 19.5375 4.5375 19.5375 3.0375 22.5375 3.0375"></polygon>
                    <polygon id="Path" points="21.0375 6 24.0375 6 24.0375 7.5 19.5375 7.5 19.5375 3.0375 24.0375 3.0375 24.0375 4.5375 21.0375 4.5375"></polygon>
                </g>
                <polygon id="Path" fill="#FCEAEA" points="94.1625 120.525 95.6625 120.525 95.6625 124.7625 94.1625 124.7625"></polygon>
                <polygon id="Path" fill="#FCEAEA" points="97.0125 121.9125 97.0125 123.4125 92.775 123.4125 92.775 121.9125"></polygon>
                <g id="Group" transform="translate(24.000000, 111.000000)">
                    <g id="Path">
                        <path d="M22.65,4.5375 C27.6,9.4875 27.6,17.475 22.65,22.425 C17.7,27.375 9.7125,27.375 4.7625,22.425 C-0.1875,17.475 -0.1875,9.4875 4.7625,4.5375 C9.7125,-0.375 17.7375,-0.375 22.65,4.5375 Z" fill="#F1F3F5"></path>
                        <path d="M21.7695089,5.52735534 C17.3322168,1.15754822 10.0766671,1.15754822 5.6054911,5.52735534 C1.13150297,9.93330042 1.13150297,17.0395961 5.6054911,21.4455412 C10.0794792,25.8514863 17.2955208,25.8514863 21.7695089,21.4455412 C26.243497,17.0395961 26.243497,9.93330042 21.7695089,5.52735534 Z M23.0404306,3.93598033 C28.3198565,9.22072621 28.3198565,17.7516947 23.0404306,23.0364406 C17.7610048,28.3211865 9.23862423,28.3211865 3.95919838,23.0364406 C-1.32022746,17.7516947 -1.32022746,9.22072621 3.962167,3.93301999 C9.2414016,-1.31149995 17.7982329,-1.31149995 23.0404306,3.93598033 Z" fill="#7B8A9A"></path>
                    </g>
                    <g transform="translate(6.000000, 6.000000)" fill="#7B8A9A" id="Combined-Shape">
                        <path d="M2.16592467,11.1514183 C0.59992547,8.93929837 0.566897626,5.9794459 2.07171444,3.75491006 L0,1.68319562 L1.68319562,0 L3.74476456,2.06156894 C5.97622559,0.512126762 8.97191698,0.530393673 11.2054504,2.11135395 L13.3168044,0 L15,1.68319562 L12.8694101,3.81378552 C14.3647004,6.03331917 14.3541737,8.96010067 12.8330859,11.1504394 L15,13.2943807 L13.3243231,15 L11.1305746,12.8295088 C8.95181013,14.2977601 6.07098384,14.2935437 3.87759538,12.8214254 L1.6756769,15 L0,13.2943807 L2.16592467,11.1514183 Z M10.3601369,10.3057894 C11.9433283,8.722598 11.9348657,6.14727503 10.3412353,4.55364456 C8.74760481,2.9600141 6.17228184,2.95155156 4.58909043,4.53474297 C3.00589903,6.11793437 3.01436156,8.69325734 4.60799203,10.2868878 C6.2016225,11.8805183 8.77694547,11.8889808 10.3601369,10.3057894 Z"></path>
                    </g>
                </g>
                <g id="Group" transform="translate(24.000000, 103.500000)">
                    <g id="Path">
                        <path d="M22.65,4.5375 C27.6,9.4875 27.6,17.475 22.65,22.425 C17.7,27.375 9.7125,27.375 4.7625,22.425 C-0.1875,17.475 -0.1875,9.4875 4.7625,4.5375 C9.7125,-0.375 17.7375,-0.375 22.65,4.5375 Z" fill="#F1F3F5"></path>
                        <path d="M21.7695089,5.52735534 C17.3322168,1.15754822 10.0766671,1.15754822 5.6054911,5.52735534 C1.13150297,9.93330042 1.13150297,17.0395961 5.6054911,21.4455412 C10.0794792,25.8514863 17.2955208,25.8514863 21.7695089,21.4455412 C26.243497,17.0395961 26.243497,9.93330042 21.7695089,5.52735534 Z M23.0404306,3.93598033 C28.3198565,9.22072621 28.3198565,17.7516947 23.0404306,23.0364406 C17.7610048,28.3211865 9.23862423,28.3211865 3.95919838,23.0364406 C-1.32022746,17.7516947 -1.32022746,9.22072621 3.962167,3.93301999 C9.2414016,-1.31149995 17.7982329,-1.31149995 23.0404306,3.93598033 Z" fill="#7B8A9A"></path>
                    </g>
                    <g transform="translate(6.000000, 6.000000)" fill="#7B8A9A" id="Combined-Shape">
                        <path d="M2.16592467,11.1514183 C0.59992547,8.93929837 0.566897626,5.9794459 2.07171444,3.75491006 L0,1.68319562 L1.68319562,0 L3.74476456,2.06156894 C5.97622559,0.512126762 8.97191698,0.530393673 11.2054504,2.11135395 L13.3168044,0 L15,1.68319562 L12.8694101,3.81378552 C14.3647004,6.03331917 14.3541737,8.96010067 12.8330859,11.1504394 L15,13.2943807 L13.3243231,15 L11.1305746,12.8295088 C8.95181013,14.2977601 6.07098384,14.2935437 3.87759538,12.8214254 L1.6756769,15 L0,13.2943807 L2.16592467,11.1514183 Z M10.3601369,10.3057894 C11.9433283,8.722598 11.9348657,6.14727503 10.3412353,4.55364456 C8.74760481,2.9600141 6.17228184,2.95155156 4.58909043,4.53474297 C3.00589903,6.11793437 3.01436156,8.69325734 4.60799203,10.2868878 C6.2016225,11.8805183 8.77694547,11.8889808 10.3601369,10.3057894 Z"></path>
                    </g>
                </g>
                <g id="Group" transform="translate(24.000000, 96.000000)">
                    <g id="Path">
                        <path d="M22.65,4.5375 C27.6,9.4875 27.6,17.475 22.65,22.425 C17.7,27.375 9.7125,27.375 4.7625,22.425 C-0.1875,17.475 -0.1875,9.4875 4.7625,4.5375 C9.7125,-0.375 17.7375,-0.375 22.65,4.5375 Z" fill="#F1F3F5"></path>
                        <path d="M21.7695089,5.52735534 C17.3322168,1.15754822 10.0766671,1.15754822 5.6054911,5.52735534 C1.13150297,9.93330042 1.13150297,17.0395961 5.6054911,21.4455412 C10.0794792,25.8514863 17.2955208,25.8514863 21.7695089,21.4455412 C26.243497,17.0395961 26.243497,9.93330042 21.7695089,5.52735534 Z M23.0404306,3.93598033 C28.3198565,9.22072621 28.3198565,17.7516947 23.0404306,23.0364406 C17.7610048,28.3211865 9.23862423,28.3211865 3.95919838,23.0364406 C-1.32022746,17.7516947 -1.32022746,9.22072621 3.962167,3.93301999 C9.2414016,-1.31149995 17.7982329,-1.31149995 23.0404306,3.93598033 Z" fill="#7B8A9A"></path>
                    </g>
                    <g transform="translate(6.000000, 6.000000)" fill="#7B8A9A" id="Combined-Shape">
                        <path d="M2.16592467,11.1514183 C0.59992547,8.93929837 0.566897626,5.9794459 2.07171444,3.75491006 L0,1.68319562 L1.68319562,0 L3.74476456,2.06156894 C5.97622559,0.512126762 8.97191698,0.530393673 11.2054504,2.11135395 L13.3168044,0 L15,1.68319562 L12.8694101,3.81378552 C14.3647004,6.03331917 14.3541737,8.96010067 12.8330859,11.1504394 L15,13.2943807 L13.3243231,15 L11.1305746,12.8295088 C8.95181013,14.2977601 6.07098384,14.2935437 3.87759538,12.8214254 L1.6756769,15 L0,13.2943807 L2.16592467,11.1514183 Z M10.3601369,10.3057894 C11.9433283,8.722598 11.9348657,6.14727503 10.3412353,4.55364456 C8.74760481,2.9600141 6.17228184,2.95155156 4.58909043,4.53474297 C3.00589903,6.11793437 3.01436156,8.69325734 4.60799203,10.2868878 C6.2016225,11.8805183 8.77694547,11.8889808 10.3601369,10.3057894 Z"></path>
                    </g>
                </g>
                <g id="Group" transform="translate(48.000000, 33.000000)">
                    <g transform="translate(12.000000, 0.000000)">
                        <rect id="Rectangle" fill="#C0C9D2" x="0.9" y="0.75" width="24.9" height="48.1125"></rect>
                        <polygon id="Path" fill="#D9DFE5" points="0.9 0.75 25.8 48.8625 25.8 0.75"></polygon>
                        <circle id="Oval" fill="#F1F3F5" cx="13.35" cy="24.7875" r="10.725"></circle>
                        <path d="M1.5,1.5 L1.5,48 L25.125,48 L25.125,1.5 L1.5,1.5 Z M0.756392045,0 L25.868608,0 C26.2863517,0 26.625,0.335025017 26.625,0.74829932 L26.625,48.7517007 C26.625,49.164975 26.2863517,49.5 25.868608,49.5 L0.756392045,49.5 C0.338648254,49.5 0,49.164975 0,48.7517007 L0,0.74829932 C0,0.335025017 0.338648254,0 0.756392045,0 Z" id="Rectangle" fill="#7B8A9A"></path>
                        <g transform="translate(0.375000, 4.125000)" fill="#7B8A9A" id="Shape">
                            <path d="M19.2375,27.6375 C19.2375,27.2232864 19.5732864,26.8875 19.9875,26.8875 C20.4017136,26.8875 20.7375,27.2232864 20.7375,27.6375 L20.7375,39.45 C20.7375,39.8642136 20.4017136,40.2 19.9875,40.2 L12.0375,40.2 C11.6560524,40.2 11.3353652,39.9136906 11.2922961,39.5346823 C10.9399822,36.43432 8.71338883,34.4128077 6.14041216,35.0410927 C5.66805726,35.1564351 5.2125,34.7987335 5.2125,34.3125 L5.2125,27.6 C5.2125,27.1857864 5.54828644,26.85 5.9625,26.85 C6.37671356,26.85 6.7125,27.1857864 6.7125,27.6 L6.7125,33.4366062 C9.64709196,33.2236224 12.0541681,35.4760627 12.6806129,38.7 L19.2375,38.7 L19.2375,27.6375 Z M6.7125,2.6625 L6.7125,13.725 C6.7125,14.1392136 6.37671356,14.475 5.9625,14.475 C5.54828644,14.475 5.2125,14.1392136 5.2125,13.725 L5.2125,1.9125 C5.2125,1.49828644 5.54828644,1.1625 5.9625,1.1625 L13.9125,1.1625 C14.2935784,1.1625 14.6140785,1.44827128 14.6575941,1.826857 C14.9957065,4.76843415 17.227988,7.15736705 20.1163684,7.66115433 C20.475442,7.72378344 20.7375,8.0355055 20.7375,8.4 L20.7375,13.725 C20.7375,14.1392136 20.4017136,14.475 19.9875,14.475 C19.5732864,14.475 19.2375,14.1392136 19.2375,13.725 L19.2375,9.0050517 C16.2116314,8.22692868 13.8833045,5.74476852 13.2713366,2.6625 L6.7125,2.6625 Z M0.895933735,21.4125 C0.421833874,21.4125 0.0375,21.0767136 0.0375,20.6625 C0.0375,20.2482864 0.421833874,19.9125 0.895933735,19.9125 L6.30406627,19.9125 C6.77816613,19.9125 7.1625,20.2482864 7.1625,20.6625 C7.1625,21.0767136 6.77816613,21.4125 6.30406627,21.4125 L0.895933735,21.4125 Z M19.638253,21.4125 C19.1891058,21.4125 18.825,21.0767136 18.825,20.6625 C18.825,20.2482864 19.1891058,19.9125 19.638253,19.9125 L24.761747,19.9125 C25.2108942,19.9125 25.575,20.2482864 25.575,20.6625 C25.575,21.0767136 25.2108942,21.4125 24.761747,21.4125 L19.638253,21.4125 Z M5.8125,41.0625 C4.9633622,41.0625 4.275,40.3741378 4.275,39.525 C4.275,38.6758622 4.9633622,37.9875 5.8125,37.9875 C6.6616378,37.9875 7.35,38.6758622 7.35,39.525 C7.35,40.3741378 6.6616378,41.0625 5.8125,41.0625 Z M20.175,3.3375 C19.3258622,3.3375 18.6375,2.6491378 18.6375,1.8 C18.6375,0.950862197 19.3258622,0.2625 20.175,0.2625 C21.0241378,0.2625 21.7125,0.950862197 21.7125,1.8 C21.7125,2.6491378 21.0241378,3.3375 20.175,3.3375 Z"></path>
                        </g>
                    </g>
                    <g transform="translate(6.000000, 6.000000)">
                        <rect id="Rectangle" fill="#C0C9D2" x="0.9" y="0.75" width="24.9" height="48.1125"></rect>
                        <polygon id="Path" fill="#D9DFE5" points="0.9 0.75 25.8 48.8625 25.8 0.75"></polygon>
                        <circle id="Oval" fill="#F1F3F5" cx="13.35" cy="24.7875" r="10.725"></circle>
                        <path d="M1.5,1.5 L1.5,48 L25.125,48 L25.125,1.5 L1.5,1.5 Z M0.756392045,0 L25.868608,0 C26.2863517,0 26.625,0.335025017 26.625,0.74829932 L26.625,48.7517007 C26.625,49.164975 26.2863517,49.5 25.868608,49.5 L0.756392045,49.5 C0.338648254,49.5 0,49.164975 0,48.7517007 L0,0.74829932 C0,0.335025017 0.338648254,0 0.756392045,0 Z" id="Rectangle" fill="#7B8A9A"></path>
                        <g transform="translate(0.375000, 4.125000)" fill="#7B8A9A" id="Shape">
                            <path d="M19.2375,27.6375 C19.2375,27.2232864 19.5732864,26.8875 19.9875,26.8875 C20.4017136,26.8875 20.7375,27.2232864 20.7375,27.6375 L20.7375,39.45 C20.7375,39.8642136 20.4017136,40.2 19.9875,40.2 L12.0375,40.2 C11.6560524,40.2 11.3353652,39.9136906 11.2922961,39.5346823 C10.9399822,36.43432 8.71338883,34.4128077 6.14041216,35.0410927 C5.66805726,35.1564351 5.2125,34.7987335 5.2125,34.3125 L5.2125,27.6 C5.2125,27.1857864 5.54828644,26.85 5.9625,26.85 C6.37671356,26.85 6.7125,27.1857864 6.7125,27.6 L6.7125,33.4366062 C9.64709196,33.2236224 12.0541681,35.4760627 12.6806129,38.7 L19.2375,38.7 L19.2375,27.6375 Z M6.7125,2.6625 L6.7125,13.725 C6.7125,14.1392136 6.37671356,14.475 5.9625,14.475 C5.54828644,14.475 5.2125,14.1392136 5.2125,13.725 L5.2125,1.9125 C5.2125,1.49828644 5.54828644,1.1625 5.9625,1.1625 L13.9125,1.1625 C14.2935784,1.1625 14.6140785,1.44827128 14.6575941,1.826857 C14.9957065,4.76843415 17.227988,7.15736705 20.1163684,7.66115433 C20.475442,7.72378344 20.7375,8.0355055 20.7375,8.4 L20.7375,13.725 C20.7375,14.1392136 20.4017136,14.475 19.9875,14.475 C19.5732864,14.475 19.2375,14.1392136 19.2375,13.725 L19.2375,9.0050517 C16.2116314,8.22692868 13.8833045,5.74476852 13.2713366,2.6625 L6.7125,2.6625 Z M0.895933735,21.4125 C0.421833874,21.4125 0.0375,21.0767136 0.0375,20.6625 C0.0375,20.2482864 0.421833874,19.9125 0.895933735,19.9125 L6.30406627,19.9125 C6.77816613,19.9125 7.1625,20.2482864 7.1625,20.6625 C7.1625,21.0767136 6.77816613,21.4125 6.30406627,21.4125 L0.895933735,21.4125 Z M19.638253,21.4125 C19.1891058,21.4125 18.825,21.0767136 18.825,20.6625 C18.825,20.2482864 19.1891058,19.9125 19.638253,19.9125 L24.761747,19.9125 C25.2108942,19.9125 25.575,20.2482864 25.575,20.6625 C25.575,21.0767136 25.2108942,21.4125 24.761747,21.4125 L19.638253,21.4125 Z M5.8125,41.0625 C4.9633622,41.0625 4.275,40.3741378 4.275,39.525 C4.275,38.6758622 4.9633622,37.9875 5.8125,37.9875 C6.6616378,37.9875 7.35,38.6758622 7.35,39.525 C7.35,40.3741378 6.6616378,41.0625 5.8125,41.0625 Z M20.175,3.3375 C19.3258622,3.3375 18.6375,2.6491378 18.6375,1.8 C18.6375,0.950862197 19.3258622,0.2625 20.175,0.2625 C21.0241378,0.2625 21.7125,0.950862197 21.7125,1.8 C21.7125,2.6491378 21.0241378,3.3375 20.175,3.3375 Z"></path>
                        </g>
                    </g>
                    <g transform="translate(0.000000, 12.000000)">
                        <rect id="Rectangle" fill="#C0C9D2" x="0.9" y="0.75" width="24.9" height="48.1125"></rect>
                        <polygon id="Path" fill="#D9DFE5" points="0.9 0.75 25.8 48.8625 25.8 0.75"></polygon>
                        <circle id="Oval" fill="#F1F3F5" cx="13.35" cy="24.7875" r="10.725"></circle>
                        <path d="M1.5,1.5 L1.5,48 L25.125,48 L25.125,1.5 L1.5,1.5 Z M0.756392045,0 L25.868608,0 C26.2863517,0 26.625,0.335025017 26.625,0.74829932 L26.625,48.7517007 C26.625,49.164975 26.2863517,49.5 25.868608,49.5 L0.756392045,49.5 C0.338648254,49.5 0,49.164975 0,48.7517007 L0,0.74829932 C0,0.335025017 0.338648254,0 0.756392045,0 Z" id="Rectangle" fill="#7B8A9A"></path>
                        <g transform="translate(0.375000, 4.125000)" fill="#7B8A9A" id="Shape">
                            <path d="M19.2375,27.6375 C19.2375,27.2232864 19.5732864,26.8875 19.9875,26.8875 C20.4017136,26.8875 20.7375,27.2232864 20.7375,27.6375 L20.7375,39.45 C20.7375,39.8642136 20.4017136,40.2 19.9875,40.2 L12.0375,40.2 C11.6560524,40.2 11.3353652,39.9136906 11.2922961,39.5346823 C10.9399822,36.43432 8.71338883,34.4128077 6.14041216,35.0410927 C5.66805726,35.1564351 5.2125,34.7987335 5.2125,34.3125 L5.2125,27.6 C5.2125,27.1857864 5.54828644,26.85 5.9625,26.85 C6.37671356,26.85 6.7125,27.1857864 6.7125,27.6 L6.7125,33.4366062 C9.64709196,33.2236224 12.0541681,35.4760627 12.6806129,38.7 L19.2375,38.7 L19.2375,27.6375 Z M6.7125,2.6625 L6.7125,13.725 C6.7125,14.1392136 6.37671356,14.475 5.9625,14.475 C5.54828644,14.475 5.2125,14.1392136 5.2125,13.725 L5.2125,1.9125 C5.2125,1.49828644 5.54828644,1.1625 5.9625,1.1625 L13.9125,1.1625 C14.2935784,1.1625 14.6140785,1.44827128 14.6575941,1.826857 C14.9957065,4.76843415 17.227988,7.15736705 20.1163684,7.66115433 C20.475442,7.72378344 20.7375,8.0355055 20.7375,8.4 L20.7375,13.725 C20.7375,14.1392136 20.4017136,14.475 19.9875,14.475 C19.5732864,14.475 19.2375,14.1392136 19.2375,13.725 L19.2375,9.0050517 C16.2116314,8.22692868 13.8833045,5.74476852 13.2713366,2.6625 L6.7125,2.6625 Z M0.895933735,21.4125 C0.421833874,21.4125 0.0375,21.0767136 0.0375,20.6625 C0.0375,20.2482864 0.421833874,19.9125 0.895933735,19.9125 L6.30406627,19.9125 C6.77816613,19.9125 7.1625,20.2482864 7.1625,20.6625 C7.1625,21.0767136 6.77816613,21.4125 6.30406627,21.4125 L0.895933735,21.4125 Z M19.638253,21.4125 C19.1891058,21.4125 18.825,21.0767136 18.825,20.6625 C18.825,20.2482864 19.1891058,19.9125 19.638253,19.9125 L24.761747,19.9125 C25.2108942,19.9125 25.575,20.2482864 25.575,20.6625 C25.575,21.0767136 25.2108942,21.4125 24.761747,21.4125 L19.638253,21.4125 Z M5.8125,41.0625 C4.9633622,41.0625 4.275,40.3741378 4.275,39.525 C4.275,38.6758622 4.9633622,37.9875 5.8125,37.9875 C6.6616378,37.9875 7.35,38.6758622 7.35,39.525 C7.35,40.3741378 6.6616378,41.0625 5.8125,41.0625 Z M20.175,3.3375 C19.3258622,3.3375 18.6375,2.6491378 18.6375,1.8 C18.6375,0.950862197 19.3258622,0.2625 20.175,0.2625 C21.0241378,0.2625 21.7125,0.950862197 21.7125,1.8 C21.7125,2.6491378 21.0241378,3.3375 20.175,3.3375 Z"></path>
                        </g>
                    </g>
                </g>
                <g id="Group" transform="translate(171.000000, 45.000000)" fill="#D9DFE5">
                    <path d="M3,-5.77315973e-15 L3,1.5 L0,1.5 L0,-5.77315973e-15 L3,-5.77315973e-15 Z M3,5.25 L3,6.75 L1.5,6.75 L1.5,5.25 L3,5.25 Z M3,10.5 L3,12 L0,12 L0,10.5 L3,10.5 Z M3,15.75 L3,17.25 L1.5,17.25 L1.5,15.75 L3,15.75 Z M3,21 L3,22.5 L0,22.5 L0,21 L3,21 Z M3,26.25 L3,27.75 L1.5,27.75 L1.5,26.25 L3,26.25 Z M3,31.5 L3,33 L0,33 L0,31.5 L3,31.5 Z M3,36.75 L3,38.25 L1.5,38.25 L1.5,36.75 L3,36.75 Z M3,42 L3,43.5 L0,43.5 L0,42 L3,42 Z M3,47.25 L3,48.75 L1.5,48.75 L1.5,47.25 L3,47.25 Z M3,52.5 L3,54 L0,54 L0,52.5 L3,52.5 Z M3,57.75 L3,59.25 L1.5,59.25 L1.5,57.75 L3,57.75 Z" id="Shape"></path>
                </g>
                <path d="M12,78.75 L15,78.75 L15,80.25 L12,80.25 L12,78.75 Z M12,84 L13.5,84 L13.5,85.5 L12,85.5 L12,84 Z M12,89.25 L15,89.25 L15,90.75 L12,90.75 L12,89.25 Z M12,94.5 L13.5,94.5 L13.5,96 L12,96 L12,94.5 Z M12,99.75 L15,99.75 L15,101.25 L12,101.25 L12,99.75 Z M12,105 L13.5,105 L13.5,106.5 L12,106.5 L12,105 Z M12,110.25 L15,110.25 L15,111.75 L12,111.75 L12,110.25 Z M12,115.5 L13.5,115.5 L13.5,117 L12,117 L12,115.5 Z M12,120.75 L15,120.75 L15,122.25 L12,122.25 L12,120.75 Z M12,126 L13.5,126 L13.5,127.5 L12,127.5 L12,126 Z M12,131.25 L15,131.25 L15,132.75 L12,132.75 L12,131.25 Z M12,136.5 L13.5,136.5 L13.5,138 L12,138 L12,136.5 Z" id="Shape" fill="#D9DFE5"></path>
                <g id="Group" transform="translate(0.000000, 147.000000)">
                    <ellipse id="Oval" fill="#9EABB8" cx="22.8" cy="22.575" rx="21.1875" ry="21.6"></ellipse>
                    <path d="M37.7144299,7.275 C29.4869033,-1.1625 16.1400267,-1.1625 7.9125,7.275 L37.7144299,37.8375 C45.9785234,29.4 45.9785234,15.7125 37.7144299,7.275 Z" id="Path" fill="#C0C9D2"></path>
                    <path d="M22.5,45 C10.0735931,45 0,34.9264069 0,22.5 C0,10.0735931 10.0735931,0 22.5,0 C34.9264069,0 45,10.0735931 45,22.5 C45,34.9264069 34.9264069,45 22.5,45 Z M22.5,42.75 C33.6837662,42.75 42.75,33.6837662 42.75,22.5 C42.75,11.3162338 33.6837662,2.25 22.5,2.25 C11.3162338,2.25 2.25,11.3162338 2.25,22.5 C2.25,33.6837662 11.3162338,42.75 22.5,42.75 Z" id="Oval" fill="#7B8A9A"></path>
                    <path d="M22.6774976,40.8749991 L22.6774976,39.3749991 C23.1528913,39.3749991 23.6257855,39.3551397 24.0953878,39.3156516 L24.2210766,40.8103765 C23.7096828,40.8533787 23.1948556,40.8749991 22.6774976,40.8749991 Z M25.7550728,40.6155756 L25.5029816,39.1369106 C25.970083,39.0572765 26.4324326,38.9579091 26.8890909,38.8391832 L27.2665262,40.290921 C26.768532,40.4203938 26.2643639,40.5287487 25.7550728,40.6155756 Z M28.7468245,39.8374644 L28.2463828,38.4234071 C28.6922167,38.2656243 29.1307454,38.0889288 29.5609274,37.8938769 L30.1803542,39.2600066 C29.7112608,39.4727016 29.2330362,39.6653917 28.7468245,39.8374644 Z M31.5750439,38.5535581 L30.8402024,37.2458854 C31.2522124,37.0143579 31.6542026,36.7653923 32.0451032,36.49974 L32.8882208,37.7403659 C32.4622271,38.0298672 32.0241142,38.3012048 31.5750439,38.5535581 Z M34.1193194,36.8257765 L33.1750161,35.660319 C33.5423837,35.3626621 33.8970629,35.0495545 34.2380387,34.7219196 L35.2773283,35.8035282 C34.9058942,36.1604296 34.5195254,36.5015126 34.1193194,36.8257765 Z M36.3540849,34.6768494 L35.2265105,33.6876195 C35.538337,33.3321838 35.8350129,32.9637268 36.1156564,32.5832864 L37.3227565,33.4737409 C37.0169964,33.8882294 36.6937869,34.2896398 36.3540849,34.6768494 Z M38.1971034,32.1752589 L36.9180248,31.3917042 C37.1649013,30.9887017 37.3945668,30.5753635 37.606323,30.1527604 L38.9473862,30.8247346 C38.7165404,31.2854351 38.4661913,31.7359984 38.1971034,32.1752589 Z M39.5682891,29.4443498 L38.1757562,28.8868086 C38.3512644,28.4484537 38.5080883,28.0024644 38.6457221,27.5498612 L40.0808345,27.9862698 C39.9307274,28.4798911 39.759693,28.9662931 39.5682891,29.4443498 Z M40.4689689,26.4794597 L39.0016211,26.1681876 C39.0994623,25.7069608 39.1778175,25.2407136 39.236355,24.7703483 L40.7248722,24.955596 C40.661067,25.4682885 40.5756457,25.9765813 40.4689689,26.4794597 Z M40.8510731,23.4055242 L39.3522038,23.3472923 C39.3606802,23.1291125 39.3649518,22.9103362 39.3649973,22.6911943 C39.3649976,22.433288 39.3593186,22.1793256 39.3479351,21.9257552 L40.8464258,21.8584833 C40.8588171,22.1345007 40.8649977,22.4108934 40.8649972,22.6913509 C40.8649478,22.9299613 40.8602992,23.1680481 40.8510731,23.4055242 Z M40.7119406,20.3178256 L39.2244893,20.5114455 C39.1633101,20.0414471 39.0823218,19.5756446 38.9818613,19.1149452 L40.4474219,18.7953639 C40.5569579,19.2976827 40.645253,19.8055097 40.7119406,20.3178256 Z M40.0531603,17.2985698 L38.6203479,17.7424712 C38.4803535,17.2906013 38.3211981,16.8454253 38.1433933,16.4079664 L39.5329968,15.8431635 C39.7269033,16.3202381 39.9004791,16.8057498 40.0531603,17.2985698 Z M38.883891,14.4247639 L37.5480823,15.1071239 C37.3329426,14.6859599 37.0999481,14.2741945 36.8498069,13.8729005 L38.1227553,13.0794255 C38.3953933,13.5168106 38.6493636,13.9656458 38.883891,14.4247639 Z M37.2560027,11.8113444 L36.0543888,12.7091886 C35.7714427,12.3305126 35.4725445,11.9639133 35.1585815,11.6104255 L36.2800867,10.61432 C36.6221124,10.9994034 36.9477386,11.3987847 37.2560027,11.8113444 Z M35.1980887,9.49578566 L34.1652955,10.5835992 C33.8223174,10.2579686 33.4657211,9.94695337 33.0965253,9.65147219 L34.0338087,8.48036168 C34.4360107,8.80225895 34.8244713,9.14106546 35.1980887,9.49578566 Z M32.772289,7.55649445 L31.938715,8.80355275 C31.5456336,8.54080445 31.1415758,8.29484414 30.7276135,8.06641565 L31.4523158,6.75309674 C31.9035274,7.00207977 32.3439065,7.27014983 32.772289,7.55649445 Z M30.0578026,6.05997203 L29.4485359,7.43066315 C29.0168765,7.23879226 28.5769864,7.06534076 28.1299044,6.91085664 L28.6197914,5.49310815 C29.1073706,5.66158563 29.5870884,5.85074147 30.0578026,6.05997203 Z M27.1686034,5.05891075 L26.7993015,6.51273886 C26.3421178,6.39660492 25.879329,6.29984043 25.4118693,6.2228144 L25.6557445,4.7427722 C26.1654103,4.82675278 26.6700452,4.93226688 27.1686034,5.05891075 Z M24.1112078,4.55571614 L23.9945237,6.05117087 C23.5598914,6.01725832 23.1225012,6.00014105 22.6832024,5.99999997 C22.6430311,5.9999991 22.624605,6.00005384 22.5720042,6.0003252 L22.5627271,4.50035389 C22.6202049,4.50005788 22.6400139,4.49999904 22.6834594,4.50000001 C23.1617714,4.50015358 23.6379248,4.51878785 24.1112078,4.55571614 Z M21.0188411,4.57466443 L21.1539697,6.06856545 C20.6814333,6.11130803 20.2125613,6.17392702 19.7482283,6.25611989 L19.4867737,4.77908182 C19.992926,4.68948638 20.5039443,4.62123866 21.0188411,4.57466443 Z M17.9669754,5.1161158 L18.3545033,6.5651921 C17.8971453,6.6875038 17.4458946,6.82920347 17.0017542,6.98982138 L16.4916304,5.57922796 C16.9760185,5.40405497 17.4681705,5.24951168 17.9669754,5.1161158 Z M15.0627704,6.16617475 L15.6914694,7.52806224 C15.2621712,7.7262426 14.8416328,7.9426303 14.4309222,8.17656319 L13.68853,6.87316232 C14.1362473,6.61815113 14.5947158,6.38224656 15.0627704,6.16617475 Z M12.3845268,7.69085622 L13.2344134,8.92685487 C12.8448194,9.1947441 12.4666909,9.47907708 12.1010794,9.77900469 L11.1497207,8.61929928 C11.5480438,8.29253683 11.9600253,7.98274821 12.3845268,7.69085622 Z M9.98984045,9.65642605 L11.0363304,10.7310696 C10.6974803,11.0610425 10.3726882,11.4052102 10.0629063,11.762578 L8.92947189,10.7800677 C9.2669287,10.3907739 9.6207285,10.015868 9.98984045,9.65642605 Z M7.95813248,12.0024417 L9.17132449,12.8845784 C8.89324546,13.2670172 8.6314925,13.6610597 8.38685313,14.0656388 L7.10326937,13.2894863 C7.36988182,12.8485686 7.65512229,12.419168 7.95813248,12.0024417 Z M6.35599445,14.6540993 L7.70133035,15.317478 C7.49241625,15.741157 7.30158894,16.1736998 7.12944138,16.6140534 L5.73239994,16.0679076 C5.92012433,15.5877084 6.12820657,15.1160545 6.35599445,14.6540993 Z M5.23938661,17.5044726 L6.67738891,17.9312622 C6.54313105,18.3836235 6.42808238,18.8421879 6.33265106,19.3059915 L4.86342943,19.0036874 C4.96749613,18.4979151 5.09296471,17.9978187 5.23938661,17.5044726 Z M4.61570222,20.5384769 L6.10540721,20.7139165 C6.05029829,21.1818613 6.01480694,21.6535396 5.99918838,22.128129 L4.5,22.0787913 C4.51700632,21.562033 4.55566331,21.0482836 4.61570222,20.5384769 Z M4.51415776,23.6327839 L6.01219284,23.5560317 C6.03649331,24.0303239 6.08069292,24.5014658 6.14452155,24.9686173 L4.65833009,25.1716811 C4.58877732,24.6626356 4.54062427,24.1493523 4.51415776,23.6327839 Z M4.93396243,26.6987198 L6.39733354,26.3692582 C6.50130425,26.8310653 6.62481864,27.2873638 6.76744974,27.7371773 L5.33761047,28.1905642 C5.18205362,27.6999869 5.04734767,27.2023435 4.93396243,26.6987198 Z M5.86842054,29.6449498 L7.2541713,29.0707592 C7.43512823,29.5074804 7.63460797,29.9360755 7.85199464,30.3554858 L6.52025207,31.0457479 C6.28324284,30.5884792 6.06574006,30.1211605 5.86842054,29.6449498 Z M7.30007561,32.4035545 L8.56743235,31.6011787 C8.82025017,32.0005058 9.08994143,32.3889765 9.37569737,32.7655292 L8.18080608,33.6723008 C7.86945091,33.262015 7.57558058,32.838716 7.30007561,32.4035545 Z M9.1560466,34.8514205 L10.2708975,33.8478731 C10.5872435,34.199305 10.9183339,34.5372627 11.2632027,34.8607648 L10.2369742,35.9547735 C9.86130584,35.60238 9.50064811,35.2342418 9.1560466,34.8514205 Z M11.4195675,36.9728207 L12.3487731,35.7952907 C12.7200115,36.0882402 13.1034734,36.3653498 13.498101,36.6257899 L12.6718689,37.8777246 C12.2418566,37.5939318 11.8240409,37.2919964 11.4195675,36.9728207 Z M14.0160467,38.6839331 L14.7313801,37.3654878 C15.1468169,37.5908864 15.5717503,37.798538 16.0051161,37.9878041 L15.4047703,39.3624259 C14.9322471,39.1560583 14.4689516,38.9296604 14.0160467,38.6839331 Z M16.8105424,39.9077364 L17.2941692,38.4878403 C17.7409629,38.6400214 18.1945693,38.7731946 18.6539983,38.8869106 L18.2935998,40.3429714 C17.7925474,40.2189529 17.2978286,40.0737096 16.8105424,39.9077364 Z M19.817881,40.65137 L20.0519481,39.169745 C20.5175134,39.243295 20.9873548,39.2972556 21.4606145,39.3313402 L21.3528623,40.827465 C20.8372833,40.7903325 20.3252994,40.7315319 19.817881,40.65137 Z" id="Oval" fill="#EAEDF0"></path>
                    <g transform="translate(14.625000, 14.625000)" fill="#7B8A9A" id="Shape">
                        <path d="M2.03958414,11.6008986 C0.629410953,9.37046561 0.629681421,6.50440501 2.04039554,4.27421589 L0.0643398282,2.29816017 L2.18566017,0.176839828 L4.15750349,2.14868314 C6.39102505,0.723275894 9.26927624,0.718143581 11.5074406,2.1332862 L13.4962047,0.170019075 L15.6037953,2.30498092 L13.6334435,4.25007177 C15.0646649,6.49181004 15.064886,9.38334746 13.6341069,11.6252865 L15.6106602,13.6018398 L13.4893398,15.7231602 L11.5085741,13.7423945 C9.26985134,15.1585066 6.39038157,15.1533605 4.1563157,13.7269562 L2.19248092,15.7162953 L0.0575190752,13.6087047 L2.03958414,11.6008986 Z M10.575765,10.6693725 C12.0841506,9.16098689 12.0841506,6.71541061 10.575765,5.207025 C9.06737939,3.69863939 6.62180311,3.69863939 5.1134175,5.207025 C3.60503189,6.71541061 3.60503189,9.16098689 5.1134175,10.6693725 C6.62180311,12.1777581 9.06737939,12.1777581 10.575765,10.6693725 Z"></path>
                    </g>
                </g>
            </g>
        </g>
    </g>
</svg>