<svg id="svg" xmlns="http://www.w3.org/2000/svg" xmlns:xlink="http://www.w3.org/1999/xlink" width="400" height="221.57303370786516" viewBox="0, 0, 400,221.57303370786516"><g id="svgg"><path id="path0" d="M6.648 18.947 L 6.648 31.247 199.774 31.247 L 392.900 31.247 393.021 30.748 C 393.088 30.474,393.114 24.964,393.081 18.504 L 393.019 6.759 199.834 6.703 L 6.648 6.648 6.648 18.947 M6.702 202.715 L 6.759 215.069 199.889 215.069 L 393.019 215.069 393.081 203.213 C 393.114 196.693,393.088 191.133,393.021 190.859 L 392.900 190.360 199.772 190.360 L 6.644 190.360 6.702 202.715 " stroke="none" fill="#949498" fill-rule="evenodd"></path><path id="path1" d="M6.648 70.324 L 6.648 81.480 7.213 81.737 C 8.049 82.119,22.968 82.100,23.122 81.717 C 23.183 81.565,23.242 100.612,23.251 124.044 L 23.269 166.648 37.562 166.648 L 51.856 166.648 51.856 124.266 L 51.856 81.884 59.667 81.946 C 65.435 81.991,67.610 81.938,67.980 81.741 L 68.481 81.474 68.423 70.377 L 68.366 59.280 37.507 59.224 L 6.648 59.167 6.648 70.324 M73.278 59.317 C 73.197 59.398,73.130 83.529,73.130 112.941 L 73.130 166.418 73.629 166.539 C 73.903 166.606,79.612 166.632,86.316 166.599 L 98.504 166.537 98.615 136.953 C 98.676 120.681,98.797 107.618,98.884 107.922 C 98.971 108.227,99.092 108.975,99.153 109.584 C 99.313 111.190,99.654 113.783,99.938 115.568 C 100.075 116.421,100.330 118.166,100.506 119.446 C 100.682 120.726,101.031 123.119,101.281 124.765 C 101.531 126.410,101.795 128.332,101.869 129.037 C 101.942 129.741,102.087 130.370,102.192 130.435 C 102.297 130.500,102.382 131.189,102.382 131.967 C 102.382 132.745,102.482 133.443,102.604 133.518 C 102.726 133.593,102.825 134.291,102.825 135.069 C 102.825 135.847,102.925 136.545,103.047 136.620 C 103.169 136.696,103.269 137.344,103.269 138.061 C 103.269 138.778,103.368 139.426,103.490 139.501 C 103.612 139.577,103.712 140.311,103.712 141.132 C 103.712 141.954,103.804 142.721,103.916 142.837 C 104.028 142.952,104.177 143.720,104.248 144.543 C 104.319 145.366,104.435 146.712,104.505 147.535 C 104.576 148.357,104.726 149.125,104.838 149.241 C 104.950 149.357,105.042 150.074,105.042 150.835 C 105.042 151.595,105.141 152.279,105.263 152.355 C 105.385 152.430,105.485 153.128,105.485 153.906 C 105.485 154.684,105.584 155.382,105.706 155.457 C 105.828 155.532,105.928 156.230,105.928 157.008 C 105.928 157.786,106.028 158.484,106.150 158.560 C 106.271 158.635,106.371 159.283,106.371 160.000 C 106.371 160.717,106.471 161.365,106.593 161.440 C 106.715 161.516,106.814 162.200,106.814 162.960 C 106.814 163.721,106.907 164.438,107.021 164.554 C 107.135 164.670,107.260 165.163,107.298 165.651 L 107.368 166.537 116.405 166.595 C 124.869 166.650,125.449 166.628,125.562 166.263 C 125.629 166.048,125.776 165.699,125.889 165.488 C 126.002 165.276,126.094 164.409,126.094 163.562 C 126.094 162.714,126.194 161.959,126.316 161.884 C 126.438 161.808,126.537 161.011,126.537 160.111 C 126.537 159.211,126.637 158.413,126.759 158.338 C 126.881 158.263,126.981 157.515,126.981 156.676 C 126.981 155.837,127.080 155.089,127.202 155.014 C 127.324 154.939,127.424 154.191,127.424 153.352 C 127.424 152.513,127.524 151.765,127.645 151.690 C 127.767 151.614,127.867 150.861,127.867 150.015 C 127.867 149.137,127.962 148.476,128.089 148.476 C 128.215 148.476,128.310 147.812,128.310 146.925 C 128.310 146.039,128.405 145.374,128.532 145.374 C 128.658 145.374,128.753 144.714,128.753 143.836 C 128.753 142.990,128.853 142.236,128.975 142.161 C 129.097 142.085,129.197 141.337,129.197 140.499 C 129.197 139.660,129.296 138.912,129.418 138.837 C 129.540 138.761,129.640 137.958,129.640 137.051 C 129.640 136.099,129.734 135.402,129.861 135.402 C 129.991 135.402,130.083 134.663,130.083 133.629 C 130.083 132.595,130.175 131.856,130.305 131.856 C 130.436 131.856,130.526 131.048,130.526 129.875 C 130.526 128.785,130.626 127.832,130.748 127.756 C 130.870 127.681,130.970 126.877,130.970 125.970 C 130.970 125.019,131.063 124.321,131.191 124.321 C 131.318 124.321,131.413 123.661,131.413 122.783 C 131.413 121.937,131.512 121.183,131.634 121.108 C 131.756 121.033,131.856 120.279,131.856 119.433 C 131.856 118.555,131.951 117.895,132.078 117.895 C 132.204 117.895,132.299 117.230,132.299 116.343 C 132.299 115.457,132.394 114.792,132.521 114.792 C 132.650 114.792,132.742 114.054,132.742 113.019 C 132.742 111.985,132.835 111.247,132.964 111.247 C 133.091 111.247,133.186 110.582,133.186 109.695 C 133.186 108.842,133.282 108.144,133.399 108.144 C 133.712 108.144,133.838 114.975,134.026 142.271 C 134.118 155.618,134.216 166.563,134.244 166.595 C 134.271 166.626,139.903 166.626,146.759 166.595 L 159.224 166.537 159.280 112.853 L 159.336 59.169 141.037 59.169 C 120.382 59.169,122.105 59.000,122.105 61.024 C 122.105 61.696,122.006 62.307,121.884 62.382 C 121.762 62.458,121.662 63.191,121.662 64.013 C 121.662 64.835,121.570 65.602,121.457 65.717 C 121.344 65.833,121.196 66.676,121.128 67.590 C 120.804 71.915,120.727 72.590,120.537 72.787 C 120.424 72.902,120.332 73.719,120.332 74.602 C 120.332 75.484,120.233 76.268,120.111 76.343 C 119.989 76.419,119.889 77.217,119.889 78.116 C 119.889 79.016,119.789 79.814,119.668 79.889 C 119.546 79.965,119.446 80.712,119.446 81.551 C 119.446 82.390,119.346 83.138,119.224 83.213 C 119.102 83.289,119.003 84.086,119.003 84.986 C 119.003 85.886,118.903 86.684,118.781 86.759 C 118.659 86.834,118.560 87.632,118.560 88.532 C 118.560 89.432,118.460 90.229,118.338 90.305 C 118.216 90.380,118.116 91.263,118.116 92.268 C 118.116 93.274,118.009 94.201,117.878 94.332 C 117.747 94.463,117.548 95.430,117.435 96.482 C 116.931 101.182,116.816 102.073,116.672 102.438 C 116.357 103.231,116.122 102.782,116.122 101.385 C 116.122 100.572,116.025 99.945,115.900 99.945 C 115.774 99.945,115.679 99.280,115.679 98.393 C 115.679 97.507,115.584 96.842,115.457 96.842 C 115.332 96.842,115.235 96.219,115.235 95.415 C 115.235 94.630,115.136 93.926,115.014 93.850 C 114.892 93.775,114.792 93.121,114.792 92.397 C 114.792 91.667,114.694 91.080,114.571 91.080 C 114.444 91.080,114.349 90.416,114.349 89.529 C 114.349 88.643,114.254 87.978,114.127 87.978 C 114.003 87.978,113.906 87.354,113.906 86.550 C 113.906 85.765,113.806 85.061,113.684 84.986 C 113.562 84.911,113.463 84.213,113.463 83.435 C 113.463 82.657,113.363 81.959,113.241 81.884 C 113.119 81.808,113.019 80.861,113.019 79.778 C 113.019 78.696,112.920 77.748,112.798 77.673 C 112.676 77.598,112.576 76.800,112.576 75.900 C 112.576 75.001,112.476 74.203,112.355 74.127 C 112.233 74.052,112.133 73.354,112.133 72.576 C 112.133 71.798,112.033 71.100,111.911 71.025 C 111.789 70.950,111.690 70.266,111.690 69.505 C 111.690 68.744,111.598 68.027,111.487 67.911 C 111.375 67.796,111.226 67.078,111.154 66.316 C 111.083 65.554,110.967 64.307,110.895 63.546 C 110.824 62.784,110.675 62.066,110.563 61.950 C 110.451 61.834,110.360 61.281,110.360 60.720 C 110.360 60.160,110.240 59.581,110.094 59.435 C 109.804 59.145,73.566 59.029,73.278 59.317 M186.094 59.778 C 190.878 59.812,198.706 59.812,203.490 59.778 C 208.274 59.745,204.360 59.718,194.792 59.718 C 185.224 59.718,181.310 59.745,186.094 59.778 M235.402 59.778 C 240.125 59.812,247.853 59.812,252.576 59.778 C 257.299 59.745,253.435 59.718,243.989 59.718 C 234.543 59.718,230.679 59.745,235.402 59.778 M284.615 59.778 C 290.810 59.811,300.882 59.811,306.998 59.778 C 313.113 59.746,308.044 59.719,295.734 59.719 C 283.424 59.719,278.420 59.746,284.615 59.778 M327.867 60.055 C 327.646 60.299,327.573 60.499,327.703 60.499 C 327.834 60.499,327.982 60.374,328.033 60.222 C 328.105 60.007,330.662 59.919,339.409 59.830 L 350.693 59.715 339.480 59.664 C 328.516 59.613,328.259 59.622,327.867 60.055 M351.544 59.890 C 351.825 60.072,357.775 60.084,357.593 59.902 C 357.531 59.840,356.087 59.774,354.384 59.756 C 352.682 59.738,351.404 59.798,351.544 59.890 M392.975 85.762 C 392.975 86.432,393.017 86.706,393.067 86.371 C 393.118 86.036,393.118 85.488,393.067 85.152 C 393.017 84.817,392.975 85.091,392.975 85.762 M134.228 102.881 C 134.176 103.155,134.132 102.931,134.132 102.382 C 134.132 101.834,134.176 101.609,134.228 101.884 C 134.281 102.158,134.281 102.607,134.228 102.881 M204.780 129.571 C 204.830 130.147,205.177 130.635,205.192 130.152 C 205.201 129.885,205.108 129.604,204.986 129.529 C 204.864 129.454,204.772 129.473,204.780 129.571 M206.544 141.828 C 206.544 142.011,206.641 142.310,206.759 142.493 C 206.950 142.789,206.974 142.789,206.974 142.493 C 206.974 142.310,206.877 142.011,206.759 141.828 C 206.568 141.533,206.544 141.533,206.544 141.828 M365.156 167.474 C 365.555 167.523,366.153 167.522,366.486 167.471 C 366.819 167.421,366.493 167.380,365.762 167.382 C 365.030 167.383,364.758 167.424,365.156 167.474 " stroke="none" fill="#1a347c" fill-rule="evenodd"></path><path id="path2" d="M176.699 60.384 C 176.770 60.569,176.757 60.720,176.669 60.720 C 176.560 60.720,176.517 152.633,176.619 167.009 C 176.621 167.313,200.287 167.344,200.475 167.040 C 200.540 166.935,200.723 166.956,200.881 167.087 C 201.368 167.491,201.372 167.222,201.337 137.618 C 201.309 114.006,201.411 102.708,201.629 105.333 C 201.647 105.554,201.778 105.953,201.920 106.218 C 202.063 106.484,202.186 107.176,202.196 107.755 C 202.205 108.335,202.271 108.809,202.344 108.809 C 202.501 108.809,202.538 109.186,202.543 110.859 C 202.545 111.560,202.635 112.133,202.743 112.133 C 202.851 112.133,202.992 112.332,203.056 112.576 C 203.122 112.830,203.062 113.021,202.916 113.023 C 202.733 113.025,202.729 113.073,202.903 113.189 C 203.037 113.279,203.128 113.572,203.107 113.840 C 203.085 114.109,203.150 114.277,203.251 114.215 C 203.352 114.152,203.435 114.257,203.435 114.447 C 203.435 114.637,203.335 114.792,203.213 114.792 C 203.091 114.792,202.993 114.967,202.995 115.180 C 202.998 115.512,203.030 115.520,203.214 115.235 C 203.366 115.002,203.407 115.220,203.352 115.970 C 203.299 116.690,203.377 117.140,203.591 117.355 C 203.843 117.606,203.848 117.674,203.617 117.677 C 203.401 117.679,203.411 117.736,203.657 117.895 C 203.878 118.038,203.897 118.111,203.712 118.113 C 203.560 118.115,203.435 118.222,203.435 118.351 C 203.435 118.480,203.535 118.524,203.657 118.449 C 203.778 118.373,203.878 118.509,203.878 118.750 C 203.878 118.990,203.753 119.238,203.601 119.299 C 203.380 119.389,203.380 119.414,203.601 119.428 C 203.780 119.440,203.878 119.805,203.878 120.456 C 203.878 121.073,203.964 121.413,204.100 121.330 C 204.222 121.254,204.321 121.292,204.321 121.414 C 204.321 121.536,204.217 121.701,204.089 121.780 C 203.936 121.874,203.931 122.012,204.075 122.186 C 204.194 122.330,204.343 122.870,204.406 123.386 C 204.468 123.902,204.589 124.439,204.676 124.579 C 204.773 124.736,204.735 124.773,204.577 124.675 C 204.424 124.580,204.321 124.661,204.321 124.875 C 204.321 125.090,204.424 125.170,204.577 125.076 C 204.739 124.976,204.773 125.015,204.669 125.183 C 204.579 125.329,204.660 125.686,204.851 125.977 C 205.111 126.374,205.129 126.531,204.925 126.614 C 204.715 126.699,204.716 126.728,204.931 126.742 C 205.083 126.751,205.208 126.865,205.208 126.994 C 205.208 127.123,205.098 127.161,204.964 127.078 C 204.789 126.969,204.786 127.050,204.954 127.363 C 205.121 127.676,205.115 127.871,204.931 128.055 C 204.750 128.237,204.747 128.310,204.922 128.310 C 205.058 128.310,205.142 128.485,205.109 128.698 C 205.076 128.911,205.137 129.143,205.244 129.213 C 205.528 129.397,205.665 130.305,205.409 130.305 C 205.277 130.305,205.290 130.487,205.440 130.767 C 205.576 131.021,205.629 131.287,205.558 131.358 C 205.487 131.429,205.429 131.354,205.429 131.191 C 205.429 131.029,205.365 130.960,205.287 131.038 C 205.209 131.116,205.262 131.322,205.405 131.495 C 205.549 131.667,205.710 132.479,205.764 133.299 C 205.817 134.118,205.972 134.922,206.107 135.085 C 206.243 135.249,206.287 135.491,206.205 135.623 C 206.123 135.756,206.169 136.001,206.307 136.167 C 206.481 136.376,206.487 136.515,206.326 136.614 C 206.163 136.715,206.164 136.892,206.329 137.200 C 206.459 137.442,206.571 138.035,206.578 138.516 C 206.584 138.997,206.661 139.391,206.748 139.391 C 207.008 139.391,206.928 140.055,206.667 140.062 C 206.535 140.066,206.601 140.170,206.814 140.294 C 207.125 140.475,207.177 140.719,207.080 141.526 C 206.994 142.244,207.031 142.488,207.211 142.377 C 207.377 142.275,207.439 142.400,207.394 142.745 C 207.357 143.033,207.416 143.412,207.525 143.588 C 207.650 143.788,207.636 143.937,207.489 143.986 C 207.330 144.039,207.319 144.354,207.454 144.955 C 207.564 145.445,207.596 145.940,207.525 146.055 C 207.454 146.169,207.550 146.323,207.738 146.395 C 207.990 146.491,208.025 146.630,207.871 146.918 C 207.755 147.134,207.724 147.373,207.801 147.450 C 207.878 147.527,207.940 147.964,207.940 148.421 C 207.939 148.920,208.080 149.360,208.291 149.522 C 208.542 149.715,208.560 149.794,208.353 149.799 C 208.192 149.803,208.132 149.919,208.219 150.060 C 208.305 150.199,208.368 150.600,208.358 150.950 C 208.347 151.335,208.430 151.531,208.569 151.445 C 208.723 151.350,208.728 151.439,208.584 151.718 C 208.333 152.205,208.471 152.751,208.794 152.551 C 208.946 152.457,208.946 152.548,208.794 152.832 C 208.664 153.076,208.649 153.395,208.759 153.591 C 208.863 153.777,208.918 154.124,208.880 154.361 C 208.842 154.598,208.908 154.979,209.026 155.207 C 209.176 155.497,209.168 155.576,209.000 155.472 C 208.762 155.325,208.874 155.854,209.184 156.343 C 209.262 156.465,209.314 157.039,209.302 157.618 C 209.289 158.197,209.371 158.670,209.483 158.670 C 209.596 158.670,209.627 158.914,209.552 159.211 C 209.478 159.508,209.524 159.817,209.654 159.898 C 209.785 159.979,209.832 160.201,209.758 160.393 C 209.685 160.584,209.753 160.823,209.909 160.924 C 210.127 161.065,210.132 161.148,209.929 161.280 C 209.766 161.386,209.736 161.570,209.853 161.759 C 209.957 161.927,209.991 162.199,209.928 162.362 C 209.865 162.526,209.908 162.659,210.022 162.659 C 210.137 162.659,210.250 163.033,210.273 163.490 C 210.489 167.663,209.359 167.202,219.367 167.202 C 224.002 167.202,227.624 167.134,227.416 167.052 C 227.101 166.927,227.118 166.898,227.516 166.885 C 227.780 166.877,228.041 166.994,228.095 167.147 C 228.263 167.617,228.486 167.195,228.518 166.347 C 228.535 165.903,228.657 165.533,228.789 165.525 C 228.922 165.516,228.831 165.423,228.587 165.319 C 228.208 165.156,228.200 165.126,228.532 165.113 C 228.968 165.095,229.075 164.434,228.643 164.429 C 228.471 164.427,228.450 164.363,228.587 164.263 C 228.709 164.173,228.837 163.950,228.871 163.767 C 228.904 163.584,229.049 163.204,229.192 162.923 C 229.392 162.530,229.391 162.312,229.191 161.991 C 229.025 161.726,229.008 161.523,229.146 161.438 C 229.265 161.364,229.363 160.916,229.363 160.443 C 229.363 159.970,229.462 159.522,229.582 159.447 C 229.859 159.277,229.817 157.545,229.528 157.177 C 229.380 156.988,229.418 156.863,229.648 156.774 C 229.833 156.703,230.034 156.453,230.096 156.217 C 230.158 155.982,230.118 155.845,230.007 155.913 C 229.897 155.981,229.806 155.940,229.806 155.821 C 229.806 155.702,229.931 155.547,230.083 155.476 C 230.305 155.372,230.305 155.320,230.083 155.217 C 229.931 155.146,229.806 154.941,229.806 154.761 C 229.806 154.581,229.899 154.491,230.013 154.562 C 230.128 154.633,230.187 154.417,230.146 154.076 C 230.106 153.739,230.219 153.232,230.397 152.949 C 230.604 152.623,230.710 151.938,230.690 151.066 C 230.646 149.205,230.660 149.095,230.914 149.252 C 231.036 149.327,231.136 149.192,231.136 148.951 C 231.136 148.710,231.011 148.463,230.859 148.402 C 230.637 148.312,230.637 148.286,230.859 148.272 C 231.029 148.262,231.136 147.928,231.136 147.405 C 231.136 146.938,231.206 146.485,231.293 146.399 C 231.379 146.312,231.488 145.573,231.535 144.755 C 231.582 143.938,231.632 143.094,231.647 142.881 C 231.662 142.668,231.755 142.493,231.855 142.493 C 231.955 142.493,232.031 142.019,232.024 141.440 C 232.007 139.952,232.105 139.169,232.307 139.169 C 232.403 139.169,232.377 138.976,232.251 138.739 C 232.110 138.476,232.101 138.260,232.229 138.181 C 232.344 138.110,232.443 137.880,232.449 137.669 C 232.492 136.323,232.594 135.623,232.749 135.623 C 232.847 135.623,232.916 135.249,232.904 134.792 C 232.892 134.335,232.941 133.662,233.013 133.296 C 233.086 132.931,233.180 132.169,233.223 131.604 C 233.266 131.038,233.403 130.241,233.528 129.831 C 233.803 128.928,233.796 128.310,233.509 128.310 C 233.393 128.310,233.422 128.161,233.573 127.978 C 233.737 127.781,233.756 127.645,233.621 127.645 C 233.496 127.645,233.445 127.446,233.509 127.202 C 233.573 126.958,233.719 126.759,233.834 126.759 C 233.949 126.759,233.981 126.659,233.906 126.537 C 233.830 126.416,233.874 126.316,234.004 126.316 C 234.133 126.316,234.238 126.110,234.238 125.859 C 234.238 125.567,234.139 125.454,233.961 125.544 C 233.809 125.621,233.845 125.551,234.041 125.388 C 234.308 125.168,234.348 124.958,234.201 124.558 C 234.066 124.195,234.086 123.972,234.264 123.862 C 234.407 123.774,234.467 123.551,234.397 123.368 C 234.326 123.185,234.331 122.973,234.407 122.897 C 234.483 122.821,234.575 122.537,234.612 122.266 C 234.649 121.995,234.731 121.548,234.795 121.274 C 234.869 120.959,234.808 120.774,234.630 120.772 C 234.450 120.770,234.431 120.710,234.578 120.606 C 234.704 120.516,234.798 120.294,234.786 120.111 C 234.775 119.928,234.864 119.646,234.986 119.484 C 235.140 119.279,235.111 119.130,234.889 118.989 C 234.656 118.842,234.647 118.787,234.855 118.785 C 235.067 118.782,235.082 118.672,234.913 118.356 C 234.750 118.053,234.759 117.906,234.941 117.845 C 235.265 117.737,235.385 117.008,235.078 117.008 C 234.924 117.008,234.926 116.916,235.084 116.724 C 235.428 116.311,235.573 115.274,235.300 115.183 C 235.152 115.134,235.178 114.986,235.372 114.782 C 235.541 114.605,235.701 113.912,235.729 113.243 C 235.757 112.574,235.895 111.749,236.035 111.411 C 236.175 111.073,236.233 110.447,236.163 110.020 C 236.087 109.551,236.171 108.924,236.374 108.439 C 236.575 107.957,236.667 107.270,236.603 106.726 C 236.545 106.226,236.599 105.693,236.724 105.540 C 236.849 105.388,236.877 105.263,236.787 105.263 C 236.696 105.263,236.758 105.094,236.926 104.888 C 237.093 104.682,237.122 104.578,236.990 104.657 C 236.858 104.736,236.750 104.665,236.750 104.499 C 236.750 104.333,236.858 104.239,236.990 104.290 C 237.161 104.355,237.227 113.378,237.219 135.586 L 237.209 166.791 237.671 167.009 C 237.957 167.144,242.679 167.222,250.091 167.215 L 262.050 167.202 262.106 113.636 L 262.161 60.070 243.863 60.059 C 231.521 60.052,225.610 60.121,225.704 60.273 C 225.781 60.397,225.738 60.499,225.609 60.499 C 225.480 60.499,225.390 60.573,225.409 60.665 C 225.428 60.756,225.367 61.007,225.274 61.222 C 225.176 61.445,225.211 61.743,225.355 61.916 C 225.549 62.150,225.523 62.252,225.244 62.359 C 224.972 62.463,224.942 62.572,225.122 62.789 C 225.297 63.000,225.293 63.150,225.108 63.335 C 224.967 63.476,224.845 64.232,224.836 65.015 C 224.827 65.799,224.758 66.401,224.682 66.354 C 224.606 66.307,224.557 66.924,224.573 67.725 C 224.588 68.526,224.521 69.231,224.423 69.292 C 224.325 69.353,224.353 69.533,224.486 69.693 C 224.663 69.906,224.655 70.009,224.456 70.075 C 224.292 70.130,224.165 70.676,224.134 71.457 C 224.103 72.244,223.967 72.821,223.787 72.936 C 223.624 73.039,223.594 73.125,223.720 73.127 C 223.847 73.129,223.965 73.330,223.983 73.573 C 224.002 73.817,223.916 74.017,223.794 74.017 C 223.662 74.017,223.613 74.424,223.675 75.014 C 223.732 75.562,223.698 76.011,223.600 76.011 C 223.501 76.011,223.473 76.211,223.537 76.454 C 223.601 76.698,223.566 76.898,223.461 76.898 C 223.355 76.898,223.258 77.194,223.245 77.556 C 223.232 77.924,223.316 78.156,223.435 78.082 C 223.551 78.010,223.493 78.188,223.305 78.477 C 222.905 79.091,222.643 80.292,222.950 80.102 C 223.064 80.032,223.158 80.079,223.158 80.209 C 223.158 80.338,223.059 80.443,222.938 80.443 C 222.688 80.443,222.742 81.064,223.032 81.530 C 223.151 81.721,223.144 81.790,223.014 81.710 C 222.896 81.637,222.792 81.919,222.780 82.347 C 222.768 82.770,222.662 83.237,222.545 83.386 C 222.259 83.749,222.280 84.504,222.582 84.706 C 222.740 84.811,222.709 84.871,222.493 84.875 C 222.198 84.881,222.198 84.906,222.493 85.097 C 222.750 85.263,222.757 85.313,222.525 85.315 C 222.349 85.317,222.277 85.457,222.352 85.651 C 222.422 85.834,222.391 85.983,222.284 85.983 C 222.177 85.983,222.117 86.158,222.152 86.371 C 222.186 86.584,222.103 86.903,221.966 87.079 C 221.767 87.334,221.784 87.359,222.050 87.202 C 222.337 87.033,222.340 87.058,222.078 87.381 C 221.848 87.665,221.841 87.756,222.050 87.756 C 222.266 87.756,222.268 87.826,222.059 88.077 C 221.912 88.254,221.820 88.678,221.853 89.019 C 221.887 89.361,221.803 89.843,221.667 90.091 C 221.531 90.340,221.441 90.888,221.467 91.310 C 221.493 91.732,221.438 92.302,221.344 92.576 C 221.232 92.905,221.262 93.075,221.433 93.075 C 221.576 93.075,221.532 93.198,221.333 93.352 C 221.061 93.561,220.984 93.966,221.013 95.014 C 221.035 95.776,220.953 96.436,220.831 96.482 C 220.693 96.534,220.707 96.669,220.869 96.841 C 221.134 97.123,221.023 97.805,220.741 97.630 C 220.655 97.578,220.576 97.877,220.564 98.296 C 220.549 98.815,220.624 99.009,220.798 98.904 C 220.986 98.792,220.989 98.835,220.810 99.071 C 220.436 99.563,220.242 100.214,220.519 100.043 C 220.650 99.962,220.593 100.213,220.392 100.601 C 220.088 101.188,220.076 101.366,220.318 101.665 C 220.506 101.897,220.516 101.968,220.345 101.866 C 220.162 101.756,220.080 101.930,220.079 102.432 C 220.078 103.157,219.917 104.832,219.828 105.042 C 219.802 105.102,219.796 105.235,219.813 105.335 C 219.830 105.436,219.736 105.450,219.603 105.368 C 219.470 105.286,219.410 105.170,219.470 105.110 C 219.529 105.050,219.450 104.637,219.293 104.190 C 219.135 103.744,219.045 103.037,219.091 102.619 C 219.140 102.164,219.061 101.786,218.895 101.680 C 218.673 101.539,218.675 101.502,218.905 101.499 C 219.065 101.497,219.132 101.394,219.056 101.271 C 218.979 101.147,218.849 101.087,218.766 101.139 C 218.683 101.190,218.627 100.646,218.641 99.929 C 218.655 99.212,218.586 98.675,218.488 98.736 C 218.390 98.796,218.357 98.589,218.414 98.276 C 218.470 97.963,218.445 97.590,218.356 97.447 C 218.268 97.304,218.202 96.860,218.210 96.461 C 218.218 96.061,218.145 95.734,218.048 95.734 C 217.951 95.734,217.866 95.410,217.861 95.014 C 217.842 93.585,217.564 91.853,217.331 91.707 C 217.168 91.605,217.193 91.433,217.410 91.165 C 217.609 90.921,217.625 90.836,217.452 90.940 C 217.272 91.048,217.170 90.966,217.161 90.706 C 217.102 88.896,216.773 86.005,216.573 85.540 C 216.495 85.357,216.411 84.909,216.386 84.543 C 216.361 84.177,216.327 83.679,216.311 83.435 C 216.286 83.065,216.246 83.047,216.066 83.324 C 215.937 83.524,215.850 83.551,215.848 83.393 C 215.846 83.247,215.945 83.067,216.066 82.992 C 216.375 82.801,216.344 81.917,216.017 81.590 C 215.868 81.441,215.777 80.962,215.815 80.524 C 215.867 79.912,215.815 79.767,215.587 79.897 C 215.349 80.032,215.345 80.007,215.568 79.767 C 215.898 79.411,215.939 78.449,215.623 78.449 C 215.501 78.449,215.402 78.093,215.402 77.659 C 215.402 77.224,215.288 76.655,215.148 76.395 C 214.958 76.040,214.958 75.900,215.148 75.837 C 215.475 75.728,215.479 74.966,215.153 74.857 C 215.017 74.812,214.911 74.332,214.918 73.791 C 214.926 73.250,214.813 72.732,214.668 72.640 C 214.481 72.521,214.501 72.470,214.737 72.465 C 214.971 72.461,214.992 72.409,214.807 72.292 C 214.660 72.198,214.510 71.446,214.467 70.578 C 214.424 69.727,214.312 68.906,214.218 68.753 C 214.123 68.601,214.107 68.377,214.183 68.255 C 214.258 68.133,214.239 68.033,214.141 68.033 C 214.042 68.032,213.961 67.509,213.961 66.869 C 213.961 66.230,213.853 65.533,213.721 65.322 C 213.589 65.110,213.524 64.437,213.578 63.826 C 213.643 63.074,213.591 62.715,213.417 62.715 C 213.275 62.715,213.221 62.615,213.296 62.493 C 213.372 62.371,213.351 62.271,213.250 62.271 C 213.150 62.271,213.085 61.898,213.107 61.440 C 213.128 60.983,213.046 60.488,212.923 60.340 C 212.550 59.888,176.526 59.932,176.699 60.384 M272.741 60.315 C 272.405 60.437,272.182 60.619,272.244 60.721 C 272.366 60.918,272.390 165.018,272.268 166.028 C 272.226 166.379,272.298 166.609,272.442 166.582 C 272.577 166.558,272.662 166.662,272.632 166.814 C 272.557 167.188,270.432 167.154,296.688 167.206 C 322.594 167.259,321.595 167.308,320.901 166.011 C 320.703 165.640,320.653 162.944,320.706 155.355 C 320.744 149.766,320.708 145.236,320.625 145.288 C 320.542 145.339,320.412 145.281,320.336 145.158 C 320.247 145.014,316.755 144.938,310.457 144.943 L 300.716 144.950 300.662 133.897 C 300.628 126.649,300.686 122.838,300.831 122.828 C 300.953 122.819,304.621 122.798,308.982 122.781 C 315.094 122.756,316.874 122.688,316.751 122.483 C 316.628 122.278,316.668 122.279,316.923 122.485 C 317.192 122.702,317.326 122.672,317.617 122.332 C 318.060 121.815,318.214 103.186,317.783 102.380 C 317.608 102.054,317.616 101.939,317.813 101.939 C 317.960 101.939,318.021 101.880,317.949 101.808 C 317.877 101.736,313.909 101.687,309.132 101.698 L 300.447 101.718 300.580 101.219 C 300.654 100.945,300.716 96.607,300.717 91.579 L 300.720 82.438 308.994 82.438 C 313.544 82.438,317.335 82.369,317.419 82.285 C 317.664 82.040,318.449 82.048,318.449 82.295 C 318.449 82.420,318.590 82.329,318.763 82.093 C 318.970 81.809,319.004 81.576,318.863 81.405 C 318.724 81.238,318.730 81.097,318.881 81.004 C 319.199 80.807,319.203 61.081,318.885 60.486 C 318.623 59.997,274.071 59.831,272.741 60.315 M328.254 60.239 C 328.032 60.379,327.987 71.072,328.032 113.199 C 328.063 142.231,328.017 166.008,327.929 166.039 C 327.841 166.069,327.894 166.343,328.046 166.648 L 328.323 167.202 345.824 167.224 C 355.822 167.236,363.434 167.160,363.581 167.047 C 363.737 166.927,363.895 166.940,363.983 167.081 C 364.071 167.224,365.019 167.300,366.431 167.277 C 367.698 167.257,368.698 167.181,368.654 167.109 C 368.609 167.037,369.336 166.965,370.270 166.948 C 372.640 166.906,374.589 166.764,374.849 166.614 C 374.970 166.544,375.294 166.507,375.568 166.531 C 375.842 166.555,376.066 166.494,376.066 166.397 C 376.066 166.299,376.216 166.276,376.399 166.346 C 376.593 166.421,376.733 166.349,376.735 166.173 C 376.738 165.920,376.768 165.920,376.929 166.173 C 377.061 166.383,377.165 166.400,377.271 166.229 C 377.354 166.094,377.703 165.983,378.047 165.983 C 378.391 165.983,379.020 165.838,379.446 165.660 C 379.872 165.482,380.283 165.399,380.360 165.475 C 380.436 165.552,380.499 165.502,380.499 165.364 C 380.499 165.227,380.898 164.995,381.385 164.849 C 381.873 164.703,382.271 164.500,382.271 164.397 C 382.271 164.294,382.521 164.211,382.825 164.211 C 383.130 164.211,383.380 164.114,383.380 163.997 C 383.380 163.879,383.591 163.670,383.849 163.531 C 384.180 163.355,384.275 163.352,384.169 163.524 C 384.086 163.658,384.124 163.767,384.253 163.767 C 384.382 163.767,384.488 163.693,384.488 163.601 C 384.488 163.510,384.937 163.152,385.485 162.805 C 386.409 162.221,386.844 161.796,386.205 162.100 C 386.053 162.173,386.120 162.104,386.355 161.947 C 387.251 161.348,388.942 159.551,388.810 159.337 C 388.734 159.214,388.817 159.114,388.994 159.114 C 389.367 159.114,389.584 158.649,389.584 157.853 C 389.584 157.447,389.676 157.328,389.917 157.421 C 390.157 157.513,390.249 157.397,390.249 157.001 C 390.249 156.700,390.349 156.454,390.471 156.454 C 390.593 156.454,390.693 156.211,390.693 155.913 C 390.693 155.616,390.791 155.312,390.911 155.238 C 391.031 155.163,391.131 154.883,391.134 154.615 C 391.145 153.624,391.235 153.130,391.405 153.130 C 391.501 153.130,391.579 152.801,391.579 152.399 C 391.579 151.997,391.699 151.548,391.845 151.402 C 392.052 151.195,392.052 151.136,391.845 151.136 C 391.699 151.136,391.579 150.936,391.579 150.693 C 391.579 150.449,391.679 150.249,391.801 150.249 C 391.922 150.249,392.022 150.050,392.022 149.806 C 392.022 149.562,391.910 149.363,391.773 149.363 C 391.598 149.363,391.604 149.267,391.792 149.040 C 391.940 148.863,391.993 148.609,391.911 148.476 C 391.829 148.344,391.872 148.103,392.006 147.942 C 392.140 147.780,392.211 147.411,392.163 147.120 C 392.115 146.830,392.230 146.418,392.417 146.204 C 392.605 145.990,392.696 145.752,392.620 145.676 C 392.543 145.600,392.587 145.339,392.717 145.096 C 392.847 144.854,392.863 144.711,392.754 144.779 C 392.645 144.846,392.410 144.808,392.233 144.695 C 391.972 144.527,392.006 144.462,392.410 144.351 C 393.025 144.182,393.101 142.993,392.551 142.153 C 392.221 141.650,392.221 141.607,392.551 141.607 C 392.748 141.607,392.909 141.501,392.909 141.372 C 392.909 141.243,392.793 141.208,392.653 141.295 C 392.501 141.389,392.457 141.357,392.545 141.214 C 392.785 140.826,392.827 90.194,392.587 90.194 C 392.471 90.194,392.496 90.074,392.643 89.928 C 392.799 89.772,392.909 89.022,392.909 88.111 C 392.909 86.904,392.849 86.619,392.643 86.825 C 392.212 87.256,391.919 87.129,392.320 86.686 C 392.777 86.182,392.798 84.486,392.355 83.901 C 392.180 83.670,392.084 83.404,392.142 83.310 C 392.200 83.216,392.138 82.857,392.004 82.512 C 391.638 81.564,391.580 81.108,391.827 81.108 C 392.048 81.108,391.963 79.999,391.710 79.589 C 391.636 79.470,391.701 79.323,391.855 79.261 C 392.036 79.188,392.009 79.142,391.777 79.131 C 391.487 79.117,391.435 78.891,391.495 77.895 C 391.536 77.224,391.488 76.676,391.389 76.676 C 391.217 76.676,391.177 76.532,391.083 75.584 C 391.060 75.349,390.945 75.216,390.829 75.288 C 390.708 75.363,390.678 75.260,390.759 75.050 C 390.837 74.847,390.807 74.681,390.693 74.681 C 390.578 74.681,390.548 74.517,390.625 74.317 C 390.709 74.097,390.609 73.839,390.373 73.666 C 390.158 73.509,390.026 73.249,390.081 73.089 C 390.135 72.929,390.016 72.648,389.816 72.465 C 389.615 72.283,389.278 71.762,389.068 71.309 C 388.857 70.856,388.513 70.385,388.303 70.263 C 388.088 70.137,388.043 70.038,388.199 70.034 C 388.352 70.031,388.476 69.928,388.476 69.806 C 388.476 69.684,388.402 69.609,388.310 69.640 C 388.219 69.670,388.102 69.596,388.050 69.474 C 387.999 69.352,387.575 68.874,387.108 68.412 C 386.642 67.951,386.260 67.479,386.260 67.365 C 386.260 67.251,385.986 66.982,385.651 66.767 C 385.316 66.553,384.760 66.102,384.415 65.765 C 384.071 65.428,383.647 65.152,383.473 65.152 C 383.300 65.152,383.158 65.047,383.158 64.918 C 383.158 64.789,383.071 64.737,382.964 64.803 C 382.857 64.869,382.360 64.625,381.858 64.262 C 381.356 63.898,380.815 63.601,380.656 63.601 C 380.496 63.601,380.231 63.476,380.067 63.324 C 379.825 63.099,379.799 63.110,379.929 63.380 C 380.029 63.588,379.971 63.569,379.773 63.328 C 379.599 63.116,379.393 63.008,379.313 63.087 C 379.234 63.167,379.169 63.107,379.169 62.955 C 379.169 62.802,379.044 62.722,378.892 62.777 C 378.740 62.831,378.329 62.731,377.980 62.554 C 377.630 62.378,377.160 62.282,376.935 62.340 C 376.709 62.399,376.533 62.383,376.544 62.304 C 376.599 61.879,376.477 61.758,376.288 62.050 C 376.132 62.291,376.072 62.303,376.070 62.092 C 376.068 61.933,375.967 61.864,375.845 61.939 C 375.723 62.014,375.623 61.987,375.623 61.878 C 375.623 61.592,374.960 61.634,374.951 61.921 C 374.948 62.053,374.823 62.003,374.674 61.810 C 374.311 61.339,373.106 61.116,372.742 61.452 C 372.516 61.662,372.481 61.645,372.575 61.374 C 372.669 61.104,372.499 61.022,371.777 60.990 C 371.272 60.967,370.659 60.910,370.416 60.863 C 370.172 60.816,369.806 60.864,369.602 60.969 C 369.362 61.093,369.201 61.067,369.144 60.893 C 369.085 60.718,368.372 60.605,367.076 60.564 C 365.987 60.529,364.971 60.454,364.818 60.395 C 364.665 60.337,364.303 60.379,364.015 60.489 C 363.670 60.620,363.406 60.603,363.241 60.438 C 363.104 60.301,362.990 60.283,362.988 60.399 C 362.986 60.515,362.894 60.466,362.784 60.291 C 362.627 60.044,362.513 60.031,362.268 60.234 C 362.095 60.377,361.891 60.432,361.815 60.356 C 361.538 60.080,360.658 60.164,360.385 60.494 C 360.139 60.790,360.112 60.790,360.163 60.499 C 360.207 60.250,359.985 60.158,359.281 60.134 C 358.764 60.117,358.396 60.191,358.463 60.300 C 358.531 60.409,358.486 60.499,358.364 60.499 C 358.242 60.499,358.091 60.415,358.028 60.314 C 357.820 59.978,329.490 59.982,329.277 60.318 C 329.137 60.540,329.092 60.543,329.089 60.332 C 329.085 60.020,328.671 59.974,328.254 60.239 M360.749 79.543 C 361.008 79.681,361.219 79.722,361.219 79.633 C 361.219 79.545,361.376 79.666,361.568 79.902 C 361.760 80.139,361.854 80.209,361.778 80.058 C 361.687 79.879,361.756 79.828,361.976 79.913 C 362.161 79.984,362.291 80.157,362.264 80.298 C 362.238 80.439,362.353 80.525,362.520 80.490 C 362.691 80.453,362.777 80.550,362.717 80.711 C 362.657 80.868,362.831 81.188,363.103 81.421 C 363.398 81.674,363.554 82.007,363.491 82.249 C 363.432 82.471,363.464 82.829,363.560 83.044 C 363.865 83.722,363.866 83.820,363.865 109.775 C 363.864 128.684,363.930 135.308,364.120 135.537 C 364.262 135.708,364.280 135.845,364.160 135.845 C 364.042 135.845,363.948 136.418,363.953 137.119 C 363.971 140.151,363.871 141.628,363.657 141.496 C 363.368 141.317,363.376 141.525,363.679 142.091 C 363.858 142.425,363.856 142.506,363.675 142.393 C 363.504 142.288,363.457 142.485,363.525 143.032 C 363.588 143.538,363.509 143.939,363.306 144.142 C 363.126 144.322,363.079 144.515,363.197 144.588 C 363.321 144.665,363.292 144.934,363.125 145.256 C 362.804 145.875,361.440 147.518,361.440 147.286 C 361.440 147.201,361.266 147.225,361.053 147.339 C 360.839 147.453,360.326 147.600,359.911 147.665 C 359.496 147.730,359.097 147.872,359.025 147.980 C 358.952 148.088,358.294 148.161,357.562 148.143 L 356.233 148.111 356.178 113.791 C 356.146 93.636,356.206 79.420,356.323 79.348 C 356.680 79.127,360.267 79.285,360.749 79.543 M237.545 101.551 C 237.535 101.825,237.477 101.925,237.415 101.771 C 237.353 101.618,237.212 101.549,237.100 101.618 C 236.868 101.762,236.823 101.423,237.045 101.200 C 237.339 100.906,237.562 101.063,237.545 101.551 " stroke="none" fill="#719cd4" fill-rule="evenodd"></path><path id="path3" d="M226.340 59.884 C 226.285 59.973,234.098 60.025,243.702 60.001 C 253.306 59.976,259.019 59.929,256.399 59.896 C 244.557 59.745,226.430 59.738,226.340 59.884 M339.723 59.836 L 328.753 59.955 339.889 59.997 C 346.921 60.024,351.025 59.961,351.025 59.826 C 351.025 59.708,350.950 59.636,350.859 59.664 C 350.767 59.693,345.756 59.770,339.723 59.836 M186.205 60.000 C 190.928 60.033,198.657 60.033,203.380 60.000 C 208.102 59.967,204.238 59.939,194.792 59.939 C 185.346 59.939,181.482 59.967,186.205 60.000 M284.377 60.000 C 290.562 60.033,300.684 60.033,306.870 60.000 C 313.055 59.967,307.994 59.940,295.623 59.940 C 283.252 59.940,278.191 59.967,284.377 60.000 M392.325 83.185 C 392.036 83.515,392.328 84.213,392.753 84.207 C 392.934 84.205,392.923 84.143,392.719 84.013 C 392.530 83.894,392.474 83.647,392.567 83.352 C 392.738 82.815,392.682 82.776,392.325 83.185 M202.109 109.529 C 202.107 109.864,202.205 110.139,202.327 110.139 C 202.607 110.139,202.607 109.686,202.327 109.252 C 202.159 108.993,202.111 109.054,202.109 109.529 M309.141 122.770 L 300.831 122.889 309.073 122.940 C 314.384 122.973,317.363 122.913,317.452 122.770 C 317.527 122.648,317.558 122.572,317.520 122.600 C 317.482 122.628,313.712 122.705,309.141 122.770 M305.540 144.875 C 308.130 144.911,312.368 144.911,314.958 144.875 C 317.548 144.840,315.429 144.811,310.249 144.811 C 305.069 144.811,302.950 144.840,305.540 144.875 M182.881 167.479 C 186.141 167.514,191.476 167.514,194.737 167.479 C 197.997 167.445,195.330 167.416,188.809 167.416 C 182.288 167.416,179.620 167.445,182.881 167.479 M215.582 167.479 C 217.937 167.515,221.726 167.515,224.004 167.479 C 226.281 167.443,224.355 167.413,219.723 167.414 C 215.091 167.414,213.228 167.443,215.582 167.479 M244.060 167.479 C 247.329 167.514,252.614 167.514,255.805 167.479 C 258.996 167.444,256.321 167.416,249.861 167.416 C 243.402 167.416,240.791 167.445,244.060 167.479 M284.931 167.479 C 291.421 167.512,302.042 167.512,308.532 167.479 C 315.022 167.447,309.712 167.420,296.731 167.420 C 283.751 167.420,278.440 167.447,284.931 167.479 M337.341 167.479 C 342.186 167.512,350.114 167.512,354.958 167.479 C 359.803 167.446,355.839 167.419,346.150 167.419 C 336.460 167.419,332.496 167.446,337.341 167.479 " stroke="none" fill="#6c98a8" fill-rule="evenodd"></path><path id="path4" d="M211.977 59.818 C 211.830 60.055,212.262 60.388,212.460 60.190 C 212.532 60.118,212.744 60.183,212.931 60.334 C 213.202 60.554,213.237 60.553,213.105 60.334 C 212.851 59.911,212.124 59.579,211.977 59.818 M273.128 59.837 C 273.051 59.961,272.916 60.018,272.827 59.963 C 272.624 59.837,271.994 60.212,272.149 60.367 C 272.349 60.567,273.206 60.245,273.330 59.923 C 273.467 59.563,273.333 59.506,273.128 59.837 M318.006 59.972 C 318.006 60.266,318.066 60.281,318.338 60.055 C 318.521 59.904,318.670 59.742,318.670 59.696 C 318.670 59.650,318.521 59.612,318.338 59.612 C 318.155 59.612,318.006 59.774,318.006 59.972 M318.870 60.458 C 319.196 61.066,319.213 80.799,318.888 80.999 C 318.634 81.156,318.806 81.551,319.129 81.551 C 319.492 81.551,319.291 60.225,318.926 60.104 C 318.690 60.025,318.679 60.100,318.870 60.458 M354.626 60.208 C 354.839 60.264,355.188 60.264,355.402 60.208 C 355.615 60.152,355.440 60.107,355.014 60.107 C 354.587 60.107,354.413 60.152,354.626 60.208 M362.770 60.290 C 362.770 60.419,362.863 60.467,362.976 60.397 C 363.090 60.327,363.240 60.362,363.309 60.474 C 363.443 60.691,364.322 60.545,364.321 60.307 C 364.321 60.229,363.972 60.141,363.545 60.111 C 363.113 60.080,362.770 60.159,362.770 60.290 M272.134 113.244 C 272.132 142.170,272.181 165.788,272.242 165.727 C 272.387 165.582,272.392 60.906,272.247 60.761 C 272.186 60.700,272.135 84.317,272.134 113.244 M327.535 113.463 C 327.535 155.331,327.591 165.983,327.812 165.983 C 328.033 165.983,328.077 155.362,328.032 113.463 C 327.995 78.780,327.901 60.942,327.755 60.942 C 327.609 60.942,327.535 78.742,327.535 113.463 M372.144 61.235 C 372.069 61.357,372.122 61.384,372.265 61.295 C 372.406 61.208,372.521 61.249,372.521 61.385 C 372.521 61.521,372.620 61.571,372.742 61.496 C 372.864 61.421,372.964 61.282,372.964 61.187 C 372.964 60.938,372.304 60.976,372.144 61.235 M176.508 113.573 C 176.508 142.338,176.534 154.072,176.565 139.650 C 176.597 125.227,176.597 101.693,176.565 87.351 C 176.534 73.009,176.508 84.809,176.508 113.573 M374.515 61.594 C 374.515 61.708,374.615 61.864,374.737 61.939 C 374.859 62.014,374.958 61.965,374.958 61.828 C 374.958 61.692,375.058 61.642,375.180 61.717 C 375.302 61.793,375.402 61.749,375.402 61.620 C 375.402 61.491,375.202 61.385,374.958 61.385 C 374.715 61.385,374.515 61.479,374.515 61.594 M224.993 62.037 C 224.971 62.330,225.063 62.428,225.284 62.344 C 225.532 62.248,225.548 62.149,225.352 61.913 C 225.030 61.524,225.031 61.524,224.993 62.037 M376.584 62.130 C 376.584 62.313,376.743 62.391,376.987 62.327 C 377.209 62.269,377.337 62.133,377.270 62.025 C 377.080 61.718,376.584 61.794,376.584 62.130 M377.636 62.352 C 378.083 62.743,378.810 62.977,378.532 62.640 C 378.365 62.437,378.074 62.271,377.886 62.271 C 377.698 62.271,377.585 62.308,377.636 62.352 M379.740 63.407 C 379.854 63.591,380.421 63.531,380.641 63.311 C 380.726 63.226,380.536 63.178,380.220 63.204 C 379.903 63.230,379.687 63.322,379.740 63.407 M381.828 64.277 C 382.678 64.853,382.911 64.929,383.068 64.676 C 383.162 64.523,383.130 64.479,382.988 64.566 C 382.858 64.647,382.600 64.563,382.416 64.379 C 382.232 64.195,381.950 64.046,381.789 64.048 C 381.571 64.050,381.581 64.109,381.828 64.277 M214.171 68.274 C 214.089 68.407,214.133 68.626,214.269 68.762 C 214.450 68.943,214.515 68.879,214.515 68.521 C 214.515 67.986,214.400 67.903,214.171 68.274 M224.266 68.235 C 224.449 68.364,224.490 68.471,224.359 68.473 C 224.226 68.475,224.123 68.864,224.129 69.338 C 224.136 69.955,224.221 70.168,224.430 70.088 C 224.641 70.006,224.656 69.898,224.482 69.689 C 224.351 69.531,224.332 69.348,224.440 69.281 C 224.746 69.092,224.600 68.179,224.248 68.084 C 223.999 68.017,224.002 68.048,224.266 68.235 M223.969 70.859 C 223.672 71.956,223.638 72.388,223.829 72.689 C 224.014 72.981,224.040 72.981,224.055 72.687 C 224.065 72.504,224.103 71.931,224.141 71.413 C 224.214 70.424,224.146 70.206,223.969 70.859 M214.515 71.455 C 214.515 71.889,214.615 72.244,214.737 72.244 C 214.859 72.244,214.958 71.950,214.958 71.592 C 214.958 71.234,214.859 70.879,214.737 70.803 C 214.605 70.722,214.515 70.986,214.515 71.455 M389.012 71.191 C 389.083 71.343,389.203 71.643,389.278 71.856 C 389.353 72.069,389.494 72.244,389.591 72.244 C 389.688 72.244,389.655 71.945,389.517 71.579 C 389.379 71.213,389.180 70.914,389.074 70.914 C 388.969 70.914,388.941 71.039,389.012 71.191 M390.028 73.217 C 390.028 73.387,390.180 73.584,390.365 73.656 C 390.641 73.761,390.660 73.704,390.468 73.347 C 390.193 72.833,390.028 72.784,390.028 73.217 M223.601 73.573 C 223.601 73.817,223.695 74.017,223.809 74.017 C 223.923 74.017,224.002 73.817,223.983 73.573 C 223.965 73.330,223.872 73.130,223.776 73.130 C 223.680 73.130,223.601 73.330,223.601 73.573 M390.688 74.606 C 390.814 74.668,390.861 74.810,390.793 74.920 C 390.724 75.031,390.768 75.296,390.890 75.511 C 391.073 75.831,391.104 75.786,391.065 75.253 C 391.039 74.897,390.893 74.580,390.739 74.549 C 390.585 74.518,390.563 74.544,390.688 74.606 M223.469 75.090 C 223.556 75.231,223.535 75.346,223.422 75.346 C 223.308 75.346,223.228 75.695,223.242 76.122 C 223.257 76.548,223.355 76.897,223.461 76.897 C 223.566 76.897,223.601 76.698,223.537 76.454 C 223.473 76.211,223.490 76.011,223.575 76.011 C 223.831 76.011,223.812 75.144,223.553 74.984 C 223.408 74.895,223.374 74.937,223.469 75.090 M214.962 75.956 C 214.972 76.441,215.395 76.764,215.398 76.288 C 215.400 76.014,215.302 75.789,215.180 75.789 C 215.058 75.789,214.960 75.864,214.962 75.956 M391.431 78.781 C 391.431 78.964,391.564 79.114,391.727 79.114 C 391.889 79.114,392.022 78.964,392.022 78.781 C 392.022 78.598,391.889 78.449,391.727 78.449 C 391.564 78.449,391.431 78.598,391.431 78.781 M356.400 79.260 C 356.182 79.348,356.125 86.547,356.125 113.745 C 356.125 136.367,356.200 148.044,356.344 147.900 C 356.485 147.759,356.582 135.588,356.619 113.398 C 356.650 94.541,356.676 79.121,356.676 79.131 C 356.676 79.141,356.552 79.199,356.400 79.260 M359.815 79.462 C 359.882 79.636,360.175 79.778,360.467 79.778 C 361.175 79.778,361.136 79.648,360.346 79.373 C 359.811 79.186,359.716 79.202,359.815 79.462 M391.785 79.749 C 391.907 79.977,391.935 80.242,391.848 80.339 C 391.761 80.435,391.808 80.446,391.953 80.364 C 392.304 80.162,392.227 79.335,391.856 79.335 C 391.639 79.335,391.620 79.442,391.785 79.749 M391.663 81.385 C 391.874 82.699,392.909 84.584,392.909 83.657 C 392.909 83.474,392.797 83.324,392.661 83.324 C 392.523 83.324,392.465 83.129,392.530 82.881 C 392.593 82.637,392.558 82.491,392.451 82.557 C 392.209 82.707,391.928 81.661,392.125 81.342 C 392.205 81.213,392.123 81.108,391.944 81.108 C 391.765 81.108,391.638 81.233,391.663 81.385 M222.604 82.294 C 222.302 82.641,222.205 83.324,222.458 83.324 C 222.571 83.324,222.716 83.050,222.780 82.715 C 222.918 81.999,222.899 81.955,222.604 82.294 M317.422 82.264 C 317.363 82.359,317.570 82.438,317.882 82.438 C 318.194 82.438,318.449 82.359,318.449 82.264 C 318.449 82.168,318.242 82.089,317.989 82.089 C 317.737 82.089,317.481 82.168,317.422 82.264 M300.770 91.634 C 300.739 96.632,300.655 100.940,300.583 101.208 L 300.452 101.696 308.287 101.657 L 316.122 101.617 308.534 101.554 L 300.947 101.490 300.886 92.019 L 300.826 82.548 300.770 91.634 M216.371 84.606 C 216.390 84.990,216.525 85.423,216.671 85.569 C 216.877 85.775,216.911 85.693,216.822 85.203 C 216.640 84.199,216.330 83.788,216.371 84.606 M392.726 85.412 C 392.704 85.890,392.522 86.463,392.320 86.686 C 392.119 86.909,392.056 87.091,392.182 87.091 C 392.657 87.091,392.933 86.433,392.850 85.501 L 392.764 84.543 392.726 85.412 M392.951 88.211 C 392.928 89.009,392.789 89.782,392.643 89.928 C 392.436 90.135,392.437 90.194,392.650 90.194 C 393.063 90.194,393.161 89.731,393.073 88.176 L 392.994 86.759 392.951 88.211 M221.607 89.529 C 221.828 89.672,221.847 89.745,221.662 89.747 C 221.340 89.751,221.287 90.329,221.591 90.517 C 221.705 90.587,221.870 90.528,221.958 90.385 C 222.058 90.223,222.022 90.185,221.862 90.284 C 221.722 90.371,221.607 90.342,221.607 90.220 C 221.607 90.098,221.708 89.936,221.832 89.859 C 222.107 89.689,221.902 89.306,221.538 89.311 C 221.380 89.313,221.407 89.400,221.607 89.529 M217.148 89.769 C 217.134 89.942,217.141 90.180,217.164 90.298 C 217.188 90.416,217.215 90.790,217.224 91.129 C 217.235 91.503,217.365 91.745,217.554 91.745 C 217.725 91.745,217.797 91.635,217.714 91.500 C 217.631 91.365,217.515 90.892,217.456 90.448 C 217.343 89.586,217.191 89.253,217.148 89.769 M392.690 115.802 C 392.694 129.642,392.641 141.059,392.570 141.173 C 392.500 141.287,392.597 141.321,392.786 141.248 C 393.205 141.087,393.324 90.637,392.906 90.637 C 392.756 90.637,392.684 98.962,392.690 115.802 M217.647 93.186 C 217.639 93.551,217.792 94.050,217.987 94.294 L 218.342 94.737 218.174 94.294 C 218.082 94.050,217.929 93.551,217.835 93.186 L 217.663 92.521 217.647 93.186 M217.839 95.402 C 217.839 95.584,217.939 95.734,218.061 95.734 C 218.183 95.734,218.283 95.584,218.283 95.402 C 218.283 95.219,218.183 95.069,218.061 95.069 C 217.939 95.069,217.839 95.219,217.839 95.402 M220.499 97.023 C 220.499 97.582,220.850 97.845,221.016 97.411 C 221.083 97.238,220.993 96.977,220.818 96.831 C 220.557 96.615,220.499 96.651,220.499 97.023 M220.055 99.696 C 220.055 99.833,220.180 99.946,220.332 99.948 C 220.534 99.950,220.527 100.004,220.305 100.144 C 220.138 100.250,220.047 100.472,220.102 100.639 C 220.173 100.852,220.277 100.802,220.457 100.466 C 220.659 100.089,220.643 99.935,220.383 99.719 C 220.155 99.529,220.055 99.522,220.055 99.696 M218.680 100.674 C 218.618 100.999,218.685 101.200,218.855 101.200 C 219.009 101.200,219.092 101.009,219.045 100.764 C 218.920 100.115,218.793 100.084,218.680 100.674 M237.045 101.200 C 236.823 101.423,236.868 101.762,237.100 101.618 C 237.212 101.549,237.353 101.618,237.415 101.771 C 237.477 101.925,237.535 101.825,237.545 101.551 C 237.562 101.063,237.339 100.906,237.045 101.200 M219.281 104.158 C 219.453 104.647,219.590 105.105,219.585 105.174 C 219.580 105.243,219.649 105.367,219.740 105.448 C 219.831 105.529,219.837 105.478,219.755 105.334 C 219.672 105.190,219.711 105.007,219.841 104.926 C 220.007 104.824,220.005 104.694,219.835 104.489 C 219.658 104.276,219.670 104.170,219.880 104.091 C 220.086 104.014,220.042 103.886,219.723 103.634 C 219.034 103.088,218.942 103.197,219.281 104.158 M237.119 104.611 C 237.119 104.740,237.036 104.795,236.934 104.732 C 236.833 104.669,236.750 104.759,236.750 104.931 C 236.750 105.103,236.883 105.295,237.045 105.357 C 237.242 105.433,237.341 105.289,237.341 104.924 C 237.341 104.623,237.291 104.377,237.230 104.377 C 237.169 104.377,237.119 104.482,237.119 104.611 M201.424 106.814 C 201.283 111.406,201.346 167.260,201.492 167.170 C 201.586 167.112,201.662 153.908,201.662 137.826 C 201.662 111.984,201.701 108.587,201.994 108.587 C 202.177 108.587,202.327 108.427,202.327 108.231 C 202.327 108.006,202.205 107.922,201.994 108.003 C 201.584 108.160,201.584 108.124,201.987 107.347 C 202.166 107.002,202.230 106.667,202.131 106.601 C 202.032 106.536,201.843 106.183,201.713 105.817 C 201.502 105.225,201.470 105.335,201.424 106.814 M236.117 109.047 C 236.036 109.300,236.030 109.566,236.102 109.638 C 236.174 109.710,236.233 109.603,236.233 109.400 C 236.233 109.197,236.332 109.030,236.454 109.030 C 236.576 109.030,236.676 108.931,236.676 108.809 C 236.676 108.405,236.265 108.580,236.117 109.047 M237.182 111.801 C 237.184 112.410,237.227 112.633,237.278 112.296 C 237.329 111.959,237.328 111.461,237.275 111.188 C 237.223 110.916,237.181 111.191,237.182 111.801 M202.548 112.576 C 202.548 112.820,202.689 113.019,202.860 113.019 C 203.063 113.019,203.131 112.864,203.056 112.576 C 202.992 112.332,202.852 112.133,202.744 112.133 C 202.637 112.133,202.548 112.332,202.548 112.576 M202.692 113.853 C 202.555 114.075,203.169 114.910,203.342 114.737 C 203.415 114.664,203.410 114.397,203.329 114.144 C 203.182 113.679,202.884 113.543,202.692 113.853 M235.259 114.922 C 235.176 115.137,235.226 115.239,235.388 115.185 C 235.719 115.074,235.901 114.571,235.610 114.571 C 235.491 114.571,235.333 114.729,235.259 114.922 M203.185 115.180 C 203.067 115.875,203.077 116.343,203.210 116.343 C 203.297 116.343,203.376 116.044,203.386 115.679 C 203.403 115.091,203.260 114.738,203.185 115.180 M235.433 115.639 C 235.495 115.739,235.407 116.088,235.237 116.415 C 235.068 116.741,235.013 117.008,235.116 117.008 C 235.219 117.008,235.412 116.694,235.546 116.310 C 235.844 115.456,235.844 115.457,235.555 115.457 C 235.426 115.457,235.371 115.539,235.433 115.639 M234.970 117.851 C 234.801 117.957,234.776 118.133,234.903 118.337 C 235.140 118.721,235.416 118.512,235.310 118.029 C 235.266 117.824,235.128 117.752,234.970 117.851 M203.553 118.625 C 203.458 118.843,203.442 119.084,203.518 119.160 C 203.743 119.385,203.925 119.069,203.821 118.632 C 203.729 118.245,203.717 118.245,203.553 118.625 M234.886 119.501 C 234.639 120.309,234.778 120.536,235.125 119.889 C 235.285 119.589,235.288 119.446,235.132 119.446 C 235.006 119.446,234.895 119.471,234.886 119.501 M203.917 122.674 C 203.956 123.013,204.139 123.335,204.321 123.390 C 204.579 123.468,204.595 123.428,204.394 123.214 C 204.251 123.062,204.183 122.810,204.243 122.655 C 204.303 122.499,204.237 122.301,204.098 122.215 C 203.925 122.108,203.867 122.255,203.917 122.674 M234.532 122.473 C 234.612 122.553,234.554 122.769,234.403 122.952 C 234.177 123.225,234.188 123.265,234.460 123.176 C 234.870 123.040,235.039 122.327,234.661 122.327 C 234.510 122.327,234.452 122.392,234.532 122.473 M300.662 133.916 C 300.692 140.034,300.791 145.065,300.884 145.096 C 301.100 145.168,300.988 123.171,300.771 122.954 C 300.682 122.865,300.633 127.798,300.662 133.916 M237.175 124.432 C 237.177 124.920,237.223 125.093,237.276 124.817 C 237.329 124.542,237.327 124.143,237.271 123.931 C 237.216 123.719,237.173 123.945,237.175 124.432 M234.032 124.044 C 234.093 124.694,234.430 125.056,234.444 124.488 C 234.453 124.152,234.360 123.878,234.238 123.878 C 234.116 123.878,234.024 123.953,234.032 124.044 M204.470 125.152 C 204.223 125.567,204.458 126.426,204.838 126.499 C 205.223 126.573,205.224 126.547,204.874 126.013 C 204.671 125.703,204.569 125.345,204.648 125.218 C 204.726 125.090,204.741 124.986,204.680 124.986 C 204.619 124.986,204.525 125.061,204.470 125.152 M204.805 127.468 C 204.775 127.857,204.820 128.107,204.905 128.022 C 205.119 127.808,205.213 126.759,205.018 126.759 C 204.931 126.759,204.835 127.078,204.805 127.468 M233.509 127.205 C 233.445 127.447,233.496 127.645,233.621 127.645 C 233.756 127.645,233.737 127.781,233.573 127.978 C 233.368 128.226,233.364 128.310,233.559 128.310 C 233.703 128.310,233.764 128.403,233.694 128.517 C 233.624 128.630,233.643 128.770,233.736 128.828 C 233.829 128.885,233.931 128.500,233.962 127.970 C 234.021 126.967,233.709 126.440,233.509 127.205 M204.861 128.809 C 204.972 129.597,205.244 130.305,205.436 130.305 C 205.532 130.305,205.578 130.130,205.538 129.917 C 205.497 129.704,205.456 129.448,205.446 129.350 C 205.437 129.251,205.326 129.234,205.200 129.312 C 205.056 129.401,205.010 129.241,205.075 128.882 C 205.132 128.568,205.091 128.310,204.985 128.310 C 204.878 128.310,204.823 128.535,204.861 128.809 M205.255 131.659 C 205.228 132.269,205.294 132.715,205.400 132.650 C 205.597 132.528,205.606 130.851,205.410 130.655 C 205.351 130.596,205.281 131.048,205.255 131.659 M233.335 131.690 C 233.326 131.720,233.286 131.907,233.248 132.106 C 233.209 132.304,233.110 132.678,233.028 132.937 C 232.946 133.195,232.969 133.407,233.078 133.407 C 233.188 133.407,233.282 133.283,233.287 133.130 C 233.292 132.978,233.369 132.579,233.459 132.244 C 233.577 131.802,233.460 131.281,233.335 131.690 M205.713 135.417 C 205.731 135.655,205.843 135.818,205.961 135.778 C 206.325 135.657,206.354 135.242,206.007 135.109 C 205.783 135.023,205.691 135.119,205.713 135.417 M205.982 136.286 C 206.076 136.438,206.153 137.050,206.153 137.644 C 206.153 138.399,206.243 138.726,206.449 138.726 C 206.612 138.726,206.692 138.588,206.628 138.420 C 206.563 138.251,206.483 137.683,206.450 137.158 C 206.416 136.614,206.266 136.161,206.101 136.106 C 205.915 136.044,205.872 136.109,205.982 136.286 M232.439 137.230 C 232.425 137.382,232.427 137.624,232.445 137.767 C 232.463 137.910,232.374 138.091,232.249 138.168 C 232.093 138.265,232.093 138.445,232.251 138.739 C 232.402 139.022,232.405 139.169,232.259 139.169 C 232.136 139.169,232.095 139.323,232.167 139.511 C 232.382 140.070,232.509 139.718,232.607 138.295 C 232.682 137.206,232.532 136.253,232.439 137.230 M237.182 138.172 C 237.184 138.781,237.227 139.004,237.278 138.667 C 237.329 138.330,237.328 137.832,237.275 137.559 C 237.223 137.287,237.181 137.562,237.182 138.172 M206.478 139.629 C 206.608 140.129,206.907 140.201,206.907 139.733 C 206.907 139.555,206.785 139.363,206.636 139.306 C 206.461 139.239,206.405 139.352,206.478 139.629 M206.634 140.974 C 206.642 141.363,206.751 141.715,206.877 141.757 C 207.004 141.799,207.103 141.518,207.099 141.129 C 207.095 140.742,206.985 140.390,206.856 140.346 C 206.720 140.301,206.626 140.568,206.634 140.974 M231.801 140.818 C 231.801 140.994,231.894 141.195,232.009 141.266 C 232.123 141.337,232.202 141.193,232.183 140.947 C 232.145 140.441,231.801 140.325,231.801 140.818 M392.551 142.153 C 393.101 142.993,393.025 144.182,392.410 144.351 C 392.018 144.458,391.978 144.530,392.221 144.687 C 392.470 144.847,392.448 144.907,392.110 144.993 C 391.766 145.082,391.758 145.106,392.065 145.127 C 392.703 145.170,393.130 144.272,393.130 142.887 C 393.130 141.731,393.085 141.607,392.661 141.607 C 392.214 141.607,392.209 141.632,392.551 142.153 M207.100 142.479 C 206.869 142.853,207.067 144.044,207.360 144.044 C 207.683 144.044,207.745 143.689,207.454 143.509 C 207.348 143.443,207.310 143.138,207.369 142.831 C 207.476 142.269,207.340 142.091,207.100 142.479 M231.911 142.441 C 231.645 142.636,231.557 143.380,231.799 143.380 C 231.893 143.380,232.018 143.130,232.076 142.825 C 232.135 142.521,232.171 142.273,232.158 142.275 C 232.144 142.277,232.033 142.352,231.911 142.441 M206.997 144.432 C 207.007 144.524,207.158 144.947,207.333 145.374 C 207.535 145.865,207.611 145.946,207.541 145.596 C 207.480 145.291,207.429 144.867,207.427 144.654 C 207.425 144.440,207.324 144.266,207.202 144.266 C 207.080 144.266,206.988 144.341,206.997 144.432 M320.074 145.032 C 320.074 145.209,320.150 145.307,320.243 145.250 C 320.661 144.992,320.714 146.223,320.687 155.643 C 320.669 161.994,320.739 165.772,320.880 165.983 C 321.029 166.207,321.102 162.878,321.105 155.778 C 321.108 145.123,321.079 144.709,320.325 144.709 C 320.187 144.709,320.074 144.854,320.074 145.032 M392.475 146.255 C 392.119 146.474,391.960 147.147,392.263 147.147 C 392.374 147.147,392.440 147.259,392.410 147.396 C 392.380 147.533,392.482 147.675,392.637 147.712 C 392.793 147.748,392.813 147.726,392.683 147.663 C 392.520 147.583,392.526 147.451,392.705 147.236 C 392.903 146.998,392.899 146.925,392.687 146.925 C 392.469 146.925,392.470 146.855,392.691 146.587 C 393.029 146.180,392.905 145.989,392.475 146.255 M207.522 147.056 C 207.543 147.474,207.629 147.815,207.714 147.814 C 207.798 147.813,207.937 147.812,208.022 147.812 C 208.107 147.812,208.062 147.697,207.922 147.556 C 207.753 147.387,207.736 147.169,207.873 146.913 C 208.019 146.641,207.992 146.492,207.782 146.412 C 207.563 146.328,207.493 146.500,207.522 147.056 M360.925 147.080 C 360.581 147.261,360.348 147.458,360.407 147.517 C 360.467 147.577,360.711 147.522,360.949 147.394 C 361.187 147.267,361.445 147.225,361.522 147.302 C 361.599 147.379,361.662 147.276,361.662 147.073 C 361.662 146.870,361.637 146.714,361.607 146.727 C 361.576 146.740,361.269 146.899,360.925 147.080 M358.264 147.738 C 358.002 148.000,358.106 148.160,358.560 148.194 C 358.813 148.213,359.003 148.091,359.003 147.909 C 359.003 147.582,358.529 147.473,358.264 147.738 M207.867 149.682 C 207.867 149.858,207.982 150.073,208.123 150.160 C 208.281 150.258,208.319 150.220,208.221 150.062 C 208.134 149.921,208.174 149.806,208.310 149.806 C 208.447 149.806,208.496 149.706,208.421 149.584 C 208.217 149.255,207.867 149.317,207.867 149.682 M391.856 150.138 C 391.524 150.514,391.490 151.136,391.801 151.136 C 391.922 151.136,392.030 151.061,392.039 150.970 C 392.048 150.878,392.097 150.579,392.148 150.305 C 392.256 149.727,392.230 149.713,391.856 150.138 M208.034 150.634 C 207.905 150.891,207.964 151.203,208.228 151.659 C 208.437 152.021,208.482 152.028,208.602 151.717 C 208.676 151.522,208.666 151.373,208.579 151.386 C 208.158 151.449,208.058 151.329,208.294 151.045 C 208.457 150.848,208.473 150.682,208.336 150.598 C 208.217 150.524,208.081 150.540,208.034 150.634 M208.328 152.632 C 208.308 153.201,208.640 153.301,208.838 152.786 C 208.911 152.597,208.880 152.498,208.770 152.566 C 208.660 152.634,208.519 152.564,208.457 152.411 C 208.396 152.258,208.337 152.357,208.328 152.632 M230.249 153.130 C 230.068 153.470,230.081 153.573,230.305 153.573 C 230.466 153.573,230.613 153.374,230.632 153.130 C 230.650 152.886,230.625 152.687,230.576 152.687 C 230.527 152.687,230.380 152.886,230.249 153.130 M208.468 153.795 C 208.531 154.039,208.672 154.238,208.779 154.238 C 209.011 154.238,209.019 154.168,208.841 153.702 C 208.645 153.194,208.331 153.272,208.468 153.795 M237.182 154.349 C 237.184 154.958,237.227 155.181,237.278 154.845 C 237.329 154.508,237.328 154.009,237.275 153.737 C 237.223 153.464,237.181 153.740,237.182 154.349 M229.822 155.734 C 229.878 156.330,230.218 156.744,230.186 156.177 C 230.168 155.842,230.075 155.568,229.979 155.568 C 229.884 155.568,229.813 155.643,229.822 155.734 M208.823 156.306 C 208.907 156.529,208.975 156.870,208.975 157.063 C 208.975 157.257,209.044 157.345,209.129 157.260 C 209.423 156.966,209.374 156.472,209.023 156.187 C 208.720 155.941,208.692 155.958,208.823 156.306 M389.542 158.116 C 389.440 158.990,389.696 158.880,389.925 157.950 C 390.014 157.592,389.985 157.341,389.854 157.341 C 389.733 157.341,389.592 157.690,389.542 158.116 M229.416 159.727 C 229.379 160.258,229.403 160.282,229.613 159.923 C 229.752 159.685,229.770 159.432,229.655 159.318 C 229.541 159.203,229.441 159.374,229.416 159.727 M237.182 160.332 C 237.184 160.942,237.227 161.165,237.278 160.828 C 237.329 160.491,237.328 159.993,237.275 159.720 C 237.223 159.447,237.181 159.723,237.182 160.332 M209.438 159.963 C 209.276 160.265,209.298 160.369,209.525 160.369 C 209.692 160.369,209.815 160.187,209.798 159.963 C 209.781 159.740,209.742 159.557,209.711 159.557 C 209.681 159.557,209.558 159.740,209.438 159.963 M386.744 161.599 C 386.230 161.916,386.079 162.123,386.242 162.286 C 386.370 162.414,386.501 162.476,386.534 162.423 C 386.566 162.370,386.835 162.053,387.130 161.717 C 387.759 161.004,387.724 160.994,386.744 161.599 M209.695 163.013 C 209.695 163.447,209.756 163.504,210.000 163.301 C 210.168 163.162,210.305 162.971,210.305 162.877 C 210.305 162.784,210.168 162.654,210.000 162.590 C 209.793 162.510,209.695 162.646,209.695 163.013 M383.767 163.563 C 383.351 163.806,383.242 164.211,383.593 164.211 C 383.711 164.211,383.914 164.011,384.044 163.767 C 384.314 163.263,384.300 163.253,383.767 163.563 M210.044 164.323 C 209.863 164.504,210.107 165.540,210.331 165.540 C 210.438 165.540,210.525 165.366,210.523 165.152 C 210.519 164.688,210.212 164.156,210.044 164.323 M382.271 164.432 C 382.271 164.554,382.421 164.654,382.604 164.654 C 382.787 164.654,382.936 164.554,382.936 164.432 C 382.936 164.310,382.787 164.211,382.604 164.211 C 382.421 164.211,382.271 164.310,382.271 164.432 M228.480 165.706 C 228.490 166.192,228.913 166.515,228.916 166.039 C 228.918 165.765,228.820 165.540,228.698 165.540 C 228.576 165.540,228.478 165.615,228.480 165.706 M272.181 166.652 C 272.171 167.015,272.248 167.313,272.351 167.313 C 272.455 167.313,272.698 167.374,272.890 167.448 C 273.083 167.522,273.241 167.472,273.241 167.337 C 273.241 167.202,273.086 167.091,272.896 167.091 C 272.705 167.091,272.597 167.016,272.654 166.923 C 272.712 166.830,272.633 166.582,272.479 166.372 C 272.231 166.033,272.198 166.064,272.181 166.652 M376.735 166.137 C 376.729 166.574,377.084 166.653,377.530 166.316 C 377.761 166.141,377.831 165.994,377.686 165.990 C 377.541 165.987,377.354 166.094,377.271 166.229 C 377.165 166.400,377.061 166.383,376.929 166.173 C 376.801 165.972,376.737 165.960,376.735 166.137 M210.215 166.482 C 210.494 166.974,211.033 167.535,211.225 167.535 C 211.328 167.535,211.213 167.335,210.970 167.091 C 210.726 166.848,210.526 166.548,210.526 166.427 C 210.526 166.305,210.421 166.205,210.292 166.205 C 210.163 166.205,210.128 166.330,210.215 166.482 M327.535 166.503 C 327.535 166.667,327.734 166.982,327.978 167.202 C 328.242 167.441,328.421 167.497,328.421 167.340 C 328.421 167.196,328.278 167.023,328.103 166.955 C 327.928 166.888,327.838 166.692,327.905 166.519 C 327.971 166.346,327.915 166.205,327.780 166.205 C 327.645 166.205,327.535 166.339,327.535 166.503 M320.583 166.814 C 320.621 166.967,320.554 167.091,320.436 167.091 C 320.318 167.091,320.222 167.203,320.222 167.340 C 320.222 167.523,320.300 167.524,320.519 167.342 C 320.683 167.206,320.865 167.144,320.925 167.204 C 320.985 167.264,321.034 167.168,321.034 166.990 C 321.034 166.813,320.960 166.714,320.868 166.770 C 320.777 166.826,320.661 166.797,320.609 166.705 C 320.558 166.613,320.546 166.662,320.583 166.814 M200.465 167.057 C 200.388 167.181,200.433 167.349,200.565 167.431 C 200.906 167.641,201.126 167.353,200.841 167.068 C 200.682 166.909,200.558 166.905,200.465 167.057 M226.814 167.110 C 226.455 167.280,226.490 167.296,227.002 167.196 C 227.349 167.128,227.775 167.190,227.949 167.335 C 228.205 167.547,228.238 167.528,228.125 167.234 C 227.972 166.833,227.496 166.788,226.814 167.110 M237.323 167.181 C 237.597 167.511,238.100 167.525,238.387 167.210 C 238.482 167.106,238.442 167.088,238.298 167.170 C 238.154 167.253,237.974 167.219,237.897 167.095 C 237.820 166.971,237.602 166.870,237.411 166.870 C 237.139 166.870,237.120 166.936,237.323 167.181 M363.552 167.081 C 363.473 167.208,363.440 167.320,363.477 167.329 C 363.895 167.430,364.605 167.529,364.529 167.477 C 364.476 167.440,364.266 167.283,364.064 167.129 C 363.815 166.939,363.649 166.924,363.552 167.081 M188.753 167.248 C 189.028 167.301,189.476 167.301,189.751 167.248 C 190.025 167.195,189.801 167.152,189.252 167.152 C 188.704 167.152,188.479 167.195,188.753 167.248 M194.848 167.244 C 195.061 167.300,195.410 167.300,195.623 167.244 C 195.837 167.188,195.662 167.143,195.235 167.143 C 194.809 167.143,194.634 167.188,194.848 167.244 M219.335 167.248 C 219.609 167.301,220.058 167.301,220.332 167.248 C 220.607 167.195,220.382 167.152,219.834 167.152 C 219.285 167.152,219.061 167.195,219.335 167.248 M224.543 167.244 C 224.756 167.300,225.105 167.300,225.319 167.244 C 225.532 167.188,225.357 167.143,224.931 167.143 C 224.504 167.143,224.330 167.188,224.543 167.244 M292.355 167.244 C 292.568 167.300,292.917 167.300,293.130 167.244 C 293.343 167.188,293.169 167.143,292.742 167.143 C 292.316 167.143,292.141 167.188,292.355 167.244 M299.335 167.248 C 299.609 167.301,300.058 167.301,300.332 167.248 C 300.607 167.195,300.382 167.152,299.834 167.152 C 299.285 167.152,299.061 167.195,299.335 167.248 M335.568 167.244 C 335.781 167.300,336.130 167.300,336.343 167.244 C 336.557 167.188,336.382 167.143,335.956 167.143 C 335.529 167.143,335.355 167.188,335.568 167.244 M366.981 167.313 C 366.981 167.435,367.255 167.533,367.590 167.531 C 368.065 167.529,368.126 167.480,367.867 167.313 C 367.433 167.033,366.981 167.033,366.981 167.313 " stroke="none" fill="#6c9cd8" fill-rule="evenodd"></path></g></svg>