<?xml version="1.0" encoding="UTF-8"?>
<svg width="36px" height="16px" viewBox="0 0 36 16" version="1.1" xmlns="http://www.w3.org/2000/svg" xmlns:xlink="http://www.w3.org/1999/xlink">
    <!-- Generator: Sketch 53.2 (72643) - https://sketchapp.com -->
    <title>Shape</title>
    <desc>Created with Sketch.</desc>
    <g id="Page-1" stroke="none" stroke-width="1" fill="none" fill-rule="evenodd">
        <g id="Insured-—-regisrty" transform="translate(-14.000000, -24.000000)" fill="#E21A1A" fill-rule="nonzero">
            <path d="M39.3975346,25.4110222 C39.3975346,25.079148 39.3975346,24.6641543 39.7295094,24.3321794 C40.0614843,24.0000033 40.476478,23.9999027 40.8085535,24.0000033 L44.2529811,24.0011102 C45.4979623,24.0015128 47.365434,24.0000033 48.6104151,25.2449845 C49.8553962,26.4899656 49.8553962,28.3159782 49.8553962,28.9799279 L49.8553962,30.9718775 C49.8553962,31.6359279 49.8553962,33.4618398 48.6104151,34.7068209 C47.365434,35.9518021 45.4979623,35.9518021 44.2529811,35.9518021 L42.0949937,35.9518021 C41.0159497,35.9518021 40.227522,35.9518021 39.5635723,35.6198272 C38.899522,35.2877518 38.4015094,34.6238021 37.9035975,33.9598524 L37.4055849,33.2958021 C37.0519748,32.8244562 36.7830943,32.465714 36.7830943,31.9679027 C36.7830943,31.4698901 37.0718994,31.0846826 37.4055849,30.6399027 L39.3975346,27.984104 L44.3774591,27.984104 L41.1405283,32.2998775 C40.8914717,32.6318524 40.6010566,33.0468461 40.8085535,33.5033996 C41.0159497,33.9598524 41.555522,33.9598524 41.9705157,33.9598524 L44.3774591,33.9598524 C44.709434,33.9598524 45.2074465,33.9598524 45.5394214,33.6278775 C45.8713962,33.2958021 45.8713962,32.7978901 45.8713962,32.465714 L45.8713962,27.4859907 C45.8713962,27.1540159 45.8713962,26.6560033 45.5394214,26.3239279 C45.2074465,25.9918524 44.709434,25.9918524 44.3774591,25.9918524 L39.3975346,25.9918524 L39.3975346,25.4110222 Z M33.4216855,27.9839027 L38.4016101,27.9839027 L32.4256604,35.9518021 L27.4458365,35.9518021 L33.4216855,27.9839027 Z M14,29.3949216 C14,29.0629467 14,28.647953 14.3319748,28.3159782 C14.6639497,27.9840033 15.0789434,27.9840033 15.4110189,27.9840033 L23.7523522,27.9840033 C24.8312956,27.9840033 25.6198239,27.9840033 26.2837736,28.3159782 C26.9477233,28.647953 27.4457358,29.3118021 27.9437484,29.975953 L28.441761,30.6399027 C28.7952704,31.1113492 29.0642516,31.4698901 29.0642516,31.9679027 C29.0642516,32.465714 28.7753459,32.8509216 28.441761,33.2958021 L26.4498113,35.9517014 L21.4698868,35.9517014 L24.7068176,31.6358272 C24.9557736,31.3038524 25.2462893,30.888758 25.0387925,30.4323052 C24.8312956,29.975953 24.2918239,29.975953 23.8768302,29.975953 L19.9759497,29.975953 L19.9759497,39.9357014 L15.9919497,39.9357014 L15.9919497,29.9760536 L14,29.9760536 L14,29.3949216 Z" id="Shape"></path>
        </g>
    </g>
</svg>